<?xml version="1.0" encoding="UTF-8" standalone="no"?>
<svg
   xmlns:dc="http://purl.org/dc/elements/1.1/"
   xmlns:cc="http://creativecommons.org/ns#"
   xmlns:rdf="http://www.w3.org/1999/02/22-rdf-syntax-ns#"
   xmlns:svg="http://www.w3.org/2000/svg"
   xmlns="http://www.w3.org/2000/svg"
   id="svg39939"
   version="1.1"
   viewBox="0 0 85 56"
   height="56mm"
   width="85mm">
  <defs
     id="defs39933" />
  <metadata
     id="metadata39936">
    <rdf:RDF>
      <cc:Work
         rdf:about="">
        <dc:format>image/svg+xml</dc:format>
        <dc:type
           rdf:resource="http://purl.org/dc/dcmitype/StillImage" />
        <dc:title></dc:title>
      </cc:Work>
    </rdf:RDF>
  </metadata>
  <g
     style="display:inline"
     transform="translate(0,-241)"
     id="layer1">
    <path
       id="path41118-2-9"
       d="m 4.8750005,244.5 a 1.375,1.375 0 0 1 -1.375,1.375 1.375,1.375 0 0 1 -1.375,-1.375 1.375,1.375 0 0 1 1.375,-1.375 1.375,1.375 0 0 1 1.375,1.375 z"
       style="opacity:1;vector-effect:none;fill:none;fill-opacity:1;fill-rule:evenodd;stroke:#000000;stroke-width:0.02645833;stroke-linecap:round;stroke-linejoin:round;stroke-miterlimit:4;stroke-dasharray:none;stroke-dashoffset:0;stroke-opacity:1;paint-order:fill markers stroke" />
    <path
       id="rect41490"
       d="m -1.866888,234.31979 h 88.926655 c 2.522406,0 4.553079,2.6207 4.553079,5.876 v 57.2038 c 0,3.2553 -2.030673,5.87599 -4.553079,5.87599 H -1.866888 c -2.5224061,0 -4.5530797,-2.62069 -4.5530797,-5.87599 v -57.2038 c 0,-3.2553 2.0306736,-5.876 4.5530797,-5.876 z"
       style="opacity:1;vector-effect:none;fill:none;fill-opacity:1;fill-rule:evenodd;stroke:#000000;stroke-width:0.02645833;stroke-linecap:round;stroke-linejoin:round;stroke-miterlimit:4;stroke-dasharray:none;stroke-dashoffset:0;stroke-opacity:1;paint-order:fill markers stroke" />
    <path
       id="path41118-0"
       d="M 62.875,244.5 A 1.375,1.375 0 0 1 61.5,245.875 1.375,1.375 0 0 1 60.125,244.5 1.375,1.375 0 0 1 61.5,243.125 1.375,1.375 0 0 1 62.875,244.5 Z"
       style="opacity:1;vector-effect:none;fill:none;fill-opacity:1;fill-rule:evenodd;stroke:#000000;stroke-width:0.02645833;stroke-linecap:round;stroke-linejoin:round;stroke-miterlimit:4;stroke-dasharray:none;stroke-dashoffset:0;stroke-opacity:1;paint-order:fill markers stroke" />
    <path
       id="path41118"
       d="M 62.875,293.5 A 1.375,1.375 0 0 1 61.5,294.875 1.375,1.375 0 0 1 60.125,293.5 1.375,1.375 0 0 1 61.5,292.125 1.375,1.375 0 0 1 62.875,293.5 Z"
       style="opacity:1;vector-effect:none;fill:none;fill-opacity:1;fill-rule:evenodd;stroke:#000000;stroke-width:0.02645833;stroke-linecap:round;stroke-linejoin:round;stroke-miterlimit:4;stroke-dasharray:none;stroke-dashoffset:0;stroke-opacity:1;paint-order:fill markers stroke" />
    <path
       id="path41118-2"
       d="m 4.8750005,293.5 a 1.375,1.375 0 0 1 -1.375,1.375 1.375,1.375 0 0 1 -1.375,-1.375 1.375,1.375 0 0 1 1.375,-1.375 1.375,1.375 0 0 1 1.375,1.375 z"
       style="opacity:1;vector-effect:none;fill:none;fill-opacity:1;fill-rule:evenodd;stroke:#000000;stroke-width:0.02645833;stroke-linecap:round;stroke-linejoin:round;stroke-miterlimit:4;stroke-dasharray:none;stroke-dashoffset:0;stroke-opacity:1;paint-order:fill markers stroke" />
    <path
       id="path41118-2-9-7"
       d="m -181.43893,244.48958 a 1.375,1.375 0 0 1 -1.375,1.375 1.375,1.375 0 0 1 -1.375,-1.375 1.375,1.375 0 0 1 1.375,-1.375 1.375,1.375 0 0 1 1.375,1.375 z"
       style="opacity:1;vector-effect:none;fill:none;fill-opacity:1;fill-rule:evenodd;stroke:#000000;stroke-width:0.02645833;stroke-linecap:round;stroke-linejoin:round;stroke-miterlimit:4;stroke-dasharray:none;stroke-dashoffset:0;stroke-opacity:1;paint-order:fill markers stroke"
       transform="scale(-1,1)" />
    <path
       id="rect41490-5"
       d="m -188.18081,234.30939 h 88.926658 c 2.522406,0 4.553079,2.62069 4.553079,5.87599 v 57.2038 c 0,3.2553 -2.030673,5.87599 -4.553079,5.87599 h -88.926658 c -2.5224,0 -4.55308,-2.62069 -4.55308,-5.87599 v -57.2038 c 0,-3.2553 2.03068,-5.87599 4.55308,-5.87599 z"
       style="opacity:1;vector-effect:none;fill:none;fill-opacity:1;fill-rule:evenodd;stroke:#000000;stroke-width:0.02645833;stroke-linecap:round;stroke-linejoin:round;stroke-miterlimit:4;stroke-dasharray:none;stroke-dashoffset:0;stroke-opacity:1;paint-order:fill markers stroke"
       transform="scale(-1,1)" />
    <path
       id="path41118-0-6"
       d="m -123.43887,244.48958 a 1.375,1.375 0 0 1 -1.375,1.375 1.375,1.375 0 0 1 -1.375,-1.375 1.375,1.375 0 0 1 1.375,-1.375 1.375,1.375 0 0 1 1.375,1.375 z"
       style="opacity:1;vector-effect:none;fill:none;fill-opacity:1;fill-rule:evenodd;stroke:#000000;stroke-width:0.02645833;stroke-linecap:round;stroke-linejoin:round;stroke-miterlimit:4;stroke-dasharray:none;stroke-dashoffset:0;stroke-opacity:1;paint-order:fill markers stroke"
       transform="scale(-1,1)" />
    <path
       id="path41118-1"
       d="m -123.43887,293.48959 a 1.375,1.375 0 0 1 -1.375,1.375 1.375,1.375 0 0 1 -1.375,-1.375 1.375,1.375 0 0 1 1.375,-1.375 1.375,1.375 0 0 1 1.375,1.375 z"
       style="opacity:1;vector-effect:none;fill:none;fill-opacity:1;fill-rule:evenodd;stroke:#000000;stroke-width:0.02645833;stroke-linecap:round;stroke-linejoin:round;stroke-miterlimit:4;stroke-dasharray:none;stroke-dashoffset:0;stroke-opacity:1;paint-order:fill markers stroke"
       transform="scale(-1,1)" />
    <path
       id="path41118-2-0"
       d="m -181.43893,293.48959 a 1.375,1.375 0 0 1 -1.375,1.375 1.375,1.375 0 0 1 -1.375,-1.375 1.375,1.375 0 0 1 1.375,-1.375 1.375,1.375 0 0 1 1.375,1.375 z"
       style="opacity:1;vector-effect:none;fill:none;fill-opacity:1;fill-rule:evenodd;stroke:#000000;stroke-width:0.02645833;stroke-linecap:round;stroke-linejoin:round;stroke-miterlimit:4;stroke-dasharray:none;stroke-dashoffset:0;stroke-opacity:1;paint-order:fill markers stroke"
       transform="scale(-1,1)" />
    <path
       id="rect1290"
       d="m 128.35548,290.51123 h 50.9477 v 5.97754 h -50.9477 z"
       style="opacity:1;vector-effect:none;fill:none;fill-opacity:1;fill-rule:evenodd;stroke:#000000;stroke-width:0.02645833;stroke-linecap:round;stroke-linejoin:round;stroke-miterlimit:4;stroke-dasharray:none;stroke-dashoffset:0;stroke-opacity:1;paint-order:fill markers stroke" />
    <path
       id="path41118-2-9-5"
       d="m -98.185074,244.20386 a 1.375,1.375 0 0 1 -1.375,1.375 1.375,1.375 0 0 1 -1.374996,-1.375 1.375,1.375 0 0 1 1.374996,-1.375 1.375,1.375 0 0 1 1.375,1.375 z"
       style="display:inline;opacity:1;vector-effect:none;fill:none;fill-opacity:1;fill-rule:evenodd;stroke:#000000;stroke-width:0.02645833;stroke-linecap:round;stroke-linejoin:round;stroke-miterlimit:4;stroke-dasharray:none;stroke-dashoffset:0;stroke-opacity:1;paint-order:fill markers stroke" />
    <path
       id="rect41490-0"
       d="m -104.92696,234.02365 h 88.926653 c 2.522406,0 4.55308,2.6207 4.55308,5.876 v 57.20379 c 0,3.2553 -2.030674,5.876 -4.55308,5.876 h -88.926653 c -2.52241,0 -4.55308,-2.6207 -4.55308,-5.876 v -57.20379 c 0,-3.2553 2.03067,-5.876 4.55308,-5.876 z"
       style="display:inline;opacity:1;vector-effect:none;fill:none;fill-opacity:1;fill-rule:evenodd;stroke:#000000;stroke-width:0.02645833;stroke-linecap:round;stroke-linejoin:round;stroke-miterlimit:4;stroke-dasharray:none;stroke-dashoffset:0;stroke-opacity:1;paint-order:fill markers stroke" />
    <path
       id="path41118-0-3"
       d="m -40.18507,244.20386 a 1.375,1.375 0 0 1 -1.375,1.375 1.375,1.375 0 0 1 -1.375,-1.375 1.375,1.375 0 0 1 1.375,-1.375 1.375,1.375 0 0 1 1.375,1.375 z"
       style="display:inline;opacity:1;vector-effect:none;fill:none;fill-opacity:1;fill-rule:evenodd;stroke:#000000;stroke-width:0.02645833;stroke-linecap:round;stroke-linejoin:round;stroke-miterlimit:4;stroke-dasharray:none;stroke-dashoffset:0;stroke-opacity:1;paint-order:fill markers stroke" />
    <path
       id="path41118-6"
       d="m -40.18507,293.20386 a 1.375,1.375 0 0 1 -1.375,1.375 1.375,1.375 0 0 1 -1.375,-1.375 1.375,1.375 0 0 1 1.375,-1.375 1.375,1.375 0 0 1 1.375,1.375 z"
       style="display:inline;opacity:1;vector-effect:none;fill:none;fill-opacity:1;fill-rule:evenodd;stroke:#000000;stroke-width:0.02645833;stroke-linecap:round;stroke-linejoin:round;stroke-miterlimit:4;stroke-dasharray:none;stroke-dashoffset:0;stroke-opacity:1;paint-order:fill markers stroke" />
    <path
       id="path41118-2-1"
       d="m -98.185074,293.20386 a 1.375,1.375 0 0 1 -1.375,1.375 1.375,1.375 0 0 1 -1.374996,-1.375 1.375,1.375 0 0 1 1.374996,-1.375 1.375,1.375 0 0 1 1.375,1.375 z"
       style="display:inline;opacity:1;vector-effect:none;fill:none;fill-opacity:1;fill-rule:evenodd;stroke:#000000;stroke-width:0.02645833;stroke-linecap:round;stroke-linejoin:round;stroke-miterlimit:4;stroke-dasharray:none;stroke-dashoffset:0;stroke-opacity:1;paint-order:fill markers stroke" />
  </g>
</svg>
