  0
SECTION
  2
HEADER
  9
$ACADVER
  1
AC1014
  9
$HANDSEED
  5
FFFF
  9
$MEASUREMENT
 70
     1
  0
ENDSEC
  0
SECTION
  2
TABLES
  0
TABLE
  2
VPORT
  5
8
330
0
100
AcDbSymbolTable
 70
     4
  0
VPORT
  5
2E
330
8
100
AcDbSymbolTableRecord
100
AcDbViewportTableRecord
  2
*ACTIVE
 70
     0
 10
0.0
 20
0.0
 11
1.0
 21
1.0
 12
210.0
 22
148.5
 13
0.0
 23
0.0
 14
10.0
 24
10.0
 15
10.0
 25
10.0
 16
0.0
 26
0.0
 36
1.0
 17
0.0
 27
0.0
 37
0.0
 40
341.0
 41
1.24
 42
50.0
 43
0.0
 44
0.0
 50
0.0
 51
0.0
 71
     0
 72
   100
 73
     1
 74
     3
 75
     0
 76
     0
 77
     0
 78
     0
  0
ENDTAB
  0
TABLE
  2
LTYPE
  5
5
330
0
100
AcDbSymbolTable
 70
     1
  0
LTYPE
  5
14
330
5
100
AcDbSymbolTableRecord
100
AcDbLinetypeTableRecord
  2
BYBLOCK
 70
     0
  3

 72
    65
 73
     0
 40
0.0
  0
LTYPE
  5
15
330
5
100
AcDbSymbolTableRecord
100
AcDbLinetypeTableRecord
  2
BYLAYER
 70
     0
  3

 72
    65
 73
     0
 40
0.0
  0
LTYPE
  5
16
330
5
100
AcDbSymbolTableRecord
100
AcDbLinetypeTableRecord
  2
CONTINUOUS
 70
     0
  3
Solid line
 72
    65
 73
     0
 40
0.0
  0
ENDTAB
  0
TABLE
  2
LAYER
  5
2
100
AcDbSymbolTable
 70
3
  0
LAYER
  5
50
100
AcDbSymbolTableRecord
100
AcDbLayerTableRecord
  2
0
 70
0
  6
CONTINUOUS
  0
LAYER
  5
51
100
AcDbSymbolTableRecord
100
AcDbLayerTableRecord
  2
old
 70
0
  6
CONTINUOUS
  0
LAYER
  5
52
100
AcDbSymbolTableRecord
100
AcDbLayerTableRecord
  2
Layer_1
 70
0
  6
CONTINUOUS
  0
ENDTAB
  0
TABLE
  2
STYLE
  5
3
330
0
100
AcDbSymbolTable
 70
     1
  0
STYLE
  5
11
330
3
100
AcDbSymbolTableRecord
100
AcDbTextStyleTableRecord
  2
STANDARD
 70
     0
 40
0.0
 41
1.0
 50
0.0
 71
     0
 42
2.5
  3
txt
  4

  0
ENDTAB
  0
TABLE
  2
VIEW
  5
6
330
0
100
AcDbSymbolTable
 70
     0
  0
ENDTAB
  0
TABLE
  2
UCS
  5
7
330
0
100
AcDbSymbolTable
 70
     0
  0
ENDTAB
  0
TABLE
  2
APPID
  5
9
330
0
100
AcDbSymbolTable
 70
     2
  0
APPID
  5
12
330
9
100
AcDbSymbolTableRecord
100
AcDbRegAppTableRecord
  2
ACAD
 70
     0
  0
ENDTAB
  0
TABLE
  2
DIMSTYLE
  5
A
330
0
100
AcDbSymbolTable
 70
     1
  0
DIMSTYLE
105
27
330
A
100
AcDbSymbolTableRecord
100
AcDbDimStyleTableRecord
  2
ISO-25
 70
     0
  3

  4

  5

  6

  7

 40
1.0
 41
2.5
 42
0.625
 43
3.75
 44
1.25
 45
0.0
 46
0.0
 47
0.0
 48
0.0
140
2.5
141
2.5
142
0.0
143
0.03937007874016
144
1.0
145
0.0
146
1.0
147
0.625
 71
     0
 72
     0
 73
     0
 74
     0
 75
     0
 76
     0
 77
     1
 78
     8
170
     0
171
     3
172
     1
173
     0
174
     0
175
     0
176
     0
177
     0
178
     0
270
     2
271
     2
272
     2
273
     2
274
     3
340
11
275
     0
280
     0
281
     0
282
     0
283
     0
284
     8
285
     0
286
     0
287
     3
288
     0
  0
ENDTAB
  0
TABLE
  2
BLOCK_RECORD
  5
1
330
0
100
AcDbSymbolTable
 70
     1
  0
BLOCK_RECORD
  5
1F
330
1
100
AcDbSymbolTableRecord
100
AcDbBlockTableRecord
  2
*MODEL_SPACE
  0
BLOCK_RECORD
  5
1B
330
1
100
AcDbSymbolTableRecord
100
AcDbBlockTableRecord
  2
*PAPER_SPACE
  0
ENDTAB
  0
ENDSEC
  0
SECTION
  2
BLOCKS
  0
BLOCK
  5
20
330
1F
100
AcDbEntity
  8
0
100
AcDbBlockBegin
  2
*MODEL_SPACE
 70
     0
 10
0.0
 20
0.0
 30
0.0
  3
*MODEL_SPACE
  1

  0
ENDBLK
  5
21
330
1F
100
AcDbEntity
  8
0
100
AcDbBlockEnd
  0
BLOCK
  5
1C
330
1B
100
AcDbEntity
 67
     1
  8
0
100
AcDbBlockBegin
  2
*PAPER_SPACE
  1

  0
ENDBLK
  5
1D
330
1B
100
AcDbEntity
 67
     1
  8
0
100
AcDbBlockEnd
  0
ENDSEC
  0
SECTION
  2
ENTITIES
  0
SPLINE
  5
100
100
AcDbEntity
  8
Layer_1
 62
7
100
AcDbSpline
 70
8
 71
3
 72
8
 73
4
 74
0
 40
0
 40
0
 40
0
 40
0
 40
1
 40
1
 40
1
 40
1
 10
4.875001
 20
52.500000
 30
0.0
 10
4.875001
 20
52.135327
 30
0.0
 10
4.730135
 20
51.785591
 30
0.0
 10
4.472272
 20
51.527728
 30
0.0
  0
SPLINE
  5
101
100
AcDbEntity
  8
Layer_1
 62
7
100
AcDbSpline
 70
8
 71
3
 72
8
 73
4
 74
0
 40
0
 40
0
 40
0
 40
0
 40
1
 40
1
 40
1
 40
1
 10
4.472272
 20
51.527728
 30
0.0
 10
4.214410
 20
51.269866
 30
0.0
 10
3.864673
 20
51.125000
 30
0.0
 10
3.500001
 20
51.125000
 30
0.0
  0
SPLINE
  5
102
100
AcDbEntity
  8
Layer_1
 62
7
100
AcDbSpline
 70
8
 71
3
 72
8
 73
4
 74
0
 40
0
 40
0
 40
0
 40
0
 40
1
 40
1
 40
1
 40
1
 10
3.500001
 20
51.125000
 30
0.0
 10
3.135328
 20
51.125000
 30
0.0
 10
2.785591
 20
51.269866
 30
0.0
 10
2.527729
 20
51.527728
 30
0.0
  0
SPLINE
  5
103
100
AcDbEntity
  8
Layer_1
 62
7
100
AcDbSpline
 70
8
 71
3
 72
8
 73
4
 74
0
 40
0
 40
0
 40
0
 40
0
 40
1
 40
1
 40
1
 40
1
 10
2.527729
 20
51.527728
 30
0.0
 10
2.269866
 20
51.785591
 30
0.0
 10
2.125001
 20
52.135327
 30
0.0
 10
2.125001
 20
52.500000
 30
0.0
  0
SPLINE
  5
104
100
AcDbEntity
  8
Layer_1
 62
7
100
AcDbSpline
 70
8
 71
3
 72
8
 73
4
 74
0
 40
0
 40
0
 40
0
 40
0
 40
1
 40
1
 40
1
 40
1
 10
2.125001
 20
52.500000
 30
0.0
 10
2.125001
 20
52.864673
 30
0.0
 10
2.269866
 20
53.214409
 30
0.0
 10
2.527729
 20
53.472272
 30
0.0
  0
SPLINE
  5
105
100
AcDbEntity
  8
Layer_1
 62
7
100
AcDbSpline
 70
8
 71
3
 72
8
 73
4
 74
0
 40
0
 40
0
 40
0
 40
0
 40
1
 40
1
 40
1
 40
1
 10
2.527729
 20
53.472272
 30
0.0
 10
2.785591
 20
53.730134
 30
0.0
 10
3.135328
 20
53.875000
 30
0.0
 10
3.500001
 20
53.875000
 30
0.0
  0
SPLINE
  5
106
100
AcDbEntity
  8
Layer_1
 62
7
100
AcDbSpline
 70
8
 71
3
 72
8
 73
4
 74
0
 40
0
 40
0
 40
0
 40
0
 40
1
 40
1
 40
1
 40
1
 10
3.500001
 20
53.875000
 30
0.0
 10
3.864673
 20
53.875000
 30
0.0
 10
4.214410
 20
53.730134
 30
0.0
 10
4.472272
 20
53.472272
 30
0.0
  0
SPLINE
  5
107
100
AcDbEntity
  8
Layer_1
 62
7
100
AcDbSpline
 70
8
 71
3
 72
8
 73
4
 74
0
 40
0
 40
0
 40
0
 40
0
 40
1
 40
1
 40
1
 40
1
 10
4.472272
 20
53.472272
 30
0.0
 10
4.730135
 20
53.214409
 30
0.0
 10
4.875001
 20
52.864673
 30
0.0
 10
4.875001
 20
52.500000
 30
0.0
  0
LWPOLYLINE
  5
108
100
AcDbEntity
  8
Layer_1
 62
7
100
AcDbPolyline
 90
1
 70
1
 10
4.875001
 20
52.500000
 30
0.0
  0
SPLINE
  5
109
100
AcDbEntity
  8
Layer_1
 62
7
100
AcDbSpline
 70
8
 71
3
 72
8
 73
4
 74
0
 40
0
 40
0
 40
0
 40
0
 40
1
 40
1
 40
1
 40
1
 10
87.059767
 20
62.680210
 30
0.0
 10
89.582173
 20
62.680210
 30
0.0
 10
91.612846
 20
60.059510
 30
0.0
 10
91.612846
 20
56.804210
 30
0.0
  0
LWPOLYLINE
  5
10a
100
AcDbEntity
  8
Layer_1
 62
7
100
AcDbPolyline
 90
2
 70
0
 10
-1.866888
 20
62.680210
 30
0.0
 10
87.059767
 20
62.680210
 30
0.0
  0
SPLINE
  5
10b
100
AcDbEntity
  8
Layer_1
 62
7
100
AcDbSpline
 70
8
 71
3
 72
8
 73
4
 74
0
 40
0
 40
0
 40
0
 40
0
 40
1
 40
1
 40
1
 40
1
 10
91.612846
 20
-0.399590
 30
0.0
 10
91.612846
 20
-3.654890
 30
0.0
 10
89.582173
 20
-6.275580
 30
0.0
 10
87.059767
 20
-6.275580
 30
0.0
  0
LWPOLYLINE
  5
10c
100
AcDbEntity
  8
Layer_1
 62
7
100
AcDbPolyline
 90
2
 70
0
 10
91.612846
 20
56.804210
 30
0.0
 10
91.612846
 20
-0.399590
 30
0.0
  0
SPLINE
  5
10d
100
AcDbEntity
  8
Layer_1
 62
7
100
AcDbSpline
 70
8
 71
3
 72
8
 73
4
 74
0
 40
0
 40
0
 40
0
 40
0
 40
1
 40
1
 40
1
 40
1
 10
-1.866888
 20
-6.275580
 30
0.0
 10
-4.389294
 20
-6.275580
 30
0.0
 10
-6.419968
 20
-3.654890
 30
0.0
 10
-6.419968
 20
-0.399590
 30
0.0
  0
LWPOLYLINE
  5
10e
100
AcDbEntity
  8
Layer_1
 62
7
100
AcDbPolyline
 90
2
 70
0
 10
87.059767
 20
-6.275580
 30
0.0
 10
-1.866888
 20
-6.275580
 30
0.0
  0
SPLINE
  5
10f
100
AcDbEntity
  8
Layer_1
 62
7
100
AcDbSpline
 70
8
 71
3
 72
8
 73
4
 74
0
 40
0
 40
0
 40
0
 40
0
 40
1
 40
1
 40
1
 40
1
 10
-6.419968
 20
56.804210
 30
0.0
 10
-6.419968
 20
60.059510
 30
0.0
 10
-4.389294
 20
62.680210
 30
0.0
 10
-1.866888
 20
62.680210
 30
0.0
  0
LWPOLYLINE
  5
110
100
AcDbEntity
  8
Layer_1
 62
7
100
AcDbPolyline
 90
2
 70
0
 10
-6.419968
 20
-0.399590
 30
0.0
 10
-6.419968
 20
56.804210
 30
0.0
  0
SPLINE
  5
111
100
AcDbEntity
  8
Layer_1
 62
7
100
AcDbSpline
 70
8
 71
3
 72
8
 73
4
 74
0
 40
0
 40
0
 40
0
 40
0
 40
1
 40
1
 40
1
 40
1
 10
62.875000
 20
52.500000
 30
0.0
 10
62.875000
 20
52.135327
 30
0.0
 10
62.730134
 20
51.785591
 30
0.0
 10
62.472272
 20
51.527728
 30
0.0
  0
SPLINE
  5
112
100
AcDbEntity
  8
Layer_1
 62
7
100
AcDbSpline
 70
8
 71
3
 72
8
 73
4
 74
0
 40
0
 40
0
 40
0
 40
0
 40
1
 40
1
 40
1
 40
1
 10
62.472272
 20
51.527728
 30
0.0
 10
62.214409
 20
51.269866
 30
0.0
 10
61.864673
 20
51.125000
 30
0.0
 10
61.500000
 20
51.125000
 30
0.0
  0
SPLINE
  5
113
100
AcDbEntity
  8
Layer_1
 62
7
100
AcDbSpline
 70
8
 71
3
 72
8
 73
4
 74
0
 40
0
 40
0
 40
0
 40
0
 40
1
 40
1
 40
1
 40
1
 10
61.500000
 20
51.125000
 30
0.0
 10
61.135327
 20
51.125000
 30
0.0
 10
60.785591
 20
51.269866
 30
0.0
 10
60.527728
 20
51.527728
 30
0.0
  0
SPLINE
  5
114
100
AcDbEntity
  8
Layer_1
 62
7
100
AcDbSpline
 70
8
 71
3
 72
8
 73
4
 74
0
 40
0
 40
0
 40
0
 40
0
 40
1
 40
1
 40
1
 40
1
 10
60.527728
 20
51.527728
 30
0.0
 10
60.269866
 20
51.785591
 30
0.0
 10
60.125000
 20
52.135327
 30
0.0
 10
60.125000
 20
52.500000
 30
0.0
  0
SPLINE
  5
115
100
AcDbEntity
  8
Layer_1
 62
7
100
AcDbSpline
 70
8
 71
3
 72
8
 73
4
 74
0
 40
0
 40
0
 40
0
 40
0
 40
1
 40
1
 40
1
 40
1
 10
60.125000
 20
52.500000
 30
0.0
 10
60.125000
 20
52.864673
 30
0.0
 10
60.269866
 20
53.214409
 30
0.0
 10
60.527728
 20
53.472272
 30
0.0
  0
SPLINE
  5
116
100
AcDbEntity
  8
Layer_1
 62
7
100
AcDbSpline
 70
8
 71
3
 72
8
 73
4
 74
0
 40
0
 40
0
 40
0
 40
0
 40
1
 40
1
 40
1
 40
1
 10
60.527728
 20
53.472272
 30
0.0
 10
60.785591
 20
53.730134
 30
0.0
 10
61.135327
 20
53.875000
 30
0.0
 10
61.500000
 20
53.875000
 30
0.0
  0
SPLINE
  5
117
100
AcDbEntity
  8
Layer_1
 62
7
100
AcDbSpline
 70
8
 71
3
 72
8
 73
4
 74
0
 40
0
 40
0
 40
0
 40
0
 40
1
 40
1
 40
1
 40
1
 10
61.500000
 20
53.875000
 30
0.0
 10
61.864673
 20
53.875000
 30
0.0
 10
62.214409
 20
53.730134
 30
0.0
 10
62.472272
 20
53.472272
 30
0.0
  0
SPLINE
  5
118
100
AcDbEntity
  8
Layer_1
 62
7
100
AcDbSpline
 70
8
 71
3
 72
8
 73
4
 74
0
 40
0
 40
0
 40
0
 40
0
 40
1
 40
1
 40
1
 40
1
 10
62.472272
 20
53.472272
 30
0.0
 10
62.730134
 20
53.214409
 30
0.0
 10
62.875000
 20
52.864673
 30
0.0
 10
62.875000
 20
52.500000
 30
0.0
  0
LWPOLYLINE
  5
119
100
AcDbEntity
  8
Layer_1
 62
7
100
AcDbPolyline
 90
1
 70
1
 10
-1.866888
 20
62.680210
 30
0.0
  0
SPLINE
  5
11a
100
AcDbEntity
  8
Layer_1
 62
7
100
AcDbSpline
 70
8
 71
3
 72
8
 73
4
 74
0
 40
0
 40
0
 40
0
 40
0
 40
1
 40
1
 40
1
 40
1
 10
62.875000
 20
3.500000
 30
0.0
 10
62.875000
 20
3.135327
 30
0.0
 10
62.730134
 20
2.785591
 30
0.0
 10
62.472272
 20
2.527728
 30
0.0
  0
SPLINE
  5
11b
100
AcDbEntity
  8
Layer_1
 62
7
100
AcDbSpline
 70
8
 71
3
 72
8
 73
4
 74
0
 40
0
 40
0
 40
0
 40
0
 40
1
 40
1
 40
1
 40
1
 10
62.472272
 20
2.527728
 30
0.0
 10
62.214409
 20
2.269866
 30
0.0
 10
61.864673
 20
2.125000
 30
0.0
 10
61.500000
 20
2.125000
 30
0.0
  0
SPLINE
  5
11c
100
AcDbEntity
  8
Layer_1
 62
7
100
AcDbSpline
 70
8
 71
3
 72
8
 73
4
 74
0
 40
0
 40
0
 40
0
 40
0
 40
1
 40
1
 40
1
 40
1
 10
61.500000
 20
2.125000
 30
0.0
 10
61.135327
 20
2.125000
 30
0.0
 10
60.785591
 20
2.269866
 30
0.0
 10
60.527728
 20
2.527728
 30
0.0
  0
SPLINE
  5
11d
100
AcDbEntity
  8
Layer_1
 62
7
100
AcDbSpline
 70
8
 71
3
 72
8
 73
4
 74
0
 40
0
 40
0
 40
0
 40
0
 40
1
 40
1
 40
1
 40
1
 10
60.527728
 20
2.527728
 30
0.0
 10
60.269866
 20
2.785591
 30
0.0
 10
60.125000
 20
3.135327
 30
0.0
 10
60.125000
 20
3.500000
 30
0.0
  0
SPLINE
  5
11e
100
AcDbEntity
  8
Layer_1
 62
7
100
AcDbSpline
 70
8
 71
3
 72
8
 73
4
 74
0
 40
0
 40
0
 40
0
 40
0
 40
1
 40
1
 40
1
 40
1
 10
60.125000
 20
3.500000
 30
0.0
 10
60.125000
 20
3.864673
 30
0.0
 10
60.269866
 20
4.214409
 30
0.0
 10
60.527728
 20
4.472272
 30
0.0
  0
SPLINE
  5
11f
100
AcDbEntity
  8
Layer_1
 62
7
100
AcDbSpline
 70
8
 71
3
 72
8
 73
4
 74
0
 40
0
 40
0
 40
0
 40
0
 40
1
 40
1
 40
1
 40
1
 10
60.527728
 20
4.472272
 30
0.0
 10
60.785591
 20
4.730134
 30
0.0
 10
61.135327
 20
4.875000
 30
0.0
 10
61.500000
 20
4.875000
 30
0.0
  0
SPLINE
  5
120
100
AcDbEntity
  8
Layer_1
 62
7
100
AcDbSpline
 70
8
 71
3
 72
8
 73
4
 74
0
 40
0
 40
0
 40
0
 40
0
 40
1
 40
1
 40
1
 40
1
 10
61.500000
 20
4.875000
 30
0.0
 10
61.864673
 20
4.875000
 30
0.0
 10
62.214409
 20
4.730134
 30
0.0
 10
62.472272
 20
4.472272
 30
0.0
  0
SPLINE
  5
121
100
AcDbEntity
  8
Layer_1
 62
7
100
AcDbSpline
 70
8
 71
3
 72
8
 73
4
 74
0
 40
0
 40
0
 40
0
 40
0
 40
1
 40
1
 40
1
 40
1
 10
62.472272
 20
4.472272
 30
0.0
 10
62.730134
 20
4.214409
 30
0.0
 10
62.875000
 20
3.864673
 30
0.0
 10
62.875000
 20
3.500000
 30
0.0
  0
LWPOLYLINE
  5
122
100
AcDbEntity
  8
Layer_1
 62
7
100
AcDbPolyline
 90
1
 70
1
 10
62.875000
 20
52.500000
 30
0.0
  0
SPLINE
  5
123
100
AcDbEntity
  8
Layer_1
 62
7
100
AcDbSpline
 70
8
 71
3
 72
8
 73
4
 74
0
 40
0
 40
0
 40
0
 40
0
 40
1
 40
1
 40
1
 40
1
 10
4.875001
 20
3.500000
 30
0.0
 10
4.875001
 20
3.135327
 30
0.0
 10
4.730135
 20
2.785591
 30
0.0
 10
4.472272
 20
2.527728
 30
0.0
  0
SPLINE
  5
124
100
AcDbEntity
  8
Layer_1
 62
7
100
AcDbSpline
 70
8
 71
3
 72
8
 73
4
 74
0
 40
0
 40
0
 40
0
 40
0
 40
1
 40
1
 40
1
 40
1
 10
4.472272
 20
2.527728
 30
0.0
 10
4.214410
 20
2.269866
 30
0.0
 10
3.864673
 20
2.125000
 30
0.0
 10
3.500001
 20
2.125000
 30
0.0
  0
SPLINE
  5
125
100
AcDbEntity
  8
Layer_1
 62
7
100
AcDbSpline
 70
8
 71
3
 72
8
 73
4
 74
0
 40
0
 40
0
 40
0
 40
0
 40
1
 40
1
 40
1
 40
1
 10
3.500001
 20
2.125000
 30
0.0
 10
3.135328
 20
2.125000
 30
0.0
 10
2.785591
 20
2.269866
 30
0.0
 10
2.527729
 20
2.527728
 30
0.0
  0
SPLINE
  5
126
100
AcDbEntity
  8
Layer_1
 62
7
100
AcDbSpline
 70
8
 71
3
 72
8
 73
4
 74
0
 40
0
 40
0
 40
0
 40
0
 40
1
 40
1
 40
1
 40
1
 10
2.527729
 20
2.527728
 30
0.0
 10
2.269866
 20
2.785591
 30
0.0
 10
2.125001
 20
3.135327
 30
0.0
 10
2.125001
 20
3.500000
 30
0.0
  0
SPLINE
  5
127
100
AcDbEntity
  8
Layer_1
 62
7
100
AcDbSpline
 70
8
 71
3
 72
8
 73
4
 74
0
 40
0
 40
0
 40
0
 40
0
 40
1
 40
1
 40
1
 40
1
 10
2.125001
 20
3.500000
 30
0.0
 10
2.125001
 20
3.864673
 30
0.0
 10
2.269866
 20
4.214409
 30
0.0
 10
2.527729
 20
4.472272
 30
0.0
  0
SPLINE
  5
128
100
AcDbEntity
  8
Layer_1
 62
7
100
AcDbSpline
 70
8
 71
3
 72
8
 73
4
 74
0
 40
0
 40
0
 40
0
 40
0
 40
1
 40
1
 40
1
 40
1
 10
2.527729
 20
4.472272
 30
0.0
 10
2.785591
 20
4.730134
 30
0.0
 10
3.135328
 20
4.875000
 30
0.0
 10
3.500001
 20
4.875000
 30
0.0
  0
SPLINE
  5
129
100
AcDbEntity
  8
Layer_1
 62
7
100
AcDbSpline
 70
8
 71
3
 72
8
 73
4
 74
0
 40
0
 40
0
 40
0
 40
0
 40
1
 40
1
 40
1
 40
1
 10
3.500001
 20
4.875000
 30
0.0
 10
3.864673
 20
4.875000
 30
0.0
 10
4.214410
 20
4.730134
 30
0.0
 10
4.472272
 20
4.472272
 30
0.0
  0
SPLINE
  5
12a
100
AcDbEntity
  8
Layer_1
 62
7
100
AcDbSpline
 70
8
 71
3
 72
8
 73
4
 74
0
 40
0
 40
0
 40
0
 40
0
 40
1
 40
1
 40
1
 40
1
 10
4.472272
 20
4.472272
 30
0.0
 10
4.730135
 20
4.214409
 30
0.0
 10
4.875001
 20
3.864673
 30
0.0
 10
4.875001
 20
3.500000
 30
0.0
  0
LWPOLYLINE
  5
12b
100
AcDbEntity
  8
Layer_1
 62
7
100
AcDbPolyline
 90
1
 70
1
 10
62.875000
 20
3.500000
 30
0.0
  0
SPLINE
  5
12c
100
AcDbEntity
  8
Layer_1
 62
7
100
AcDbSpline
 70
8
 71
3
 72
8
 73
4
 74
0
 40
0
 40
0
 40
0
 40
0
 40
1
 40
1
 40
1
 40
1
 10
181.438930
 20
52.510420
 30
0.0
 10
181.438930
 20
52.145747
 30
0.0
 10
181.583796
 20
51.796011
 30
0.0
 10
181.841658
 20
51.538148
 30
0.0
  0
SPLINE
  5
12d
100
AcDbEntity
  8
Layer_1
 62
7
100
AcDbSpline
 70
8
 71
3
 72
8
 73
4
 74
0
 40
0
 40
0
 40
0
 40
0
 40
1
 40
1
 40
1
 40
1
 10
181.841658
 20
51.538148
 30
0.0
 10
182.099521
 20
51.280286
 30
0.0
 10
182.449257
 20
51.135420
 30
0.0
 10
182.813930
 20
51.135420
 30
0.0
  0
SPLINE
  5
12e
100
AcDbEntity
  8
Layer_1
 62
7
100
AcDbSpline
 70
8
 71
3
 72
8
 73
4
 74
0
 40
0
 40
0
 40
0
 40
0
 40
1
 40
1
 40
1
 40
1
 10
182.813930
 20
51.135420
 30
0.0
 10
183.178603
 20
51.135420
 30
0.0
 10
183.528339
 20
51.280286
 30
0.0
 10
183.786202
 20
51.538148
 30
0.0
  0
SPLINE
  5
12f
100
AcDbEntity
  8
Layer_1
 62
7
100
AcDbSpline
 70
8
 71
3
 72
8
 73
4
 74
0
 40
0
 40
0
 40
0
 40
0
 40
1
 40
1
 40
1
 40
1
 10
183.786202
 20
51.538148
 30
0.0
 10
184.044064
 20
51.796011
 30
0.0
 10
184.188930
 20
52.145747
 30
0.0
 10
184.188930
 20
52.510420
 30
0.0
  0
SPLINE
  5
130
100
AcDbEntity
  8
Layer_1
 62
7
100
AcDbSpline
 70
8
 71
3
 72
8
 73
4
 74
0
 40
0
 40
0
 40
0
 40
0
 40
1
 40
1
 40
1
 40
1
 10
184.188930
 20
52.510420
 30
0.0
 10
184.188930
 20
52.875093
 30
0.0
 10
184.044064
 20
53.224829
 30
0.0
 10
183.786202
 20
53.482692
 30
0.0
  0
SPLINE
  5
131
100
AcDbEntity
  8
Layer_1
 62
7
100
AcDbSpline
 70
8
 71
3
 72
8
 73
4
 74
0
 40
0
 40
0
 40
0
 40
0
 40
1
 40
1
 40
1
 40
1
 10
183.786202
 20
53.482692
 30
0.0
 10
183.528339
 20
53.740554
 30
0.0
 10
183.178603
 20
53.885420
 30
0.0
 10
182.813930
 20
53.885420
 30
0.0
  0
SPLINE
  5
132
100
AcDbEntity
  8
Layer_1
 62
7
100
AcDbSpline
 70
8
 71
3
 72
8
 73
4
 74
0
 40
0
 40
0
 40
0
 40
0
 40
1
 40
1
 40
1
 40
1
 10
182.813930
 20
53.885420
 30
0.0
 10
182.449257
 20
53.885420
 30
0.0
 10
182.099521
 20
53.740554
 30
0.0
 10
181.841658
 20
53.482692
 30
0.0
  0
SPLINE
  5
133
100
AcDbEntity
  8
Layer_1
 62
7
100
AcDbSpline
 70
8
 71
3
 72
8
 73
4
 74
0
 40
0
 40
0
 40
0
 40
0
 40
1
 40
1
 40
1
 40
1
 10
181.841658
 20
53.482692
 30
0.0
 10
181.583796
 20
53.224829
 30
0.0
 10
181.438930
 20
52.875093
 30
0.0
 10
181.438930
 20
52.510420
 30
0.0
  0
LWPOLYLINE
  5
134
100
AcDbEntity
  8
Layer_1
 62
7
100
AcDbPolyline
 90
1
 70
1
 10
4.875001
 20
3.500000
 30
0.0
  0
LWPOLYLINE
  5
135
100
AcDbEntity
  8
Layer_1
 62
7
100
AcDbPolyline
 90
1
 70
1
 10
181.438930
 20
52.510420
 30
0.0
  0
SPLINE
  5
136
100
AcDbEntity
  8
Layer_1
 62
7
100
AcDbSpline
 70
8
 71
3
 72
8
 73
4
 74
0
 40
0
 40
0
 40
0
 40
0
 40
1
 40
1
 40
1
 40
1
 10
99.254152
 20
62.690610
 30
0.0
 10
96.731746
 20
62.690610
 30
0.0
 10
94.701073
 20
60.069920
 30
0.0
 10
94.701073
 20
56.814620
 30
0.0
  0
LWPOLYLINE
  5
137
100
AcDbEntity
  8
Layer_1
 62
7
100
AcDbPolyline
 90
2
 70
0
 10
188.180810
 20
62.690610
 30
0.0
 10
99.254152
 20
62.690610
 30
0.0
  0
SPLINE
  5
138
100
AcDbEntity
  8
Layer_1
 62
7
100
AcDbSpline
 70
8
 71
3
 72
8
 73
4
 74
0
 40
0
 40
0
 40
0
 40
0
 40
1
 40
1
 40
1
 40
1
 10
94.701073
 20
-0.389180
 30
0.0
 10
94.701073
 20
-3.644480
 30
0.0
 10
96.731746
 20
-6.265170
 30
0.0
 10
99.254152
 20
-6.265170
 30
0.0
  0
LWPOLYLINE
  5
139
100
AcDbEntity
  8
Layer_1
 62
7
100
AcDbPolyline
 90
2
 70
0
 10
94.701073
 20
56.814620
 30
0.0
 10
94.701073
 20
-0.389180
 30
0.0
  0
SPLINE
  5
13a
100
AcDbEntity
  8
Layer_1
 62
7
100
AcDbSpline
 70
8
 71
3
 72
8
 73
4
 74
0
 40
0
 40
0
 40
0
 40
0
 40
1
 40
1
 40
1
 40
1
 10
188.180810
 20
-6.265170
 30
0.0
 10
190.703210
 20
-6.265170
 30
0.0
 10
192.733890
 20
-3.644480
 30
0.0
 10
192.733890
 20
-0.389180
 30
0.0
  0
LWPOLYLINE
  5
13b
100
AcDbEntity
  8
Layer_1
 62
7
100
AcDbPolyline
 90
2
 70
0
 10
99.254152
 20
-6.265170
 30
0.0
 10
188.180810
 20
-6.265170
 30
0.0
  0
SPLINE
  5
13c
100
AcDbEntity
  8
Layer_1
 62
7
100
AcDbSpline
 70
8
 71
3
 72
8
 73
4
 74
0
 40
0
 40
0
 40
0
 40
0
 40
1
 40
1
 40
1
 40
1
 10
192.733890
 20
56.814620
 30
0.0
 10
192.733890
 20
60.069920
 30
0.0
 10
190.703210
 20
62.690610
 30
0.0
 10
188.180810
 20
62.690610
 30
0.0
  0
LWPOLYLINE
  5
13d
100
AcDbEntity
  8
Layer_1
 62
7
100
AcDbPolyline
 90
2
 70
0
 10
192.733890
 20
-0.389180
 30
0.0
 10
192.733890
 20
56.814620
 30
0.0
  0
SPLINE
  5
13e
100
AcDbEntity
  8
Layer_1
 62
7
100
AcDbSpline
 70
8
 71
3
 72
8
 73
4
 74
0
 40
0
 40
0
 40
0
 40
0
 40
1
 40
1
 40
1
 40
1
 10
123.438870
 20
52.510420
 30
0.0
 10
123.438870
 20
52.145747
 30
0.0
 10
123.583736
 20
51.796011
 30
0.0
 10
123.841598
 20
51.538148
 30
0.0
  0
SPLINE
  5
13f
100
AcDbEntity
  8
Layer_1
 62
7
100
AcDbSpline
 70
8
 71
3
 72
8
 73
4
 74
0
 40
0
 40
0
 40
0
 40
0
 40
1
 40
1
 40
1
 40
1
 10
123.841598
 20
51.538148
 30
0.0
 10
124.099461
 20
51.280286
 30
0.0
 10
124.449197
 20
51.135420
 30
0.0
 10
124.813870
 20
51.135420
 30
0.0
  0
SPLINE
  5
140
100
AcDbEntity
  8
Layer_1
 62
7
100
AcDbSpline
 70
8
 71
3
 72
8
 73
4
 74
0
 40
0
 40
0
 40
0
 40
0
 40
1
 40
1
 40
1
 40
1
 10
124.813870
 20
51.135420
 30
0.0
 10
125.178543
 20
51.135420
 30
0.0
 10
125.528279
 20
51.280286
 30
0.0
 10
125.786142
 20
51.538148
 30
0.0
  0
SPLINE
  5
141
100
AcDbEntity
  8
Layer_1
 62
7
100
AcDbSpline
 70
8
 71
3
 72
8
 73
4
 74
0
 40
0
 40
0
 40
0
 40
0
 40
1
 40
1
 40
1
 40
1
 10
125.786142
 20
51.538148
 30
0.0
 10
126.044004
 20
51.796011
 30
0.0
 10
126.188870
 20
52.145747
 30
0.0
 10
126.188870
 20
52.510420
 30
0.0
  0
SPLINE
  5
142
100
AcDbEntity
  8
Layer_1
 62
7
100
AcDbSpline
 70
8
 71
3
 72
8
 73
4
 74
0
 40
0
 40
0
 40
0
 40
0
 40
1
 40
1
 40
1
 40
1
 10
126.188870
 20
52.510420
 30
0.0
 10
126.188870
 20
52.875093
 30
0.0
 10
126.044004
 20
53.224829
 30
0.0
 10
125.786142
 20
53.482692
 30
0.0
  0
SPLINE
  5
143
100
AcDbEntity
  8
Layer_1
 62
7
100
AcDbSpline
 70
8
 71
3
 72
8
 73
4
 74
0
 40
0
 40
0
 40
0
 40
0
 40
1
 40
1
 40
1
 40
1
 10
125.786142
 20
53.482692
 30
0.0
 10
125.528279
 20
53.740554
 30
0.0
 10
125.178543
 20
53.885420
 30
0.0
 10
124.813870
 20
53.885420
 30
0.0
  0
SPLINE
  5
144
100
AcDbEntity
  8
Layer_1
 62
7
100
AcDbSpline
 70
8
 71
3
 72
8
 73
4
 74
0
 40
0
 40
0
 40
0
 40
0
 40
1
 40
1
 40
1
 40
1
 10
124.813870
 20
53.885420
 30
0.0
 10
124.449197
 20
53.885420
 30
0.0
 10
124.099461
 20
53.740554
 30
0.0
 10
123.841598
 20
53.482692
 30
0.0
  0
SPLINE
  5
145
100
AcDbEntity
  8
Layer_1
 62
7
100
AcDbSpline
 70
8
 71
3
 72
8
 73
4
 74
0
 40
0
 40
0
 40
0
 40
0
 40
1
 40
1
 40
1
 40
1
 10
123.841598
 20
53.482692
 30
0.0
 10
123.583736
 20
53.224829
 30
0.0
 10
123.438870
 20
52.875093
 30
0.0
 10
123.438870
 20
52.510420
 30
0.0
  0
LWPOLYLINE
  5
146
100
AcDbEntity
  8
Layer_1
 62
7
100
AcDbPolyline
 90
1
 70
1
 10
188.180810
 20
62.690610
 30
0.0
  0
SPLINE
  5
147
100
AcDbEntity
  8
Layer_1
 62
7
100
AcDbSpline
 70
8
 71
3
 72
8
 73
4
 74
0
 40
0
 40
0
 40
0
 40
0
 40
1
 40
1
 40
1
 40
1
 10
123.438870
 20
3.510410
 30
0.0
 10
123.438870
 20
3.145737
 30
0.0
 10
123.583736
 20
2.796001
 30
0.0
 10
123.841598
 20
2.538138
 30
0.0
  0
SPLINE
  5
148
100
AcDbEntity
  8
Layer_1
 62
7
100
AcDbSpline
 70
8
 71
3
 72
8
 73
4
 74
0
 40
0
 40
0
 40
0
 40
0
 40
1
 40
1
 40
1
 40
1
 10
123.841598
 20
2.538138
 30
0.0
 10
124.099461
 20
2.280276
 30
0.0
 10
124.449197
 20
2.135410
 30
0.0
 10
124.813870
 20
2.135410
 30
0.0
  0
SPLINE
  5
149
100
AcDbEntity
  8
Layer_1
 62
7
100
AcDbSpline
 70
8
 71
3
 72
8
 73
4
 74
0
 40
0
 40
0
 40
0
 40
0
 40
1
 40
1
 40
1
 40
1
 10
124.813870
 20
2.135410
 30
0.0
 10
125.178543
 20
2.135410
 30
0.0
 10
125.528279
 20
2.280276
 30
0.0
 10
125.786142
 20
2.538138
 30
0.0
  0
SPLINE
  5
14a
100
AcDbEntity
  8
Layer_1
 62
7
100
AcDbSpline
 70
8
 71
3
 72
8
 73
4
 74
0
 40
0
 40
0
 40
0
 40
0
 40
1
 40
1
 40
1
 40
1
 10
125.786142
 20
2.538138
 30
0.0
 10
126.044004
 20
2.796001
 30
0.0
 10
126.188870
 20
3.145737
 30
0.0
 10
126.188870
 20
3.510410
 30
0.0
  0
SPLINE
  5
14b
100
AcDbEntity
  8
Layer_1
 62
7
100
AcDbSpline
 70
8
 71
3
 72
8
 73
4
 74
0
 40
0
 40
0
 40
0
 40
0
 40
1
 40
1
 40
1
 40
1
 10
126.188870
 20
3.510410
 30
0.0
 10
126.188870
 20
3.875083
 30
0.0
 10
126.044004
 20
4.224819
 30
0.0
 10
125.786142
 20
4.482682
 30
0.0
  0
SPLINE
  5
14c
100
AcDbEntity
  8
Layer_1
 62
7
100
AcDbSpline
 70
8
 71
3
 72
8
 73
4
 74
0
 40
0
 40
0
 40
0
 40
0
 40
1
 40
1
 40
1
 40
1
 10
125.786142
 20
4.482682
 30
0.0
 10
125.528279
 20
4.740544
 30
0.0
 10
125.178543
 20
4.885410
 30
0.0
 10
124.813870
 20
4.885410
 30
0.0
  0
SPLINE
  5
14d
100
AcDbEntity
  8
Layer_1
 62
7
100
AcDbSpline
 70
8
 71
3
 72
8
 73
4
 74
0
 40
0
 40
0
 40
0
 40
0
 40
1
 40
1
 40
1
 40
1
 10
124.813870
 20
4.885410
 30
0.0
 10
124.449197
 20
4.885410
 30
0.0
 10
124.099461
 20
4.740544
 30
0.0
 10
123.841598
 20
4.482682
 30
0.0
  0
SPLINE
  5
14e
100
AcDbEntity
  8
Layer_1
 62
7
100
AcDbSpline
 70
8
 71
3
 72
8
 73
4
 74
0
 40
0
 40
0
 40
0
 40
0
 40
1
 40
1
 40
1
 40
1
 10
123.841598
 20
4.482682
 30
0.0
 10
123.583736
 20
4.224819
 30
0.0
 10
123.438870
 20
3.875083
 30
0.0
 10
123.438870
 20
3.510410
 30
0.0
  0
LWPOLYLINE
  5
14f
100
AcDbEntity
  8
Layer_1
 62
7
100
AcDbPolyline
 90
1
 70
1
 10
123.438870
 20
52.510420
 30
0.0
  0
SPLINE
  5
150
100
AcDbEntity
  8
Layer_1
 62
7
100
AcDbSpline
 70
8
 71
3
 72
8
 73
4
 74
0
 40
0
 40
0
 40
0
 40
0
 40
1
 40
1
 40
1
 40
1
 10
181.438930
 20
3.510410
 30
0.0
 10
181.438930
 20
3.145737
 30
0.0
 10
181.583796
 20
2.796001
 30
0.0
 10
181.841658
 20
2.538138
 30
0.0
  0
SPLINE
  5
151
100
AcDbEntity
  8
Layer_1
 62
7
100
AcDbSpline
 70
8
 71
3
 72
8
 73
4
 74
0
 40
0
 40
0
 40
0
 40
0
 40
1
 40
1
 40
1
 40
1
 10
181.841658
 20
2.538138
 30
0.0
 10
182.099521
 20
2.280276
 30
0.0
 10
182.449257
 20
2.135410
 30
0.0
 10
182.813930
 20
2.135410
 30
0.0
  0
SPLINE
  5
152
100
AcDbEntity
  8
Layer_1
 62
7
100
AcDbSpline
 70
8
 71
3
 72
8
 73
4
 74
0
 40
0
 40
0
 40
0
 40
0
 40
1
 40
1
 40
1
 40
1
 10
182.813930
 20
2.135410
 30
0.0
 10
183.178603
 20
2.135410
 30
0.0
 10
183.528339
 20
2.280276
 30
0.0
 10
183.786202
 20
2.538138
 30
0.0
  0
SPLINE
  5
153
100
AcDbEntity
  8
Layer_1
 62
7
100
AcDbSpline
 70
8
 71
3
 72
8
 73
4
 74
0
 40
0
 40
0
 40
0
 40
0
 40
1
 40
1
 40
1
 40
1
 10
183.786202
 20
2.538138
 30
0.0
 10
184.044064
 20
2.796001
 30
0.0
 10
184.188930
 20
3.145737
 30
0.0
 10
184.188930
 20
3.510410
 30
0.0
  0
SPLINE
  5
154
100
AcDbEntity
  8
Layer_1
 62
7
100
AcDbSpline
 70
8
 71
3
 72
8
 73
4
 74
0
 40
0
 40
0
 40
0
 40
0
 40
1
 40
1
 40
1
 40
1
 10
184.188930
 20
3.510410
 30
0.0
 10
184.188930
 20
3.875083
 30
0.0
 10
184.044064
 20
4.224819
 30
0.0
 10
183.786202
 20
4.482682
 30
0.0
  0
SPLINE
  5
155
100
AcDbEntity
  8
Layer_1
 62
7
100
AcDbSpline
 70
8
 71
3
 72
8
 73
4
 74
0
 40
0
 40
0
 40
0
 40
0
 40
1
 40
1
 40
1
 40
1
 10
183.786202
 20
4.482682
 30
0.0
 10
183.528339
 20
4.740544
 30
0.0
 10
183.178603
 20
4.885410
 30
0.0
 10
182.813930
 20
4.885410
 30
0.0
  0
SPLINE
  5
156
100
AcDbEntity
  8
Layer_1
 62
7
100
AcDbSpline
 70
8
 71
3
 72
8
 73
4
 74
0
 40
0
 40
0
 40
0
 40
0
 40
1
 40
1
 40
1
 40
1
 10
182.813930
 20
4.885410
 30
0.0
 10
182.449257
 20
4.885410
 30
0.0
 10
182.099521
 20
4.740544
 30
0.0
 10
181.841658
 20
4.482682
 30
0.0
  0
SPLINE
  5
157
100
AcDbEntity
  8
Layer_1
 62
7
100
AcDbSpline
 70
8
 71
3
 72
8
 73
4
 74
0
 40
0
 40
0
 40
0
 40
0
 40
1
 40
1
 40
1
 40
1
 10
181.841658
 20
4.482682
 30
0.0
 10
181.583796
 20
4.224819
 30
0.0
 10
181.438930
 20
3.875083
 30
0.0
 10
181.438930
 20
3.510410
 30
0.0
  0
LWPOLYLINE
  5
158
100
AcDbEntity
  8
Layer_1
 62
7
100
AcDbPolyline
 90
1
 70
1
 10
123.438870
 20
3.510410
 30
0.0
  0
LWPOLYLINE
  5
159
100
AcDbEntity
  8
Layer_1
 62
7
100
AcDbPolyline
 90
1
 70
1
 10
181.438930
 20
3.510410
 30
0.0
  0
SPLINE
  5
15a
100
AcDbEntity
  8
Layer_1
 62
7
100
AcDbSpline
 70
8
 71
3
 72
8
 73
4
 74
0
 40
0
 40
0
 40
0
 40
0
 40
1
 40
1
 40
1
 40
1
 10
-98.185074
 20
52.796140
 30
0.0
 10
-98.185074
 20
52.431467
 30
0.0
 10
-98.329940
 20
52.081731
 30
0.0
 10
-98.587802
 20
51.823868
 30
0.0
  0
SPLINE
  5
15b
100
AcDbEntity
  8
Layer_1
 62
7
100
AcDbSpline
 70
8
 71
3
 72
8
 73
4
 74
0
 40
0
 40
0
 40
0
 40
0
 40
1
 40
1
 40
1
 40
1
 10
-98.587802
 20
51.823868
 30
0.0
 10
-98.845665
 20
51.566006
 30
0.0
 10
-99.195401
 20
51.421140
 30
0.0
 10
-99.560074
 20
51.421140
 30
0.0
  0
SPLINE
  5
15c
100
AcDbEntity
  8
Layer_1
 62
7
100
AcDbSpline
 70
8
 71
3
 72
8
 73
4
 74
0
 40
0
 40
0
 40
0
 40
0
 40
1
 40
1
 40
1
 40
1
 10
-99.560074
 20
51.421140
 30
0.0
 10
-100.319464
 20
51.421142
 30
0.0
 10
-100.935070
 20
52.036750
 30
0.0
 10
-100.935070
 20
52.796140
 30
0.0
  0
SPLINE
  5
15d
100
AcDbEntity
  8
Layer_1
 62
7
100
AcDbSpline
 70
8
 71
3
 72
8
 73
4
 74
0
 40
0
 40
0
 40
0
 40
0
 40
1
 40
1
 40
1
 40
1
 10
-100.935070
 20
52.796140
 30
0.0
 10
-100.935070
 20
53.555530
 30
0.0
 10
-100.319464
 20
54.171138
 30
0.0
 10
-99.560074
 20
54.171140
 30
0.0
  0
SPLINE
  5
15e
100
AcDbEntity
  8
Layer_1
 62
7
100
AcDbSpline
 70
8
 71
3
 72
8
 73
4
 74
0
 40
0
 40
0
 40
0
 40
0
 40
1
 40
1
 40
1
 40
1
 10
-99.560074
 20
54.171140
 30
0.0
 10
-99.195401
 20
54.171140
 30
0.0
 10
-98.845665
 20
54.026274
 30
0.0
 10
-98.587802
 20
53.768412
 30
0.0
  0
SPLINE
  5
15f
100
AcDbEntity
  8
Layer_1
 62
7
100
AcDbSpline
 70
8
 71
3
 72
8
 73
4
 74
0
 40
0
 40
0
 40
0
 40
0
 40
1
 40
1
 40
1
 40
1
 10
-98.587802
 20
53.768412
 30
0.0
 10
-98.329940
 20
53.510549
 30
0.0
 10
-98.185074
 20
53.160813
 30
0.0
 10
-98.185074
 20
52.796140
 30
0.0
  0
LWPOLYLINE
  5
160
100
AcDbEntity
  8
Layer_1
 62
7
100
AcDbPolyline
 90
4
 70
1
 10
128.355480
 20
6.488770
 30
0.0
 10
179.303180
 20
6.488770
 30
0.0
 10
179.303180
 20
0.511230
 30
0.0
 10
128.355480
 20
0.511230
 30
0.0
  0
LWPOLYLINE
  5
161
100
AcDbEntity
  8
Layer_1
 62
7
100
AcDbPolyline
 90
1
 70
1
 10
-98.185074
 20
52.796140
 30
0.0
  0
SPLINE
  5
162
100
AcDbEntity
  8
Layer_1
 62
7
100
AcDbSpline
 70
8
 71
3
 72
8
 73
4
 74
0
 40
0
 40
0
 40
0
 40
0
 40
1
 40
1
 40
1
 40
1
 10
-16.000307
 20
62.976350
 30
0.0
 10
-13.477901
 20
62.976350
 30
0.0
 10
-11.447227
 20
60.355650
 30
0.0
 10
-11.447227
 20
57.100350
 30
0.0
  0
LWPOLYLINE
  5
163
100
AcDbEntity
  8
Layer_1
 62
7
100
AcDbPolyline
 90
2
 70
0
 10
-104.926960
 20
62.976350
 30
0.0
 10
-16.000307
 20
62.976350
 30
0.0
  0
SPLINE
  5
164
100
AcDbEntity
  8
Layer_1
 62
7
100
AcDbSpline
 70
8
 71
3
 72
8
 73
4
 74
0
 40
0
 40
0
 40
0
 40
0
 40
1
 40
1
 40
1
 40
1
 10
-11.447227
 20
-0.103440
 30
0.0
 10
-11.447227
 20
-3.358740
 30
0.0
 10
-13.477901
 20
-5.979440
 30
0.0
 10
-16.000307
 20
-5.979440
 30
0.0
  0
LWPOLYLINE
  5
165
100
AcDbEntity
  8
Layer_1
 62
7
100
AcDbPolyline
 90
2
 70
0
 10
-11.447227
 20
57.100350
 30
0.0
 10
-11.447227
 20
-0.103440
 30
0.0
  0
SPLINE
  5
166
100
AcDbEntity
  8
Layer_1
 62
7
100
AcDbSpline
 70
8
 71
3
 72
8
 73
4
 74
0
 40
0
 40
0
 40
0
 40
0
 40
1
 40
1
 40
1
 40
1
 10
-104.926960
 20
-5.979440
 30
0.0
 10
-107.449370
 20
-5.979440
 30
0.0
 10
-109.480040
 20
-3.358740
 30
0.0
 10
-109.480040
 20
-0.103440
 30
0.0
  0
LWPOLYLINE
  5
167
100
AcDbEntity
  8
Layer_1
 62
7
100
AcDbPolyline
 90
2
 70
0
 10
-16.000307
 20
-5.979440
 30
0.0
 10
-104.926960
 20
-5.979440
 30
0.0
  0
SPLINE
  5
168
100
AcDbEntity
  8
Layer_1
 62
7
100
AcDbSpline
 70
8
 71
3
 72
8
 73
4
 74
0
 40
0
 40
0
 40
0
 40
0
 40
1
 40
1
 40
1
 40
1
 10
-109.480040
 20
57.100350
 30
0.0
 10
-109.480040
 20
60.355650
 30
0.0
 10
-107.449370
 20
62.976350
 30
0.0
 10
-104.926960
 20
62.976350
 30
0.0
  0
LWPOLYLINE
  5
169
100
AcDbEntity
  8
Layer_1
 62
7
100
AcDbPolyline
 90
2
 70
0
 10
-109.480040
 20
-0.103440
 30
0.0
 10
-109.480040
 20
57.100350
 30
0.0
  0
SPLINE
  5
16a
100
AcDbEntity
  8
Layer_1
 62
7
100
AcDbSpline
 70
8
 71
3
 72
8
 73
4
 74
0
 40
0
 40
0
 40
0
 40
0
 40
1
 40
1
 40
1
 40
1
 10
-40.185070
 20
52.796140
 30
0.0
 10
-40.185070
 20
52.431467
 30
0.0
 10
-40.329936
 20
52.081731
 30
0.0
 10
-40.587798
 20
51.823868
 30
0.0
  0
SPLINE
  5
16b
100
AcDbEntity
  8
Layer_1
 62
7
100
AcDbSpline
 70
8
 71
3
 72
8
 73
4
 74
0
 40
0
 40
0
 40
0
 40
0
 40
1
 40
1
 40
1
 40
1
 10
-40.587798
 20
51.823868
 30
0.0
 10
-40.845661
 20
51.566006
 30
0.0
 10
-41.195397
 20
51.421140
 30
0.0
 10
-41.560070
 20
51.421140
 30
0.0
  0
SPLINE
  5
16c
100
AcDbEntity
  8
Layer_1
 62
7
100
AcDbSpline
 70
8
 71
3
 72
8
 73
4
 74
0
 40
0
 40
0
 40
0
 40
0
 40
1
 40
1
 40
1
 40
1
 10
-41.560070
 20
51.421140
 30
0.0
 10
-41.924743
 20
51.421140
 30
0.0
 10
-42.274479
 20
51.566006
 30
0.0
 10
-42.532342
 20
51.823868
 30
0.0
  0
SPLINE
  5
16d
100
AcDbEntity
  8
Layer_1
 62
7
100
AcDbSpline
 70
8
 71
3
 72
8
 73
4
 74
0
 40
0
 40
0
 40
0
 40
0
 40
1
 40
1
 40
1
 40
1
 10
-42.532342
 20
51.823868
 30
0.0
 10
-42.790204
 20
52.081731
 30
0.0
 10
-42.935070
 20
52.431467
 30
0.0
 10
-42.935070
 20
52.796140
 30
0.0
  0
SPLINE
  5
16e
100
AcDbEntity
  8
Layer_1
 62
7
100
AcDbSpline
 70
8
 71
3
 72
8
 73
4
 74
0
 40
0
 40
0
 40
0
 40
0
 40
1
 40
1
 40
1
 40
1
 10
-42.935070
 20
52.796140
 30
0.0
 10
-42.935070
 20
53.160813
 30
0.0
 10
-42.790204
 20
53.510549
 30
0.0
 10
-42.532342
 20
53.768412
 30
0.0
  0
SPLINE
  5
16f
100
AcDbEntity
  8
Layer_1
 62
7
100
AcDbSpline
 70
8
 71
3
 72
8
 73
4
 74
0
 40
0
 40
0
 40
0
 40
0
 40
1
 40
1
 40
1
 40
1
 10
-42.532342
 20
53.768412
 30
0.0
 10
-42.274479
 20
54.026274
 30
0.0
 10
-41.924743
 20
54.171140
 30
0.0
 10
-41.560070
 20
54.171140
 30
0.0
  0
SPLINE
  5
170
100
AcDbEntity
  8
Layer_1
 62
7
100
AcDbSpline
 70
8
 71
3
 72
8
 73
4
 74
0
 40
0
 40
0
 40
0
 40
0
 40
1
 40
1
 40
1
 40
1
 10
-41.560070
 20
54.171140
 30
0.0
 10
-41.195397
 20
54.171140
 30
0.0
 10
-40.845661
 20
54.026274
 30
0.0
 10
-40.587798
 20
53.768412
 30
0.0
  0
SPLINE
  5
171
100
AcDbEntity
  8
Layer_1
 62
7
100
AcDbSpline
 70
8
 71
3
 72
8
 73
4
 74
0
 40
0
 40
0
 40
0
 40
0
 40
1
 40
1
 40
1
 40
1
 10
-40.587798
 20
53.768412
 30
0.0
 10
-40.329936
 20
53.510549
 30
0.0
 10
-40.185070
 20
53.160813
 30
0.0
 10
-40.185070
 20
52.796140
 30
0.0
  0
LWPOLYLINE
  5
172
100
AcDbEntity
  8
Layer_1
 62
7
100
AcDbPolyline
 90
1
 70
1
 10
-104.926960
 20
62.976350
 30
0.0
  0
SPLINE
  5
173
100
AcDbEntity
  8
Layer_1
 62
7
100
AcDbSpline
 70
8
 71
3
 72
8
 73
4
 74
0
 40
0
 40
0
 40
0
 40
0
 40
1
 40
1
 40
1
 40
1
 10
-40.185070
 20
3.796140
 30
0.0
 10
-40.185070
 20
3.431467
 30
0.0
 10
-40.329936
 20
3.081731
 30
0.0
 10
-40.587798
 20
2.823868
 30
0.0
  0
SPLINE
  5
174
100
AcDbEntity
  8
Layer_1
 62
7
100
AcDbSpline
 70
8
 71
3
 72
8
 73
4
 74
0
 40
0
 40
0
 40
0
 40
0
 40
1
 40
1
 40
1
 40
1
 10
-40.587798
 20
2.823868
 30
0.0
 10
-40.845661
 20
2.566006
 30
0.0
 10
-41.195397
 20
2.421140
 30
0.0
 10
-41.560070
 20
2.421140
 30
0.0
  0
SPLINE
  5
175
100
AcDbEntity
  8
Layer_1
 62
7
100
AcDbSpline
 70
8
 71
3
 72
8
 73
4
 74
0
 40
0
 40
0
 40
0
 40
0
 40
1
 40
1
 40
1
 40
1
 10
-41.560070
 20
2.421140
 30
0.0
 10
-41.924743
 20
2.421140
 30
0.0
 10
-42.274479
 20
2.566006
 30
0.0
 10
-42.532342
 20
2.823868
 30
0.0
  0
SPLINE
  5
176
100
AcDbEntity
  8
Layer_1
 62
7
100
AcDbSpline
 70
8
 71
3
 72
8
 73
4
 74
0
 40
0
 40
0
 40
0
 40
0
 40
1
 40
1
 40
1
 40
1
 10
-42.532342
 20
2.823868
 30
0.0
 10
-42.790204
 20
3.081731
 30
0.0
 10
-42.935070
 20
3.431467
 30
0.0
 10
-42.935070
 20
3.796140
 30
0.0
  0
SPLINE
  5
177
100
AcDbEntity
  8
Layer_1
 62
7
100
AcDbSpline
 70
8
 71
3
 72
8
 73
4
 74
0
 40
0
 40
0
 40
0
 40
0
 40
1
 40
1
 40
1
 40
1
 10
-42.935070
 20
3.796140
 30
0.0
 10
-42.935070
 20
4.160813
 30
0.0
 10
-42.790204
 20
4.510549
 30
0.0
 10
-42.532342
 20
4.768412
 30
0.0
  0
SPLINE
  5
178
100
AcDbEntity
  8
Layer_1
 62
7
100
AcDbSpline
 70
8
 71
3
 72
8
 73
4
 74
0
 40
0
 40
0
 40
0
 40
0
 40
1
 40
1
 40
1
 40
1
 10
-42.532342
 20
4.768412
 30
0.0
 10
-42.274479
 20
5.026274
 30
0.0
 10
-41.924743
 20
5.171140
 30
0.0
 10
-41.560070
 20
5.171140
 30
0.0
  0
SPLINE
  5
179
100
AcDbEntity
  8
Layer_1
 62
7
100
AcDbSpline
 70
8
 71
3
 72
8
 73
4
 74
0
 40
0
 40
0
 40
0
 40
0
 40
1
 40
1
 40
1
 40
1
 10
-41.560070
 20
5.171140
 30
0.0
 10
-41.195397
 20
5.171140
 30
0.0
 10
-40.845661
 20
5.026274
 30
0.0
 10
-40.587798
 20
4.768412
 30
0.0
  0
SPLINE
  5
17a
100
AcDbEntity
  8
Layer_1
 62
7
100
AcDbSpline
 70
8
 71
3
 72
8
 73
4
 74
0
 40
0
 40
0
 40
0
 40
0
 40
1
 40
1
 40
1
 40
1
 10
-40.587798
 20
4.768412
 30
0.0
 10
-40.329936
 20
4.510549
 30
0.0
 10
-40.185070
 20
4.160813
 30
0.0
 10
-40.185070
 20
3.796140
 30
0.0
  0
LWPOLYLINE
  5
17b
100
AcDbEntity
  8
Layer_1
 62
7
100
AcDbPolyline
 90
1
 70
1
 10
-40.185070
 20
52.796140
 30
0.0
  0
SPLINE
  5
17c
100
AcDbEntity
  8
Layer_1
 62
7
100
AcDbSpline
 70
8
 71
3
 72
8
 73
4
 74
0
 40
0
 40
0
 40
0
 40
0
 40
1
 40
1
 40
1
 40
1
 10
-98.185074
 20
3.796140
 30
0.0
 10
-98.185074
 20
3.431467
 30
0.0
 10
-98.329940
 20
3.081731
 30
0.0
 10
-98.587802
 20
2.823868
 30
0.0
  0
SPLINE
  5
17d
100
AcDbEntity
  8
Layer_1
 62
7
100
AcDbSpline
 70
8
 71
3
 72
8
 73
4
 74
0
 40
0
 40
0
 40
0
 40
0
 40
1
 40
1
 40
1
 40
1
 10
-98.587802
 20
2.823868
 30
0.0
 10
-98.845665
 20
2.566006
 30
0.0
 10
-99.195401
 20
2.421140
 30
0.0
 10
-99.560074
 20
2.421140
 30
0.0
  0
SPLINE
  5
17e
100
AcDbEntity
  8
Layer_1
 62
7
100
AcDbSpline
 70
8
 71
3
 72
8
 73
4
 74
0
 40
0
 40
0
 40
0
 40
0
 40
1
 40
1
 40
1
 40
1
 10
-99.560074
 20
2.421140
 30
0.0
 10
-100.319464
 20
2.421142
 30
0.0
 10
-100.935070
 20
3.036750
 30
0.0
 10
-100.935070
 20
3.796140
 30
0.0
  0
SPLINE
  5
17f
100
AcDbEntity
  8
Layer_1
 62
7
100
AcDbSpline
 70
8
 71
3
 72
8
 73
4
 74
0
 40
0
 40
0
 40
0
 40
0
 40
1
 40
1
 40
1
 40
1
 10
-100.935070
 20
3.796140
 30
0.0
 10
-100.935070
 20
4.555530
 30
0.0
 10
-100.319464
 20
5.171138
 30
0.0
 10
-99.560074
 20
5.171140
 30
0.0
  0
SPLINE
  5
180
100
AcDbEntity
  8
Layer_1
 62
7
100
AcDbSpline
 70
8
 71
3
 72
8
 73
4
 74
0
 40
0
 40
0
 40
0
 40
0
 40
1
 40
1
 40
1
 40
1
 10
-99.560074
 20
5.171140
 30
0.0
 10
-99.195401
 20
5.171140
 30
0.0
 10
-98.845665
 20
5.026274
 30
0.0
 10
-98.587802
 20
4.768412
 30
0.0
  0
SPLINE
  5
181
100
AcDbEntity
  8
Layer_1
 62
7
100
AcDbSpline
 70
8
 71
3
 72
8
 73
4
 74
0
 40
0
 40
0
 40
0
 40
0
 40
1
 40
1
 40
1
 40
1
 10
-98.587802
 20
4.768412
 30
0.0
 10
-98.329940
 20
4.510549
 30
0.0
 10
-98.185074
 20
4.160813
 30
0.0
 10
-98.185074
 20
3.796140
 30
0.0
  0
LWPOLYLINE
  5
182
100
AcDbEntity
  8
Layer_1
 62
7
100
AcDbPolyline
 90
1
 70
1
 10
-40.185070
 20
3.796140
 30
0.0
  0
LWPOLYLINE
  5
183
100
AcDbEntity
  8
Layer_1
 62
7
100
AcDbPolyline
 90
1
 70
1
 10
-98.185074
 20
3.796140
 30
0.0
  0
ENDSEC
  0
SECTION
  2
OBJECTS
  0
DICTIONARY
  5
C
330
0
100
AcDbDictionary
  3
ACAD_GROUP
350
D
  3
ACAD_MLINESTYLE
350
17
  0
DICTIONARY
  5
D
330
C
100
AcDbDictionary
  0
DICTIONARY
  5
1A
330
C
100
AcDbDictionary
  0
DICTIONARY
  5
17
330
C
100
AcDbDictionary
  3
STANDARD
350
18
  0
DICTIONARY
  5
19
330
C
100
AcDbDictionary
  0
ENDSEC
  0
EOF
