999
dxflib 2.2.0.0
  0
SECTION
  2
HEADER
  9
$ACADVER
  1
AC1015
  9
$HANDSEED
  5
FFFF
  9
$SPLINESEGS
 70
8
  9
$DIMEXE
 40
1.25
  9
$PSVPSCALE
 40
0.7023951675212474
  9
$DIMLUNIT
 70
2
  9
$GRIDMODE
 70
1
  9
$INSUNITS
 70
4
  9
$DIMADEC
 70
2
  9
$DIMASZ
 40
2.5
  9
$DIMGAP
 40
0.625
  9
$DIMTXT
 40
2.5
  9
$GRIDUNIT
 10
0.0
 20
0.0
  9
$DIMEXO
 40
0.625
  9
$LUPREC
 70
4
  9
$PINSBASE
 10
79.2121028819516795
 20
61.9027939230509645
 30
0.0
  9
$DIMAUNIT
 70
0
  9
$AUPREC
 70
2
  9
$PLIMMIN
 10
0.0
 20
0.0
  9
$LUNITS
 70
2
  9
$PLIMMAX
 10
210.0
 20
297.0
  9
$DIMSTYLE
  2
Standard
  9
$AUNITS
 70
0
  0
ENDSEC
  0
SECTION
  2
TABLES
  0
TABLE
  2
VPORT
  5
8
100
AcDbSymbolTable
 70
1
  0
VPORT
  5
30
100
AcDbSymbolTableRecord
100
AcDbViewportTableRecord
  2
*Active
 70
0
 10
0.0
 20
0.0
 11
1.0
 21
1.0
 12
286.3055555555554861
 22
148.5
 13
0.0
 23
0.0
 14
10.0
 24
10.0
 15
10.0
 25
10.0
 16
0.0
 26
0.0
 36
1.0
 17
0.0
 27
0.0
 37
0.0
 40
297.0
 41
1.92798353909465
 42
50.0
 43
0.0
 44
0.0
 50
0.0
 51
0.0
 71
0
 72
100
 73
1
 74
3
 75
1
 76
1
 77
0
 78
0
281
0
 65
1
110
0.0
120
0.0
130
0.0
111
1.0
121
0.0
131
0.0
112
0.0
122
1.0
132
0.0
 79
0
146
0.0
  0
ENDTAB
  0
TABLE
  2
LTYPE
  5
5
100
AcDbSymbolTable
 70
21
  0
LTYPE
  5
14
100
AcDbSymbolTableRecord
100
AcDbLinetypeTableRecord
  2
ByBlock
 70
0
  3

 72
65
 73
0
 40
0.0
  0
LTYPE
  5
15
100
AcDbSymbolTableRecord
100
AcDbLinetypeTableRecord
  2
ByLayer
 70
0
  3

 72
65
 73
0
 40
0.0
  0
LTYPE
  5
16
100
AcDbSymbolTableRecord
100
AcDbLinetypeTableRecord
  2
CONTINUOUS
 70
0
  3
Solid line
 72
65
 73
0
 40
0.0
  0
LTYPE
  5
31
100
AcDbSymbolTableRecord
100
AcDbLinetypeTableRecord
  2
DOT
 70
0
  3
Dot . . . . . . . . . . . . . . . . . . . . . .
 72
65
 73
2
 40
6.3499999999999996
 49
0.0
 74
0
 49
-6.3499999999999996
 74
0
  0
LTYPE
  5
32
100
AcDbSymbolTableRecord
100
AcDbLinetypeTableRecord
  2
DOT2
 70
0
  3
Dot (.5x) .....................................
 72
65
 73
2
 40
3.1749999999999998
 49
0.0
 74
0
 49
-3.1749999999999998
 74
0
  0
LTYPE
  5
33
100
AcDbSymbolTableRecord
100
AcDbLinetypeTableRecord
  2
DOTX2
 70
0
  3
Dot (2x) .  .  .  .  .  .  .  .  .  .  .  .  .
 72
65
 73
2
 40
12.6999999999999993
 49
0.0
 74
0
 49
-12.6999999999999993
 74
0
  0
LTYPE
  5
34
100
AcDbSymbolTableRecord
100
AcDbLinetypeTableRecord
  2
DASHED
 70
0
  3
Dashed __ __ __ __ __ __ __ __ __ __ __ __ __ _
 72
65
 73
2
 40
19.0500000000000007
 49
12.6999999999999993
 74
0
 49
-6.3499999999999996
 74
0
  0
LTYPE
  5
35
100
AcDbSymbolTableRecord
100
AcDbLinetypeTableRecord
  2
DASHED2
 70
0
  3
Dashed (.5x) _ _ _ _ _ _ _ _ _ _ _ _ _ _ _ _ _
 72
65
 73
2
 40
9.5250000000000004
 49
6.3499999999999996
 74
0
 49
-3.1749999999999998
 74
0
  0
LTYPE
  5
36
100
AcDbSymbolTableRecord
100
AcDbLinetypeTableRecord
  2
DASHEDX2
 70
0
  3
Dashed (2x) ____  ____  ____  ____  ____  ___
 72
65
 73
2
 40
38.1000000000000014
 49
25.3999999999999986
 74
0
 49
-12.6999999999999993
 74
0
  0
LTYPE
  5
37
100
AcDbSymbolTableRecord
100
AcDbLinetypeTableRecord
  2
DASHDOT
 70
0
  3
Dash dot __ . __ . __ . __ . __ . __ . __ . __
 72
65
 73
4
 40
25.3999999999999986
 49
12.6999999999999993
 74
0
 49
-6.3499999999999996
 74
0
 49
0.0
 74
0
 49
-6.3499999999999996
 74
0
  0
LTYPE
  5
38
100
AcDbSymbolTableRecord
100
AcDbLinetypeTableRecord
  2
DASHDOT2
 70
0
  3
Dash dot (.5x) _._._._._._._._._._._._._._._.
 72
65
 73
4
 40
12.6999999999999993
 49
6.3499999999999996
 74
0
 49
-3.1749999999999998
 74
0
 49
0.0
 74
0
 49
-3.1749999999999998
 74
0
  0
LTYPE
  5
39
100
AcDbSymbolTableRecord
100
AcDbLinetypeTableRecord
  2
DASHDOTX2
 70
0
  3
Dash dot (2x) ____  .  ____  .  ____  .  ___
 72
65
 73
4
 40
50.7999999999999972
 49
25.3999999999999986
 74
0
 49
-12.6999999999999993
 74
0
 49
0.0
 74
0
 49
-12.6999999999999993
 74
0
  0
LTYPE
  5
3A
100
AcDbSymbolTableRecord
100
AcDbLinetypeTableRecord
  2
DIVIDE
 70
0
  3
Divide ____ . . ____ . . ____ . . ____ . . ____
 72
65
 73
6
 40
31.75
 49
12.6999999999999993
 74
0
 49
-6.3499999999999996
 74
0
 49
0.0
 74
0
 49
-6.3499999999999996
 74
0
 49
0.0
 74
0
 49
-6.3499999999999996
 74
0
  0
LTYPE
  5
3B
100
AcDbSymbolTableRecord
100
AcDbLinetypeTableRecord
  2
DIVIDE2
 70
0
  3
Divide (.5x) __..__..__..__..__..__..__..__.._
 72
65
 73
6
 40
15.875
 49
6.3499999999999996
 74
0
 49
-3.1749999999999998
 74
0
 49
0.0
 74
0
 49
-3.1749999999999998
 74
0
 49
0.0
 74
0
 49
-3.1749999999999998
 74
0
  0
LTYPE
  5
3C
100
AcDbSymbolTableRecord
100
AcDbLinetypeTableRecord
  2
DIVIDEX2
 70
0
  3
Divide (2x) ________  .  .  ________  .  .  _
 72
65
 73
6
 40
63.5
 49
25.3999999999999986
 74
0
 49
-12.6999999999999993
 74
0
 49
0.0
 74
0
 49
-12.6999999999999993
 74
0
 49
0.0
 74
0
 49
-12.6999999999999993
 74
0
  0
LTYPE
  5
3D
100
AcDbSymbolTableRecord
100
AcDbLinetypeTableRecord
  2
CENTER
 70
0
  3
Center ____ _ ____ _ ____ _ ____ _ ____ _ ____
 72
65
 73
4
 40
50.7999999999999972
 49
31.75
 74
0
 49
-6.3499999999999996
 74
0
 49
6.3499999999999996
 74
0
 49
-6.3499999999999996
 74
0
  0
LTYPE
  5
3E
100
AcDbSymbolTableRecord
100
AcDbLinetypeTableRecord
  2
CENTER2
 70
0
  3
Center (.5x) ___ _ ___ _ ___ _ ___ _ ___ _ ___
 72
65
 73
4
 40
28.5749999999999993
 49
19.0500000000000007
 74
0
 49
-3.1749999999999998
 74
0
 49
3.1749999999999998
 74
0
 49
-3.1749999999999998
 74
0
  0
LTYPE
  5
3F
100
AcDbSymbolTableRecord
100
AcDbLinetypeTableRecord
  2
CENTERX2
 70
0
  3
Center (2x) ________  __  ________  __  _____
 72
65
 73
4
 40
101.5999999999999943
 49
63.5
 74
0
 49
-12.6999999999999993
 74
0
 49
12.6999999999999993
 74
0
 49
-12.6999999999999993
 74
0
  0
LTYPE
  5
40
100
AcDbSymbolTableRecord
100
AcDbLinetypeTableRecord
  2
BORDER
 70
0
  3
Border __ __ . __ __ . __ __ . __ __ . __ __ .
 72
65
 73
6
 40
44.4500000000000028
 49
12.6999999999999993
 74
0
 49
-6.3499999999999996
 74
0
 49
12.6999999999999993
 74
0
 49
-6.3499999999999996
 74
0
 49
0.0
 74
0
 49
-6.3499999999999996
 74
0
  0
LTYPE
  5
41
100
AcDbSymbolTableRecord
100
AcDbLinetypeTableRecord
  2
BORDER2
 70
0
  3
Border (.5x) __.__.__.__.__.__.__.__.__.__.__.
 72
65
 73
6
 40
22.2250000000000014
 49
6.3499999999999996
 74
0
 49
-3.1749999999999998
 74
0
 49
6.3499999999999996
 74
0
 49
-3.1749999999999998
 74
0
 49
0.0
 74
0
 49
-3.1749999999999998
 74
0
  0
LTYPE
  5
42
100
AcDbSymbolTableRecord
100
AcDbLinetypeTableRecord
  2
BORDERX2
 70
0
  3
Border (2x) ____  ____  .  ____  ____  .  ___
 72
65
 73
6
 40
88.9000000000000057
 49
25.3999999999999986
 74
0
 49
-12.6999999999999993
 74
0
 49
25.3999999999999986
 74
0
 49
-12.6999999999999993
 74
0
 49
0.0
 74
0
 49
-12.6999999999999993
 74
0
  0
ENDTAB
  0
TABLE
  2
LAYER
  5
2
100
AcDbSymbolTable
 70
2
  0
LAYER
  5
10
100
AcDbSymbolTableRecord
100
AcDbLayerTableRecord
  2
0
 70
0
 62
7
  6
CONTINUOUS
370
0
390
F
  0
LAYER
  5
43
100
AcDbSymbolTableRecord
100
AcDbLayerTableRecord
  2
cotes
 70
1
 62
2
  6
CONTINUOUS
370
0
390
F
  0
ENDTAB
  0
TABLE
  2
STYLE
  5
3
100
AcDbSymbolTable
 70
1
  0
STYLE
  5
11
100
AcDbSymbolTableRecord
100
AcDbTextStyleTableRecord
  2
Standard
 70
0
 40
0.0
 41
0.75
 50
0.0
 71
0
 42
2.5
  3
txt
  4

  0
ENDTAB
  0
TABLE
  2
VIEW
  5
6
100
AcDbSymbolTable
 70
0
  0
ENDTAB
  0
TABLE
  2
UCS
  5
7
100
AcDbSymbolTable
 70
0
  0
ENDTAB
  0
TABLE
  2
APPID
  5
9
100
AcDbSymbolTable
 70
1
  0
APPID
  5
12
100
AcDbSymbolTableRecord
100
AcDbRegAppTableRecord
  2
ACAD
 70
0
  0
ENDTAB
  0
TABLE
  2
DIMSTYLE
  5
A
100
AcDbSymbolTable
 70
1
100
AcDbDimStyleTable
 71
0
  0
DIMSTYLE
105
27
100
AcDbSymbolTableRecord
100
AcDbDimStyleTableRecord
  2
Standard
 41
2.5
 42
0.625
 43
3.75
 44
1.25
 70
0
 73
0
 74
0
 77
1
 78
8
140
2.5
141
2.5
143
0.03937007874016
147
0.625
171
3
172
1
271
2
272
2
274
3
278
44
283
0
284
8
340
11
  0
ENDTAB
  0
TABLE
  2
BLOCK_RECORD
  5
1
100
AcDbSymbolTable
 70
1
  0
BLOCK_RECORD
  5
1F
100
AcDbSymbolTableRecord
100
AcDbBlockTableRecord
  2
*Model_Space
340
22
  0
BLOCK_RECORD
  5
1B
100
AcDbSymbolTableRecord
100
AcDbBlockTableRecord
  2
*Paper_Space
340
1E
  0
BLOCK_RECORD
  5
23
100
AcDbSymbolTableRecord
100
AcDbBlockTableRecord
  2
*Paper_Space0
340
26
  0
ENDTAB
  0
ENDSEC
  0
SECTION
  2
BLOCKS
  0
BLOCK
  5
20
100
AcDbEntity
  8
0
100
AcDbBlockBegin
  2
*Model_Space
 70
0
 10
0.0
 20
0.0
 30
0.0
  3
*Model_Space
  1

  0
ENDBLK
  5
21
100
AcDbEntity
  8
0
100
AcDbBlockEnd
  0
BLOCK
  5
1C
100
AcDbEntity
 67
1
  8
0
100
AcDbBlockBegin
  2
*Paper_Space
 70
0
 10
0.0
 20
0.0
 30
0.0
  3
*Paper_Space
  1

  0
ENDBLK
  5
1D
100
AcDbEntity
 67
1
  8
0
100
AcDbBlockEnd
  0
BLOCK
  5
24
100
AcDbEntity
  8
0
100
AcDbBlockBegin
  2
*Paper_Space0
 70
0
 10
0.0
 20
0.0
 30
0.0
  3
*Paper_Space0
  1

  0
ENDBLK
  5
25
100
AcDbEntity
  8
0
100
AcDbBlockEnd
  0
ENDSEC
  0
SECTION
  2
ENTITIES
  0
IMAGE
  5
44
  8
0
 62
256
370
20
  6
ByLayer
100
AcDbEntity
100
AcDbRasterImage
 90
0
 10
146.3948987976098124
 20
114.9034000742901895
 30
0.0
 11
0.0
 21
0.1
 31
0.0
 12
-0.1
 22
0.0
 32
0.0
 13
200.0
 23
253.0
340
45
 70
15
280
0
281
50
282
50
283
0
  0
IMAGE
  5
46
  8
0
 62
256
370
20
  6
ByLayer
100
AcDbEntity
100
AcDbRasterImage
 90
0
 10
13.5564497101468007
 20
80.1293606446132429
 30
0.0
 11
0.0
 21
-0.1
 31
0.0
 12
0.1
 22
0.0
 32
0.0
 13
200.0
 23
253.0
340
47
 70
15
280
0
281
50
282
50
283
0
  0
LINE
  5
48
100
AcDbEntity
100
AcDbLine
  8
0
 62
256
370
-1
  6
ByLayer
 10
-10.0
 20
0.0
 30
0.0
 11
-10.0
 21
0.0
 31
0.0
  0
DIMENSION
  5
49
100
AcDbEntity
  8
cotes
 62
256
370
-1
  6
ByLayer
100
AcDbDimension
 10
115.0
 20
44.8899856527981882
 30
0.0
 11
80.0
 21
46.7649856527981882
 31
0.0
 70
0
 71
5
 72
1
 41
1.0
 42
0.0
  1

  3
Standard
100
AcDbAlignedDimension
 13
45.0
 23
73.0
 33
0.0
 14
115.0
 24
73.0
 34
0.0
 50
0.0
100
AcDbRotatedDimension
  0
DIMENSION
  5
4A
100
AcDbEntity
  8
cotes
 62
256
370
-1
  6
ByLayer
100
AcDbDimension
 10
40.0000000000000071
 20
143.362938307033204
 30
0.0
 11
22.5000000000000071
 21
145.237938307033204
 31
0.0
 70
0
 71
5
 72
1
 41
1.0
 42
0.0
  1

  3
Standard
100
AcDbAlignedDimension
 13
5.0000000000000053
 23
139.1116138763201207
 33
0.0
 14
40.0000000000000071
 24
139.1116138763201207
 34
0.0
 50
0.0
100
AcDbRotatedDimension
  0
LINE
  5
4B
100
AcDbEntity
100
AcDbLine
  8
0
 62
256
370
-1
  6
ByLayer
 10
45.0000000000000071
 20
179.5928981348668287
 30
0.0
 11
45.0000000000000071
 21
179.5928981348668287
 31
0.0
  0
LINE
  5
4C
100
AcDbEntity
100
AcDbLine
  8
0
 62
256
370
-1
  6
ByLayer
 10
55.0000000000000071
 20
179.5928981348668287
 30
0.0
 11
55.0000000000000071
 21
176.5928981348668287
 31
0.0
  0
LINE
  5
4D
100
AcDbEntity
100
AcDbLine
  8
0
 62
256
370
-1
  6
ByLayer
 10
65.0
 20
176.5928981348668287
 30
0.0
 11
65.0
 21
179.5928981348668287
 31
0.0
  0
LINE
  5
4E
100
AcDbEntity
100
AcDbLine
  8
0
 62
256
370
-1
  6
ByLayer
 10
95.0000000000000142
 20
179.5928981348668287
 30
0.0
 11
95.0000000000000142
 21
176.5928981348668287
 31
0.0
  0
LINE
  5
4F
100
AcDbEntity
100
AcDbLine
  8
0
 62
256
370
-1
  6
ByLayer
 10
105.0000000000000142
 20
176.5928981348668287
 30
0.0
 11
105.0000000000000142
 21
179.5928981348668287
 31
0.0
  0
DIMENSION
  5
50
100
AcDbEntity
  8
cotes
 62
256
370
-1
  6
ByLayer
100
AcDbDimension
 10
39.5758608321384742
 20
144.5928981348668287
 30
0.0
 11
37.7008608321384742
 21
162.0928981348668287
 31
0.0
 70
0
 71
5
 72
1
 41
1.0
 42
0.0
  1

  3
Standard
100
AcDbAlignedDimension
 13
45.0000000000000071
 23
179.5928981348668287
 33
0.0
 14
45.0
 24
144.5928981348668287
 34
0.0
 50
90.0
100
AcDbRotatedDimension
  0
LINE
  5
51
100
AcDbEntity
100
AcDbLine
  8
0
 62
256
370
-1
  6
ByLayer
 10
65.0
 20
36.30631276901007
 30
0.0
 11
93.0
 21
36.30631276901007
 31
0.0
  0
LINE
  5
52
100
AcDbEntity
100
AcDbLine
  8
0
 62
256
370
-1
  6
ByLayer
 10
72.0
 20
13.30631276901007
 30
0.0
 11
88.0
 21
13.30631276901007
 31
0.0
  0
LINE
  5
53
100
AcDbEntity
100
AcDbLine
  8
0
 62
256
370
-1
  6
ByLayer
 10
88.0
 20
13.30631276901007
 30
0.0
 11
88.0
 21
16.30631276901007
 31
0.0
  0
LINE
  5
54
100
AcDbEntity
100
AcDbLine
  8
0
 62
256
370
-1
  6
ByLayer
 10
88.0
 20
16.30631276901007
 30
0.0
 11
72.0
 21
16.30631276901007
 31
0.0
  0
LINE
  5
55
100
AcDbEntity
100
AcDbLine
  8
0
 62
256
370
-1
  6
ByLayer
 10
72.0
 20
16.30631276901007
 30
0.0
 11
72.0
 21
13.30631276901007
 31
0.0
  0
POINT
  5
56
100
AcDbEntity
100
AcDbPoint
  8
0
 62
256
370
-1
  6
ByLayer
 10
45.0
 20
39.30631276901007
 30
0.0
  0
POINT
  5
57
100
AcDbEntity
100
AcDbPoint
  8
0
 62
256
370
-1
  6
ByLayer
 10
55.0
 20
39.30631276901007
 30
0.0
  0
POINT
  5
58
100
AcDbEntity
100
AcDbPoint
  8
0
 62
256
370
-1
  6
ByLayer
 10
55.0
 20
42.30631276901007
 30
0.0
  0
POINT
  5
59
100
AcDbEntity
100
AcDbPoint
  8
0
 62
256
370
-1
  6
ByLayer
 10
55.0
 20
42.30631276901007
 30
0.0
  0
LINE
  5
5A
100
AcDbEntity
100
AcDbLine
  8
0
 62
256
370
-1
  6
ByLayer
 10
55.0
 20
39.30631276901007
 30
0.0
 11
55.0
 21
42.30631276901007
 31
0.0
  0
LINE
  5
5B
100
AcDbEntity
100
AcDbLine
  8
0
 62
256
370
-1
  6
ByLayer
 10
45.0
 20
7.30631276901007
 30
0.0
 11
45.0
 21
7.30631276901007
 31
0.0
  0
LINE
  5
5C
100
AcDbEntity
100
AcDbLine
  8
0
 62
256
370
-1
  6
ByLayer
 10
45.0
 20
7.30631276901007
 30
0.0
 11
45.0
 21
7.30631276901007
 31
0.0
  0
LINE
  5
5D
100
AcDbEntity
100
AcDbLine
  8
0
 62
256
370
-1
  6
ByLayer
 10
45.0
 20
7.30631276901007
 30
0.0
 11
45.0
 21
7.30631276901007
 31
0.0
  0
LINE
  5
5E
100
AcDbEntity
100
AcDbLine
  8
0
 62
256
370
-1
  6
ByLayer
 10
45.0
 20
7.30631276901007
 30
0.0
 11
45.0
 21
7.30631276901007
 31
0.0
  0
LINE
  5
5F
100
AcDbEntity
100
AcDbLine
  8
0
 62
256
370
-1
  6
ByLayer
 10
45.0
 20
7.30631276901007
 30
0.0
 11
45.0
 21
7.30631276901007
 31
0.0
  0
LINE
  5
60
100
AcDbEntity
100
AcDbLine
  8
0
 62
256
370
-1
  6
ByLayer
 10
45.0
 20
39.30631276901007
 30
0.0
 11
45.0
 21
39.30631276901007
 31
0.0
  0
LINE
  5
61
100
AcDbEntity
100
AcDbLine
  8
0
 62
256
370
-1
  6
ByLayer
 10
45.0
 20
20.30631276901007
 30
0.0
 11
45.0
 21
20.30631276901007
 31
0.0
  0
LINE
  5
62
100
AcDbEntity
100
AcDbLine
  8
0
 62
256
370
-1
  6
ByLayer
 10
45.0
 20
39.30631276901007
 30
0.0
 11
45.0
 21
39.30631276901007
 31
0.0
  0
LINE
  5
63
100
AcDbEntity
100
AcDbLine
  8
0
 62
256
370
-1
  6
ByLayer
 10
45.0
 20
20.30631276901007
 30
0.0
 11
45.0
 21
20.30631276901007
 31
0.0
  0
LINE
  5
64
100
AcDbEntity
100
AcDbLine
  8
0
 62
256
370
-1
  6
ByLayer
 10
29.0000000000000036
 20
7.30631276901007
 30
0.0
 11
29.0000000000000036
 21
7.30631276901007
 31
0.0
  0
DIMENSION
  5
65
100
AcDbEntity
  8
cotes
 62
256
370
-1
  6
ByLayer
100
AcDbDimension
 10
125.5294117647062251
 20
29.30631276901007
 30
0.0
 11
123.6544117647062251
 21
34.30631276901007
 31
0.0
 70
0
 71
5
 72
1
 41
1.0
 42
0.0
  1

  3
Standard
100
AcDbAlignedDimension
 13
115.0
 23
39.30631276901007
 33
0.0
 14
115.0
 24
29.30631276901007
 34
0.0
 50
90.0
100
AcDbRotatedDimension
  0
DIMENSION
  5
66
100
AcDbEntity
  8
cotes
 62
256
370
-1
  6
ByLayer
100
AcDbDimension
 10
40.5256814921099107
 20
7.3063127690100718
 30
0.0
 11
38.6506814921099107
 21
24.80631276901007
 31
0.0
 70
0
 71
5
 72
1
 41
1.0
 42
0.0
  1

  3
Standard
100
AcDbAlignedDimension
 13
55.2218077474904376
 23
42.30631276901007
 33
0.0
 14
55.2218077474904376
 24
7.30631276901007
 34
0.0
 50
90.0
100
AcDbRotatedDimension
  0
DIMENSION
  5
67
100
AcDbEntity
  8
cotes
 62
256
370
-1
  6
ByLayer
100
AcDbDimension
 10
164.565997130560163
 20
49.9999999999999929
 30
0.0
 11
162.690997130560163
 21
94.5
 31
0.0
 70
0
 71
5
 72
0
 41
1.0
 42
0.0
  1

  3
Standard
100
AcDbAlignedDimension
 13
147.0
 23
139.0
 33
0.0
 14
147.0
 24
49.9999999999999929
 34
0.0
 50
90.0
100
AcDbRotatedDimension
  0
LINE
  5
68
100
AcDbEntity
100
AcDbLine
  8
0
 62
256
370
-1
  6
ByLayer
 10
115.0000000000000426
 20
276.5928981348668003
 30
0.0
 11
115.0000000000000426
 21
276.5928981348668003
 31
0.0
  0
LINE
  5
69
100
AcDbEntity
100
AcDbLine
  8
0
 62
256
370
-1
  6
ByLayer
 10
115.0000000000000426
 20
276.5928981348668003
 30
0.0
 11
115.0000000000000426
 21
276.5928981348668003
 31
0.0
  0
LINE
  5
6A
100
AcDbEntity
100
AcDbLine
  8
0
 62
256
370
-1
  6
ByLayer
 10
115.0000000000000426
 20
276.5928981348668003
 30
0.0
 11
115.0000000000000426
 21
276.5928981348668003
 31
0.0
  0
LINE
  5
6B
100
AcDbEntity
100
AcDbLine
  8
0
 62
256
370
-1
  6
ByLayer
 10
115.0000000000000426
 20
276.5928981348668003
 30
0.0
 11
115.0000000000000426
 21
276.5928981348668003
 31
0.0
  0
LINE
  5
6C
100
AcDbEntity
100
AcDbLine
  8
0
 62
256
370
-1
  6
ByLayer
 10
115.0000000000000426
 20
276.5928981348668003
 30
0.0
 11
115.0000000000000426
 21
276.5928981348668003
 31
0.0
  0
LINE
  5
6D
100
AcDbEntity
100
AcDbLine
  8
0
 62
256
370
-1
  6
ByLayer
 10
45.0000000000000142
 20
187.5928981348668287
 30
0.0
 11
45.0000000000000142
 21
187.5928981348668287
 31
0.0
  0
LINE
  5
6E
100
AcDbEntity
100
AcDbLine
  8
0
 62
256
370
-1
  6
ByLayer
 10
45.0000000000000142
 20
187.5928981348668287
 30
0.0
 11
45.0000000000000426
 21
276.5928981348668003
 31
0.0
  0
LINE
  5
6F
100
AcDbEntity
100
AcDbLine
  8
0
 62
256
370
-1
  6
DOT2
 10
111.5000000000000142
 20
197.5928981348668287
 30
0.0
 11
111.5000000000000142
 21
187.5928981348668287
 31
0.0
  0
LINE
  5
70
100
AcDbEntity
100
AcDbLine
  8
0
 62
256
370
-1
  6
DOT2
 10
101.5000000000000426
 20
272.5928981348668003
 30
0.0
 11
111.5000000000000426
 21
272.5928981348668003
 31
0.0
  0
LINE
  5
71
100
AcDbEntity
100
AcDbLine
  8
0
 62
256
370
-1
  6
DOT2
 10
111.5000000000000142
 20
197.5928981348668287
 30
0.0
 11
101.5
 21
197.5928981348668287
 31
0.0
  0
LINE
  5
72
100
AcDbEntity
100
AcDbLine
  8
0
 62
256
370
-1
  6
ByLayer
 10
105.0
 20
50.0000000000000071
 30
0.0
 11
115.0
 21
50.0
 31
0.0
  0
LINE
  5
73
100
AcDbEntity
100
AcDbLine
  8
0
 62
256
370
-1
  6
ByLayer
 10
55.0
 20
50.0
 30
0.0
 11
45.0
 21
50.0
 31
0.0
  0
LINE
  5
74
100
AcDbEntity
100
AcDbLine
  8
0
 62
256
370
-1
  6
ByLayer
 10
105.0
 20
50.0000000000000071
 30
0.0
 11
115.0
 21
50.0
 31
0.0
  0
LINE
  5
75
100
AcDbEntity
100
AcDbLine
  8
0
 62
256
370
-1
  6
ByLayer
 10
105.0
 20
50.0000000000000071
 30
0.0
 11
115.0
 21
50.0
 31
0.0
  0
LINE
  5
76
100
AcDbEntity
100
AcDbLine
  8
0
 62
256
370
-1
  6
ByLayer
 10
105.0
 20
49.8646209386281498
 30
0.0
 11
105.0
 21
52.8646209386281569
 31
0.0
  0
LINE
  5
77
100
AcDbEntity
100
AcDbLine
  8
0
 62
256
370
-1
  6
ByLayer
 10
55.0
 20
52.8646209386281569
 30
0.0
 11
55.0
 21
50.0
 31
0.0
  0
LINE
  5
78
100
AcDbEntity
100
AcDbLine
  8
0
 62
256
370
-1
  6
ByLayer
 10
105.0
 20
50.0000000000000071
 30
0.0
 11
115.0
 21
50.0
 31
0.0
  0
LINE
  5
79
100
AcDbEntity
100
AcDbLine
  8
0
 62
256
370
-1
  6
ByLayer
 10
105.0
 20
50.0000000000000071
 30
0.0
 11
115.0
 21
50.0
 31
0.0
  0
LINE
  5
7A
100
AcDbEntity
100
AcDbLine
  8
0
 62
256
370
-1
  6
ByLayer
 10
105.0
 20
50.0000000000000071
 30
0.0
 11
115.0
 21
50.0
 31
0.0
  0
LINE
  5
7B
100
AcDbEntity
100
AcDbLine
  8
0
 62
256
370
-1
  6
ByLayer
 10
105.0
 20
50.0000000000000071
 30
0.0
 11
115.0
 21
50.0
 31
0.0
  0
LINE
  5
7C
100
AcDbEntity
100
AcDbLine
  8
0
 62
256
370
-1
  6
ByLayer
 10
105.0
 20
50.0000000000000071
 30
0.0
 11
115.0
 21
50.0
 31
0.0
  0
LINE
  5
7D
100
AcDbEntity
100
AcDbLine
  8
0
 62
256
370
-1
  6
ByLayer
 10
105.0
 20
50.0000000000000071
 30
0.0
 11
115.0
 21
50.0
 31
0.0
  0
LINE
  5
7E
100
AcDbEntity
100
AcDbLine
  8
0
 62
256
370
-1
  6
ByLayer
 10
105.0
 20
50.0000000000000071
 30
0.0
 11
115.0
 21
50.0
 31
0.0
  0
LINE
  5
7F
100
AcDbEntity
100
AcDbLine
  8
0
 62
256
370
-1
  6
ByLayer
 10
105.0
 20
50.0000000000000071
 30
0.0
 11
115.0
 21
50.0
 31
0.0
  0
LINE
  5
80
100
AcDbEntity
100
AcDbLine
  8
0
 62
256
370
-1
  6
ByLayer
 10
105.0
 20
50.0000000000000071
 30
0.0
 11
115.0
 21
50.0
 31
0.0
  0
LINE
  5
81
100
AcDbEntity
100
AcDbLine
  8
0
 62
256
370
-1
  6
ByLayer
 10
105.0
 20
50.0000000000000071
 30
0.0
 11
115.0
 21
50.0
 31
0.0
  0
LINE
  5
82
100
AcDbEntity
100
AcDbLine
  8
0
 62
256
370
-1
  6
ByLayer
 10
105.0
 20
50.0000000000000071
 30
0.0
 11
115.0
 21
50.0
 31
0.0
  0
LINE
  5
83
100
AcDbEntity
100
AcDbLine
  8
0
 62
256
370
-1
  6
ByLayer
 10
105.0
 20
50.0000000000000071
 30
0.0
 11
115.0
 21
50.0
 31
0.0
  0
LINE
  5
84
100
AcDbEntity
100
AcDbLine
  8
0
 62
256
370
-1
  6
ByLayer
 10
105.0
 20
50.0000000000000071
 30
0.0
 11
115.0
 21
50.0
 31
0.0
  0
LINE
  5
85
100
AcDbEntity
100
AcDbLine
  8
0
 62
256
370
-1
  6
ByLayer
 10
105.0
 20
50.0000000000000071
 30
0.0
 11
115.0
 21
50.0
 31
0.0
  0
LINE
  5
86
100
AcDbEntity
100
AcDbLine
  8
0
 62
256
370
-1
  6
ByLayer
 10
105.0
 20
50.0000000000000071
 30
0.0
 11
115.0
 21
50.0
 31
0.0
  0
LINE
  5
87
100
AcDbEntity
100
AcDbLine
  8
0
 62
256
370
-1
  6
ByLayer
 10
105.0
 20
50.0000000000000071
 30
0.0
 11
115.0
 21
50.0
 31
0.0
  0
LINE
  5
88
100
AcDbEntity
100
AcDbLine
  8
0
 62
256
370
-1
  6
ByLayer
 10
105.0
 20
50.0000000000000071
 30
0.0
 11
115.0
 21
50.0
 31
0.0
  0
LINE
  5
89
100
AcDbEntity
100
AcDbLine
  8
0
 62
256
370
-1
  6
ByLayer
 10
105.0
 20
50.0000000000000071
 30
0.0
 11
115.0
 21
50.0
 31
0.0
  0
LINE
  5
8A
100
AcDbEntity
100
AcDbLine
  8
0
 62
256
370
-1
  6
ByLayer
 10
105.0
 20
50.0000000000000071
 30
0.0
 11
115.0
 21
50.0
 31
0.0
  0
LINE
  5
8B
100
AcDbEntity
100
AcDbLine
  8
0
 62
256
370
-1
  6
ByLayer
 10
105.0
 20
50.0000000000000071
 30
0.0
 11
115.0
 21
50.0
 31
0.0
  0
LINE
  5
8C
100
AcDbEntity
100
AcDbLine
  8
0
 62
256
370
-1
  6
ByLayer
 10
105.0
 20
52.8646209386281569
 30
0.0
 11
55.0
 21
52.8646209386281569
 31
0.0
  0
LINE
  5
8D
100
AcDbEntity
100
AcDbLine
  8
0
 62
256
370
-1
  6
ByLayer
 10
45.0
 20
50.1721872643289046
 30
0.0
 11
45.0
 21
50.1721872643289046
 31
0.0
  0
POINT
  5
8E
100
AcDbEntity
100
AcDbPoint
  8
0
 62
256
370
-1
  6
ByLayer
 10
47.9999999999999858
 20
138.9999999999999716
 30
0.0
  0
POINT
  5
8F
100
AcDbEntity
100
AcDbPoint
  8
0
 62
256
370
-1
  6
ByLayer
 10
47.9999999999999858
 20
138.9999999999999716
 30
0.0
  0
LINE
  5
90
100
AcDbEntity
100
AcDbLine
  8
0
 62
256
370
-1
  6
ByLayer
 10
112.0
 20
60.0
 30
0.0
 11
115.0
 21
60.0
 31
0.0
  0
LINE
  5
91
100
AcDbEntity
100
AcDbLine
  8
0
 62
256
370
-1
  6
ByLayer
 10
112.0
 20
70.0
 30
0.0
 11
115.0
 21
70.0
 31
0.0
  0
LINE
  5
92
100
AcDbEntity
100
AcDbLine
  8
0
 62
256
370
-1
  6
ByLayer
 10
112.0
 20
80.0
 30
0.0
 11
115.0
 21
80.0
 31
0.0
  0
LINE
  5
93
100
AcDbEntity
100
AcDbLine
  8
0
 62
256
370
-1
  6
ByLayer
 10
115.0
 20
60.0
 30
0.0
 11
115.0
 21
50.0
 31
0.0
  0
LINE
  5
94
100
AcDbEntity
100
AcDbLine
  8
0
 62
256
370
-1
  6
ByLayer
 10
115.0
 20
70.0
 30
0.0
 11
115.0
 21
80.0
 31
0.0
  0
LINE
  5
95
100
AcDbEntity
100
AcDbLine
  8
0
 62
256
370
-1
  6
ByLayer
 10
112.0
 20
70.0
 30
0.0
 11
112.0
 21
60.0
 31
0.0
  0
LINE
  5
96
100
AcDbEntity
100
AcDbLine
  8
0
 62
256
370
-1
  6
ByLayer
 10
112.0000000000000284
 20
116.9743589743595749
 30
0.0
 11
112.0000000000000284
 21
116.9743589743595749
 31
0.0
  0
LINE
  5
97
100
AcDbEntity
100
AcDbLine
  8
0
 62
256
370
-1
  6
ByLayer
 10
112.0527903469078694
 20
126.9743589743595749
 30
0.0
 11
112.0527903469078694
 21
126.9743589743595749
 31
0.0
  0
LINE
  5
98
100
AcDbEntity
100
AcDbLine
  8
0
 62
256
370
-1
  6
ByLayer
 10
112.0527903469078694
 20
126.9743589743595749
 30
0.0
 11
112.052790346907841
 21
139.0
 31
0.0
  0
LINE
  5
99
100
AcDbEntity
100
AcDbLine
  8
0
 62
256
370
-1
  6
ByLayer
 10
48.0000000000000142
 20
72.850033859397783
 30
0.0
 11
48.0000000000000142
 21
63.0000000000000213
 31
0.0
  0
LINE
  5
9A
100
AcDbEntity
100
AcDbLine
  8
0
 62
256
370
-1
  6
ByLayer
 10
48.0000000000000142
 20
63.0000000000000213
 30
0.0
 11
45.0
 21
62.9999999999999858
 31
0.0
  0
LINE
  5
9B
100
AcDbEntity
100
AcDbLine
  8
0
 62
256
370
-1
  6
ByLayer
 10
48.0000000000000142
 20
73.0
 30
0.0
 11
45.0
 21
73.0
 31
0.0
  0
LINE
  5
9C
100
AcDbEntity
100
AcDbLine
  8
0
 62
256
370
-1
  6
ByLayer
 10
47.9999999999999858
 20
82.9999999999999716
 30
0.0
 11
45.0000000000000142
 21
83.0000000000000284
 31
0.0
  0
LINE
  5
9D
100
AcDbEntity
100
AcDbLine
  8
0
 62
256
370
-1
  6
ByLayer
 10
45.0000000000000142
 20
72.9640401721667899
 30
0.0
 11
45.0
 21
82.8825893830706661
 31
0.0
  0
LINE
  5
9E
100
AcDbEntity
100
AcDbLine
  8
0
 62
256
370
-1
  6
ByLayer
 10
45.0
 20
62.9999999999999858
 30
0.0
 11
45.0
 21
50.0
 31
0.0
  0
LINE
  5
9F
100
AcDbEntity
100
AcDbLine
  8
0
 62
256
370
-1
  6
ByLayer
 10
44.9999999999999858
 20
128.9999999999999716
 30
0.0
 11
48.0000000000000142
 21
129.0
 31
0.0
  0
LINE
  5
A0
100
AcDbEntity
100
AcDbLine
  8
0
 62
256
370
-1
  6
ByLayer
 10
45.0000000000000284
 20
119.0000000000000284
 30
0.0
 11
47.9999999999999716
 21
118.9999999999999716
 31
0.0
  0
LINE
  5
A1
100
AcDbEntity
100
AcDbLine
  8
0
 62
256
370
-1
  6
ByLayer
 10
44.9999999999999858
 20
128.9999999999999716
 30
0.0
 11
45.0000000000000284
 21
119.0000000000000284
 31
0.0
  0
LINE
  5
A2
100
AcDbEntity
100
AcDbLine
  8
0
 62
256
370
-1
  6
ByLayer
 10
47.9999999999999858
 20
138.9999999999999716
 30
0.0
 11
48.0000000000000142
 21
129.0
 31
0.0
  0
LINE
  5
A3
100
AcDbEntity
100
AcDbLine
  8
0
 62
256
370
-1
  6
ByLayer
 10
45.0000000000000142
 20
109.0
 30
0.0
 11
48.0000000000000284
 21
109.0000000000000142
 31
0.0
  0
LINE
  5
A4
100
AcDbEntity
100
AcDbLine
  8
0
 62
256
370
-1
  6
ByLayer
 10
45.0
 20
99.0
 30
0.0
 11
48.0000000000000142
 21
99.0000000000000284
 31
0.0
  0
LINE
  5
A5
100
AcDbEntity
100
AcDbLine
  8
0
 62
256
370
-1
  6
ByLayer
 10
47.9999999999999716
 20
118.9999999999999716
 30
0.0
 11
48.0000000000000284
 21
109.0000000000000142
 31
0.0
  0
LINE
  5
A6
100
AcDbEntity
100
AcDbLine
  8
0
 62
256
370
-1
  6
ByLayer
 10
48.0000000000000284
 20
109.0000000000000142
 30
0.0
 11
45.0000000000000142
 21
109.0
 31
0.0
  0
LINE
  5
A7
100
AcDbEntity
100
AcDbLine
  8
0
 62
256
370
-1
  6
ByLayer
 10
45.0000000000000142
 20
109.0
 30
0.0
 11
45.0
 21
99.0
 31
0.0
  0
LINE
  5
A8
100
AcDbEntity
100
AcDbLine
  8
0
 62
256
370
-1
  6
ByLayer
 10
45.0
 20
99.0
 30
0.0
 11
48.0000000000000142
 21
99.0000000000000284
 31
0.0
  0
LINE
  5
A9
100
AcDbEntity
100
AcDbLine
  8
0
 62
256
370
-1
  6
ByLayer
 10
48.0000000000000142
 20
99.0000000000000284
 30
0.0
 11
47.9999999999999858
 21
82.9999999999999716
 31
0.0
  0
LINE
  5
AA
100
AcDbEntity
100
AcDbLine
  8
0
 62
256
370
-1
  6
DOT2
 10
49.7790530846475718
 20
139.0000000000000284
 30
0.0
 11
60.4671449067422984
 21
139.0
 31
0.0
  0
LINE
  5
AB
100
AcDbEntity
100
AcDbLine
  8
0
 62
256
370
-1
  6
DOT2
 10
67.0
 20
79.9999999999999858
 30
0.0
 11
67.0
 21
79.9999999999999858
 31
0.0
  0
LINE
  5
AC
100
AcDbEntity
100
AcDbLine
  8
0
 62
256
370
40
  6
DOT
 10
50.0003709710860562
 20
139.0
 30
0.0
 11
55.3457675753219291
 21
139.0000000000000284
 31
0.0
  0
LINE
  5
AD
100
AcDbEntity
100
AcDbLine
  8
0
 62
256
370
-1
  6
ByLayer
 10
8.6356028235298936
 20
52.9999999999999929
 30
0.0
 11
8.6356028235298936
 21
52.9999999999999929
 31
0.0
  0
LINE
  5
AE
100
AcDbEntity
100
AcDbLine
  8
0
 62
256
370
-1
  6
ByLayer
 10
4.936814921091127
 20
129.0
 30
0.0
 11
4.936814921091127
 21
129.0
 31
0.0
  0
LINE
  5
AF
100
AcDbEntity
100
AcDbLine
  8
0
 62
256
370
-1
  6
ByLayer
 10
4.936814921091127
 20
129.0
 30
0.0
 11
7.936814921091127
 21
129.0
 31
0.0
  0
LINE
  5
B0
100
AcDbEntity
100
AcDbLine
  8
0
 62
256
370
-1
  6
ByLayer
 10
7.936814921091127
 20
119.0
 30
0.0
 11
6.1194835007186299
 21
119.0
 31
0.0
  0
LINE
  5
B1
100
AcDbEntity
100
AcDbLine
  8
0
 62
256
370
-1
  6
ByLayer
 10
4.936814921091127
 20
109.0
 30
0.0
 11
7.936814921091127
 21
109.0
 31
0.0
  0
LINE
  5
B2
100
AcDbEntity
100
AcDbLine
  8
0
 62
256
370
-1
  6
ByLayer
 10
7.936814921091127
 20
99.0
 30
0.0
 11
4.936814921091127
 21
99.0
 31
0.0
  0
LINE
  5
B3
100
AcDbEntity
100
AcDbLine
  8
0
 62
256
370
-1
  6
ByLayer
 10
155.0
 20
50.0
 30
0.0
 11
155.0
 21
49.9999999999999929
 31
0.0
  0
LINE
  5
B4
100
AcDbEntity
100
AcDbLine
  8
0
 62
256
370
-1
  6
ByLayer
 10
155.0
 20
116.9743589743595606
 30
0.0
 11
152.0
 21
116.9743589743595606
 31
0.0
  0
LINE
  5
B5
100
AcDbEntity
100
AcDbLine
  8
0
 62
256
370
-1
  6
ByLayer
 10
152.0
 20
116.9743589743595606
 30
0.0
 11
152.0
 21
126.9743589743595606
 31
0.0
  0
LINE
  5
B6
100
AcDbEntity
100
AcDbLine
  8
0
 62
256
370
-1
  6
ByLayer
 10
155.0
 20
116.9743589743595606
 30
0.0
 11
155.0
 21
116.9743589743595606
 31
0.0
  0
LINE
  5
B7
100
AcDbEntity
100
AcDbLine
  8
0
 62
256
370
40
  6
DOT
 10
96.3167862266852381
 20
79.9999999999999858
 30
0.0
 11
96.1928263988533132
 21
79.9999999999999858
 31
0.0
  0
LINE
  5
B8
100
AcDbEntity
100
AcDbLine
  8
0
 62
256
370
40
  6
DOTX2
 10
96.3353342898145826
 20
276.5928981348668003
 30
0.0
 11
73.5696987087527816
 21
276.5928981348668003
 31
0.0
  0
LINE
  5
B9
100
AcDbEntity
100
AcDbLine
  8
0
 62
256
370
40
  6
DOTX2
 10
85.6828694404602658
 20
276.5928981348668003
 30
0.0
 11
74.1041032998575275
 21
276.5928981348668003
 31
0.0
  0
LINE
  5
BA
100
AcDbEntity
100
AcDbLine
  8
0
 62
256
370
40
  6
DOTX2
 10
101.5000000000000426
 20
266.5928981348668003
 30
0.0
 11
101.5000000000000426
 21
272.5928981348668003
 31
0.0
  0
LINE
  5
BB
100
AcDbEntity
100
AcDbLine
  8
0
 62
256
370
40
  6
DOTX2
 10
101.5000000000000426
 20
187.5928981348668287
 30
0.0
 11
111.5000000000000142
 21
187.5928981348668287
 31
0.0
  0
LINE
  5
BC
100
AcDbEntity
100
AcDbLine
  8
0
 62
256
370
40
  6
DOTX2
 10
58.5000000000000426
 20
272.5928981348668003
 30
0.0
 11
48.630817790531502
 21
272.5928981348668003
 31
0.0
  0
LINE
  5
BD
100
AcDbEntity
100
AcDbLine
  8
0
 62
256
370
40
  6
DOTX2
 10
48.630817790531502
 20
272.5928981348668003
 30
0.0
 11
48.630817790531502
 21
272.5928981348668003
 31
0.0
  0
LINE
  5
BE
100
AcDbEntity
100
AcDbLine
  8
0
 62
256
370
40
  6
DOTX2
 10
48.630817790531502
 20
197.5928981348668287
 30
0.0
 11
58.5000000000000426
 21
197.5928981348668287
 31
0.0
  0
LINE
  5
BF
100
AcDbEntity
100
AcDbLine
  8
0
 62
256
370
40
  6
DOTX2
 10
58.5000000000000426
 20
272.5928981348668003
 30
0.0
 11
48.5000000000000426
 21
272.5928981348668003
 31
0.0
  0
LINE
  5
C0
100
AcDbEntity
100
AcDbLine
  8
0
 62
256
370
40
  6
CONTINUOUS
 10
33.0000000000000426
 20
144.5928981348668287
 30
0.0
 11
33.0
 21
144.5928981348668287
 31
0.0
  0
LINE
  5
C1
100
AcDbEntity
100
AcDbLine
  8
0
 62
256
370
40
  6
CONTINUOUS
 10
45.0000000000000426
 20
276.5928981348668003
 30
0.0
 11
45.0000000000000426
 21
187.5928981348668287
 31
0.0
  0
LINE
  5
C2
100
AcDbEntity
100
AcDbLine
  8
0
 62
256
370
40
  6
CONTINUOUS
 10
115.0000000000000142
 20
179.5928981348668287
 30
0.0
 11
115.0000000000000142
 21
179.5928981348668287
 31
0.0
  0
LINE
  5
C3
100
AcDbEntity
100
AcDbLine
  8
0
 62
256
370
20
  6
CONTINUOUS
 10
60.0217577989683733
 20
131.9623070301306313
 30
0.0
 11
60.0217577989683733
 21
138.8027214997371743
 31
0.0
  0
LINE
  5
C4
100
AcDbEntity
100
AcDbLine
  8
0
 62
256
370
20
  6
CONTINUOUS
 10
50.0003709710860562
 20
139.0000000000000284
 30
0.0
 11
55.0218079077385482
 21
139.0000000000000284
 31
0.0
  0
LINE
  5
C5
100
AcDbEntity
100
AcDbLine
  8
0
 62
256
370
20
  6
CONTINUOUS
 10
82.0000000000000142
 20
85.6472424677197637
 30
0.0
 11
82.0000000000000142
 21
80.0
 31
0.0
  0
LINE
  5
C6
100
AcDbEntity
100
AcDbLine
  8
0
 62
256
370
20
  6
CONTINUOUS
 10
82.0000000000000142
 20
80.0
 30
0.0
 11
67.2637245337166831
 21
80.0
 31
0.0
  0
LINE
  5
C7
100
AcDbEntity
100
AcDbLine
  8
0
 62
256
370
20
  6
CONTINUOUS
 10
67.2637245337166831
 20
80.0
 30
0.0
 11
67.2637245337166831
 21
85.8646209386281782
 31
0.0
  0
LINE
  5
C8
100
AcDbEntity
100
AcDbLine
  8
0
 62
256
370
20
  6
CONTINUOUS
 10
67.2637245337166831
 20
85.8646209386281782
 30
0.0
 11
82.0000000000000142
 21
85.8646209386281782
 31
0.0
  0
LINE
  5
C9
100
AcDbEntity
100
AcDbLine
  8
0
 62
256
370
20
  6
CONTINUOUS
 10
96.3353342898145826
 20
85.8646209386281782
 30
0.0
 11
111.8686944045923752
 21
85.8646209386281782
 31
0.0
  0
LINE
  5
CA
100
AcDbEntity
100
AcDbLine
  8
0
 62
256
370
20
  6
CONTINUOUS
 10
111.8686944045923752
 20
85.8646209386281782
 30
0.0
 11
111.8686944045923752
 21
80.0
 31
0.0
  0
LINE
  5
CB
100
AcDbEntity
100
AcDbLine
  8
0
 62
256
370
20
  6
CONTINUOUS
 10
111.8686944045923752
 20
80.0
 30
0.0
 11
96.3353342898145826
 21
80.0
 31
0.0
  0
LINE
  5
CC
100
AcDbEntity
100
AcDbLine
  8
0
 62
256
370
20
  6
CONTINUOUS
 10
96.3353342898145826
 20
80.0
 30
0.0
 11
96.3353342898145826
 21
85.8646209386281498
 31
0.0
  0
LINE
  5
CD
100
AcDbEntity
100
AcDbLine
  8
0
 62
256
370
40
  6
CONTINUOUS
 10
50.0003709710860562
 20
138.9999999999999716
 30
0.0
 11
47.9999999999999858
 21
138.9999999999999716
 31
0.0
  0
LINE
  5
CE
100
AcDbEntity
100
AcDbLine
  8
0
 62
256
370
40
  6
CONTINUOUS
 10
47.9999999999999858
 20
138.9999999999999716
 30
0.0
 11
47.9999999999999858
 21
129.0
 31
0.0
  0
LINE
  5
CF
100
AcDbEntity
100
AcDbLine
  8
0
 62
256
370
40
  6
CONTINUOUS
 10
47.9999999999999858
 20
129.0
 30
0.0
 11
44.9999999999999858
 21
129.0
 31
0.0
  0
LINE
  5
D0
100
AcDbEntity
100
AcDbLine
  8
0
 62
256
370
40
  6
CONTINUOUS
 10
44.9999999999999858
 20
129.0
 30
0.0
 11
44.9999999999999858
 21
119.0000000000000284
 31
0.0
  0
LINE
  5
D1
100
AcDbEntity
100
AcDbLine
  8
0
 62
256
370
40
  6
CONTINUOUS
 10
44.9999999999999858
 20
119.0000000000000284
 30
0.0
 11
47.9999999999999716
 21
119.0000000000000284
 31
0.0
  0
LINE
  5
D2
100
AcDbEntity
100
AcDbLine
  8
0
 62
256
370
40
  6
CONTINUOUS
 10
47.9999999999999716
 20
119.0000000000000284
 30
0.0
 11
47.9999999999999716
 21
109.0000000000000142
 31
0.0
  0
LINE
  5
D3
100
AcDbEntity
100
AcDbLine
  8
0
 62
256
370
40
  6
CONTINUOUS
 10
47.9999999999999716
 20
109.0000000000000142
 30
0.0
 11
45.0000000000000142
 21
109.0000000000000142
 31
0.0
  0
LINE
  5
D4
100
AcDbEntity
100
AcDbLine
  8
0
 62
256
370
40
  6
CONTINUOUS
 10
45.0000000000000142
 20
109.0000000000000142
 30
0.0
 11
45.0000000000000142
 21
99.0
 31
0.0
  0
LINE
  5
D5
100
AcDbEntity
100
AcDbLine
  8
0
 62
256
370
40
  6
CONTINUOUS
 10
45.0000000000000142
 20
99.0
 30
0.0
 11
48.0000000000000142
 21
99.0
 31
0.0
  0
LINE
  5
D6
100
AcDbEntity
100
AcDbLine
  8
0
 62
256
370
40
  6
CONTINUOUS
 10
48.0000000000000142
 20
99.0
 30
0.0
 11
48.0000000000000142
 21
83.0000000000000284
 31
0.0
  0
LINE
  5
D7
100
AcDbEntity
100
AcDbLine
  8
0
 62
256
370
40
  6
CONTINUOUS
 10
48.0000000000000142
 20
83.0000000000000284
 30
0.0
 11
45.0000000000000142
 21
83.0000000000000284
 31
0.0
  0
LINE
  5
D8
100
AcDbEntity
100
AcDbLine
  8
0
 62
256
370
40
  6
CONTINUOUS
 10
45.0000000000000142
 20
83.0000000000000284
 30
0.0
 11
45.0000000000000142
 21
73.0
 31
0.0
  0
LINE
  5
D9
100
AcDbEntity
100
AcDbLine
  8
0
 62
256
370
40
  6
CONTINUOUS
 10
45.0000000000000142
 20
73.0
 30
0.0
 11
48.0000000000000142
 21
73.0
 31
0.0
  0
LINE
  5
DA
100
AcDbEntity
100
AcDbLine
  8
0
 62
256
370
40
  6
CONTINUOUS
 10
48.0000000000000142
 20
73.0
 30
0.0
 11
48.0000000000000142
 21
63.0000000000000213
 31
0.0
  0
LINE
  5
DB
100
AcDbEntity
100
AcDbLine
  8
0
 62
256
370
40
  6
CONTINUOUS
 10
48.0000000000000142
 20
63.0000000000000213
 30
0.0
 11
45.0
 21
63.0000000000000213
 31
0.0
  0
LINE
  5
DC
100
AcDbEntity
100
AcDbLine
  8
0
 62
256
370
40
  6
CONTINUOUS
 10
45.0
 20
63.0000000000000213
 30
0.0
 11
45.0
 21
50.1721872643289046
 31
0.0
  0
LINE
  5
DD
100
AcDbEntity
100
AcDbLine
  8
0
 62
256
370
40
  6
CONTINUOUS
 10
45.0
 20
50.1721872643289046
 30
0.0
 11
55.0
 21
50.1721872643289046
 31
0.0
  0
LINE
  5
DE
100
AcDbEntity
100
AcDbLine
  8
0
 62
256
370
40
  6
CONTINUOUS
 10
55.0
 20
50.1721872643289046
 30
0.0
 11
55.0
 21
52.8646209386281569
 31
0.0
  0
LINE
  5
DF
100
AcDbEntity
100
AcDbLine
  8
0
 62
256
370
40
  6
CONTINUOUS
 10
55.0
 20
52.8646209386281569
 30
0.0
 11
105.0
 21
52.8646209386281569
 31
0.0
  0
LINE
  5
E0
100
AcDbEntity
100
AcDbLine
  8
0
 62
256
370
40
  6
CONTINUOUS
 10
105.0
 20
52.8646209386281569
 30
0.0
 11
105.0
 21
49.8646209386281498
 31
0.0
  0
LINE
  5
E1
100
AcDbEntity
100
AcDbLine
  8
0
 62
256
370
40
  6
CONTINUOUS
 10
105.0
 20
49.8646209386281498
 30
0.0
 11
115.0
 21
49.8646209386281498
 31
0.0
  0
LINE
  5
E2
100
AcDbEntity
100
AcDbLine
  8
0
 62
256
370
40
  6
CONTINUOUS
 10
115.0
 20
49.8646209386281498
 30
0.0
 11
115.0
 21
60.0
 31
0.0
  0
LINE
  5
E3
100
AcDbEntity
100
AcDbLine
  8
0
 62
256
370
40
  6
CONTINUOUS
 10
115.0
 20
60.0
 30
0.0
 11
112.0
 21
60.0
 31
0.0
  0
LINE
  5
E4
100
AcDbEntity
100
AcDbLine
  8
0
 62
256
370
40
  6
CONTINUOUS
 10
112.0
 20
60.0
 30
0.0
 11
112.0
 21
70.0
 31
0.0
  0
LINE
  5
E5
100
AcDbEntity
100
AcDbLine
  8
0
 62
256
370
40
  6
CONTINUOUS
 10
112.0
 20
70.0
 30
0.0
 11
115.0
 21
70.0
 31
0.0
  0
LINE
  5
E6
100
AcDbEntity
100
AcDbLine
  8
0
 62
256
370
40
  6
CONTINUOUS
 10
115.0
 20
70.0
 30
0.0
 11
115.0
 21
80.0
 31
0.0
  0
LINE
  5
E7
100
AcDbEntity
100
AcDbLine
  8
0
 62
256
370
40
  6
CONTINUOUS
 10
115.0
 20
80.0
 30
0.0
 11
111.8686944045923752
 21
80.0
 31
0.0
  0
LINE
  5
E8
100
AcDbEntity
100
AcDbLine
  8
0
 62
256
370
40
  6
CONTINUOUS
 10
111.8686944045923752
 20
116.9743589743595749
 30
0.0
 11
115.0527903469078694
 21
116.9743589743595749
 31
0.0
  0
LINE
  5
E9
100
AcDbEntity
100
AcDbLine
  8
0
 62
256
370
40
  6
CONTINUOUS
 10
115.0527903469078694
 20
116.9743589743595749
 30
0.0
 11
115.0527903469078694
 21
126.9743589743595749
 31
0.0
  0
LINE
  5
EA
100
AcDbEntity
100
AcDbLine
  8
0
 62
256
370
40
  6
CONTINUOUS
 10
115.0527903469078694
 20
126.9743589743595749
 30
0.0
 11
112.0527903469078694
 21
126.9743589743595749
 31
0.0
  0
LINE
  5
EB
100
AcDbEntity
100
AcDbLine
  8
0
 62
256
370
40
  6
CONTINUOUS
 10
112.0527903469078694
 20
126.9743589743595749
 30
0.0
 11
112.0527903469078694
 21
139.0
 31
0.0
  0
LINE
  5
EC
100
AcDbEntity
100
AcDbLine
  8
0
 62
256
370
40
  6
CONTINUOUS
 10
112.0527903469078694
 20
139.0
 30
0.0
 11
47.9999999999999858
 21
139.0
 31
0.0
  0
LINE
  5
ED
100
AcDbEntity
100
AcDbLine
  8
0
 62
256
370
40
  6
CONTINUOUS
 10
111.8686944045923752
 20
116.9743589743595749
 30
0.0
 11
111.8686944045923752
 21
80.0
 31
0.0
  0
MTEXT
  5
EE
100
AcDbEntity
100
AcDbMText
  8
0
 62
256
370
-1
  6
ByLayer
 10
70.0
 20
120.0
 30
0.0
 40
5.0
 41
100.0
 71
1
 72
2
  1
INSIDE
  7
iso
 50
0.0
 73
1
 44
1.0
  0
MTEXT
  5
EF
100
AcDbEntity
100
AcDbMText
  8
0
 62
256
370
-1
  6
ByLayer
 10
70.0
 20
240.0
 30
0.0
 40
5.0
 41
100.0
 71
1
 72
2
  1
INSIDE
  7
iso
 50
0.0
 73
1
 44
1.0
  0
LINE
  5
F0
100
AcDbEntity
100
AcDbLine
  8
0
 62
0
370
-3
  6
CONTINUOUS
 10
48.5
 20
197.5929999999999893
 30
0.0
 11
111.5
 21
197.5929999999999893
 31
0.0
  0
LINE
  5
F1
100
AcDbEntity
100
AcDbLine
  8
0
 62
256
370
20
  6
CONTINUOUS
 10
101.5
 20
197.5929999999999893
 30
0.0
 11
101.5
 21
272.5930000000000177
 31
0.0
  0
LINE
  5
F2
100
AcDbEntity
100
AcDbLine
  8
0
 62
256
370
20
  6
CONTINUOUS
 10
111.5
 20
187.5929999999999893
 30
0.0
 11
111.5
 21
272.5459999999999923
 31
0.0
  0
LINE
  5
F3
100
AcDbEntity
100
AcDbLine
  8
0
 62
256
370
20
  6
CONTINUOUS
 10
91.5
 20
197.5929999999999893
 30
0.0
 11
91.5
 21
187.5929999999999893
 31
0.0
  0
LINE
  5
F4
100
AcDbEntity
100
AcDbLine
  8
0
 62
256
370
20
  6
CONTINUOUS
 10
111.5
 20
187.5929999999999893
 30
0.0
 11
48.5
 21
187.5929999999999893
 31
0.0
  0
LINE
  5
F5
100
AcDbEntity
100
AcDbLine
  8
0
 62
256
370
20
  6
CONTINUOUS
 10
48.5
 20
187.5929999999999893
 30
0.0
 11
48.5
 21
197.5929999999999893
 31
0.0
  0
LINE
  5
F6
100
AcDbEntity
100
AcDbLine
  8
0
 62
256
370
20
  6
CONTINUOUS
 10
48.6308000000000007
 20
272.5930000000000177
 30
0.0
 11
48.6308000000000007
 21
197.5929999999999893
 31
0.0
  0
LINE
  5
F7
100
AcDbEntity
100
AcDbLine
  8
0
 62
256
370
20
  6
CONTINUOUS
 10
111.5
 20
272.5459999999999923
 30
0.0
 11
101.5
 21
272.5459999999999923
 31
0.0
  0
LINE
  5
F8
100
AcDbEntity
100
AcDbLine
  8
0
 62
256
370
20
  6
CONTINUOUS
 10
86.0
 20
251.5929999999999893
 30
0.0
 11
86.0
 21
276.5930000000000177
 31
0.0
  0
LINE
  5
F9
100
AcDbEntity
100
AcDbLine
  8
0
 62
256
370
20
  6
CONTINUOUS
 10
58.5
 20
272.5930000000000177
 30
0.0
 11
48.5
 21
272.5930000000000177
 31
0.0
  0
LINE
  5
FA
100
AcDbEntity
100
AcDbLine
  8
0
 62
256
370
20
  6
CONTINUOUS
 10
74.0
 20
276.5930000000000177
 30
0.0
 11
74.0
 21
251.5929999999999893
 31
0.0
  0
LINE
  5
FB
100
AcDbEntity
100
AcDbLine
  8
0
 62
256
370
20
  6
CONTINUOUS
 10
58.5
 20
197.5929999999999893
 30
0.0
 11
58.5
 21
272.5930000000000177
 31
0.0
  0
LINE
  5
FC
100
AcDbEntity
100
AcDbLine
  8
0
 62
256
370
40
  6
ByLayer
 10
45.0
 20
187.5929999999999893
 30
0.0
 11
55.0
 21
187.5929999999999893
 31
0.0
  0
LINE
  5
FD
100
AcDbEntity
100
AcDbLine
  8
0
 62
256
370
40
  6
ByLayer
 10
55.0
 20
184.5929999999999893
 30
0.0
 11
65.0
 21
184.5929999999999893
 31
0.0
  0
LINE
  5
FE
100
AcDbEntity
100
AcDbLine
  8
0
 62
256
370
40
  6
ByLayer
 10
65.0
 20
187.5929999999999893
 30
0.0
 11
95.0
 21
187.5929999999999893
 31
0.0
  0
LINE
  5
FF
100
AcDbEntity
100
AcDbLine
  8
0
 62
256
370
40
  6
ByLayer
 10
55.0
 20
187.5929999999999893
 30
0.0
 11
55.0
 21
184.5929999999999893
 31
0.0
  0
LINE
  5
100
100
AcDbEntity
100
AcDbLine
  8
0
 62
256
370
40
  6
ByLayer
 10
65.0
 20
184.5929999999999893
 30
0.0
 11
65.0
 21
187.5929999999999893
 31
0.0
  0
LINE
  5
101
100
AcDbEntity
100
AcDbLine
  8
0
 62
256
370
40
  6
ByLayer
 10
95.0
 20
187.5929999999999893
 30
0.0
 11
95.0
 21
184.5929999999999893
 31
0.0
  0
LINE
  5
102
100
AcDbEntity
100
AcDbLine
  8
0
 62
256
370
40
  6
ByLayer
 10
95.0
 20
184.5929999999999893
 30
0.0
 11
105.0
 21
184.5929999999999893
 31
0.0
  0
LINE
  5
103
100
AcDbEntity
100
AcDbLine
  8
0
 62
256
370
40
  6
ByLayer
 10
105.0
 20
184.5929999999999893
 30
0.0
 11
105.0
 21
187.5929999999999893
 31
0.0
  0
LINE
  5
104
100
AcDbEntity
100
AcDbLine
  8
0
 62
256
370
40
  6
ByLayer
 10
105.0
 20
187.5929999999999893
 30
0.0
 11
115.0
 21
187.5929999999999893
 31
0.0
  0
LINE
  5
105
100
AcDbEntity
100
AcDbLine
  8
0
 62
256
370
40
  6
ByLayer
 10
115.0
 20
187.5929999999999893
 30
0.0
 11
115.0
 21
276.5930000000000177
 31
0.0
  0
LINE
  5
106
100
AcDbEntity
100
AcDbLine
  8
0
 62
256
370
40
  6
ByLayer
 10
115.0
 20
276.5930000000000177
 30
0.0
 11
45.0
 21
276.5930000000000177
 31
0.0
  0
LINE
  5
107
100
AcDbEntity
100
AcDbLine
  8
0
 62
256
370
40
  6
ByLayer
 10
45.0
 20
179.5929999999999893
 30
0.0
 11
55.0
 21
179.5929999999999893
 31
0.0
  0
LINE
  5
108
100
AcDbEntity
100
AcDbLine
  8
0
 62
256
370
40
  6
ByLayer
 10
55.0
 20
176.5929999999999893
 30
0.0
 11
65.0
 21
176.5929999999999893
 31
0.0
  0
LINE
  5
109
100
AcDbEntity
100
AcDbLine
  8
0
 62
256
370
40
  6
ByLayer
 10
55.0
 20
179.5929999999999893
 30
0.0
 11
55.0
 21
176.5929999999999893
 31
0.0
  0
LINE
  5
10A
100
AcDbEntity
100
AcDbLine
  8
0
 62
256
370
40
  6
ByLayer
 10
65.0
 20
179.5929999999999893
 30
0.0
 11
65.0
 21
176.5929999999999893
 31
0.0
  0
LINE
  5
10B
100
AcDbEntity
100
AcDbLine
  8
0
 62
256
370
40
  6
ByLayer
 10
65.0
 20
179.5929999999999893
 30
0.0
 11
95.0
 21
179.5929999999999893
 31
0.0
  0
LINE
  5
10C
100
AcDbEntity
100
AcDbLine
  8
0
 62
256
370
40
  6
ByLayer
 10
95.0
 20
179.5929999999999893
 30
0.0
 11
95.0
 21
176.5929999999999893
 31
0.0
  0
LINE
  5
10D
100
AcDbEntity
100
AcDbLine
  8
0
 62
256
370
40
  6
ByLayer
 10
95.0
 20
176.5929999999999893
 30
0.0
 11
105.0
 21
176.5929999999999893
 31
0.0
  0
LINE
  5
10E
100
AcDbEntity
100
AcDbLine
  8
0
 62
256
370
40
  6
ByLayer
 10
105.0
 20
179.5929999999999893
 30
0.0
 11
105.0
 21
176.5929999999999893
 31
0.0
  0
LINE
  5
10F
100
AcDbEntity
100
AcDbLine
  8
0
 62
256
370
40
  6
ByLayer
 10
105.0
 20
179.5929999999999893
 30
0.0
 11
115.0
 21
179.5929999999999893
 31
0.0
  0
LINE
  5
110
100
AcDbEntity
100
AcDbLine
  8
0
 62
256
370
40
  6
ByLayer
 10
4.9368100000000004
 20
139.0
 30
0.0
 11
39.9367999999999981
 21
139.0
 31
0.0
  0
LINE
  5
111
100
AcDbEntity
100
AcDbLine
  8
0
 62
256
370
40
  6
ByLayer
 10
39.9367999999999981
 20
139.0
 30
0.0
 11
39.9367999999999981
 21
53.0
 31
0.0
  0
LINE
  5
112
100
AcDbEntity
100
AcDbLine
  8
0
 62
256
370
40
  6
ByLayer
 10
4.9368100000000004
 20
139.0
 30
0.0
 11
4.9368100000000004
 21
129.0
 31
0.0
  0
LINE
  5
113
100
AcDbEntity
100
AcDbLine
  8
0
 62
256
370
40
  6
ByLayer
 10
7.9368100000000004
 20
119.0
 30
0.0
 11
7.9368100000000004
 21
129.0
 31
0.0
  0
LINE
  5
114
100
AcDbEntity
100
AcDbLine
  8
0
 62
256
370
40
  6
ByLayer
 10
4.9368100000000004
 20
129.0
 30
0.0
 11
7.9368100000000004
 21
129.0
 31
0.0
  0
LINE
  5
115
100
AcDbEntity
100
AcDbLine
  8
0
 62
256
370
40
  6
ByLayer
 10
4.9368100000000004
 20
119.0
 30
0.0
 11
4.9368100000000004
 21
109.0
 31
0.0
  0
LINE
  5
116
100
AcDbEntity
100
AcDbLine
  8
0
 62
256
370
40
  6
ByLayer
 10
4.9368100000000004
 20
119.0
 30
0.0
 11
7.9368100000000004
 21
119.0
 31
0.0
  0
LINE
  5
117
100
AcDbEntity
100
AcDbLine
  8
0
 62
256
370
40
  6
ByLayer
 10
4.9368100000000004
 20
109.0
 30
0.0
 11
7.9368100000000004
 21
109.0
 31
0.0
  0
LINE
  5
118
100
AcDbEntity
100
AcDbLine
  8
0
 62
256
370
40
  6
ByLayer
 10
7.9368100000000004
 20
109.0
 30
0.0
 11
7.9368100000000004
 21
99.0
 31
0.0
  0
LINE
  5
119
100
AcDbEntity
100
AcDbLine
  8
0
 62
256
370
40
  6
ByLayer
 10
4.9368100000000004
 20
99.0
 30
0.0
 11
7.9368100000000004
 21
99.0
 31
0.0
  0
LINE
  5
11A
100
AcDbEntity
100
AcDbLine
  8
0
 62
256
370
40
  6
ByLayer
 10
4.9368100000000004
 20
99.0
 30
0.0
 11
4.9368100000000004
 21
83.0
 31
0.0
  0
LINE
  5
11B
100
AcDbEntity
100
AcDbLine
  8
0
 62
256
370
40
  6
ByLayer
 10
4.9368100000000004
 20
83.0
 30
0.0
 11
7.9368100000000004
 21
83.0
 31
0.0
  0
LINE
  5
11C
100
AcDbEntity
100
AcDbLine
  8
0
 62
256
370
40
  6
ByLayer
 10
7.9368100000000004
 20
83.0
 30
0.0
 11
7.9368100000000004
 21
73.0
 31
0.0
  0
LINE
  5
11D
100
AcDbEntity
100
AcDbLine
  8
0
 62
256
370
40
  6
ByLayer
 10
4.9368100000000004
 20
73.0
 30
0.0
 11
7.9368100000000004
 21
73.0
 31
0.0
  0
LINE
  5
11E
100
AcDbEntity
100
AcDbLine
  8
0
 62
256
370
40
  6
ByLayer
 10
4.9368100000000004
 20
63.0
 30
0.0
 11
4.9368100000000004
 21
73.0
 31
0.0
  0
LINE
  5
11F
100
AcDbEntity
100
AcDbLine
  8
0
 62
256
370
40
  6
ByLayer
 10
7.9368100000000004
 20
63.0
 30
0.0
 11
4.9368100000000004
 21
63.0
 31
0.0
  0
LINE
  5
120
100
AcDbEntity
100
AcDbLine
  8
0
 62
256
370
40
  6
ByLayer
 10
7.9368100000000004
 20
53.0
 30
0.0
 11
7.9368100000000004
 21
63.0
 31
0.0
  0
LINE
  5
121
100
AcDbEntity
100
AcDbLine
  8
0
 62
256
370
40
  6
ByLayer
 10
7.9368100000000004
 20
53.0
 30
0.0
 11
18.529399999999999
 21
53.0
 31
0.0
  0
LINE
  5
122
100
AcDbEntity
100
AcDbLine
  8
0
 62
256
370
40
  6
ByLayer
 10
18.529399999999999
 20
53.0
 30
0.0
 11
18.529399999999999
 21
50.0
 31
0.0
  0
LINE
  5
123
100
AcDbEntity
100
AcDbLine
  8
0
 62
256
370
40
  6
ByLayer
 10
18.529399999999999
 20
50.0
 30
0.0
 11
27.0
 21
50.0
 31
0.0
  0
LINE
  5
124
100
AcDbEntity
100
AcDbLine
  8
0
 62
256
370
40
  6
ByLayer
 10
27.0
 20
50.0
 30
0.0
 11
27.0
 21
53.0
 31
0.0
  0
LINE
  5
125
100
AcDbEntity
100
AcDbLine
  8
0
 62
256
370
40
  6
ByLayer
 10
27.0
 20
53.0
 30
0.0
 11
37.0
 21
53.0
 31
0.0
  0
LINE
  5
126
100
AcDbEntity
100
AcDbLine
  8
0
 62
256
370
40
  6
ByLayer
 10
39.9367999999999981
 20
53.0
 30
0.0
 11
36.9367999999999981
 21
53.0
 31
0.0
  0
LINE
  5
127
100
AcDbEntity
100
AcDbLine
  8
0
 62
256
370
40
  6
ByLayer
 10
120.0
 20
50.0
 30
0.0
 11
120.0
 21
139.1119999999999948
 31
0.0
  0
LINE
  5
128
100
AcDbEntity
100
AcDbLine
  8
0
 62
256
370
40
  6
ByLayer
 10
120.0
 20
139.1119999999999948
 30
0.0
 11
155.0
 21
139.1119999999999948
 31
0.0
  0
LINE
  5
129
100
AcDbEntity
100
AcDbLine
  8
0
 62
256
370
40
  6
ByLayer
 10
133.0
 20
50.0
 30
0.0
 11
123.0
 21
50.0
 31
0.0
  0
LINE
  5
12A
100
AcDbEntity
100
AcDbLine
  8
0
 62
256
370
40
  6
ByLayer
 10
55.0
 20
42.3063000000000002
 30
0.0
 11
105.0
 21
42.3063000000000002
 31
0.0
  0
LINE
  5
12B
100
AcDbEntity
100
AcDbLine
  8
0
 62
256
370
40
  6
ByLayer
 10
55.0
 20
39.3063000000000002
 30
0.0
 11
45.0
 21
39.3063000000000002
 31
0.0
  0
LINE
  5
12C
100
AcDbEntity
100
AcDbLine
  8
0
 62
256
370
40
  6
ByLayer
 10
55.0
 20
42.3063000000000002
 30
0.0
 11
55.0
 21
39.3063000000000002
 31
0.0
  0
LINE
  5
12D
100
AcDbEntity
100
AcDbLine
  8
0
 62
256
370
40
  6
ByLayer
 10
45.0
 20
39.3063000000000002
 30
0.0
 11
45.0
 21
20.3063000000000002
 31
0.0
  0
LINE
  5
12E
100
AcDbEntity
100
AcDbLine
  8
0
 62
256
370
40
  6
ByLayer
 10
45.0
 20
20.3063000000000002
 30
0.0
 11
48.0
 21
20.3063000000000002
 31
0.0
  0
LINE
  5
12F
100
AcDbEntity
100
AcDbLine
  8
0
 62
256
370
40
  6
ByLayer
 10
105.0
 20
42.3063000000000002
 30
0.0
 11
105.0
 21
39.3063000000000002
 31
0.0
  0
LINE
  5
130
100
AcDbEntity
100
AcDbLine
  8
0
 62
256
370
40
  6
ByLayer
 10
105.0
 20
39.3063000000000002
 30
0.0
 11
115.0
 21
39.3063000000000002
 31
0.0
  0
LINE
  5
131
100
AcDbEntity
100
AcDbLine
  8
0
 62
256
370
40
  6
ByLayer
 10
115.0
 20
39.3063000000000002
 30
0.0
 11
115.0
 21
29.3063000000000002
 31
0.0
  0
LINE
  5
132
100
AcDbEntity
100
AcDbLine
  8
0
 62
256
370
40
  6
ByLayer
 10
112.0
 20
20.3063000000000002
 30
0.0
 11
112.0
 21
29.3063000000000002
 31
0.0
  0
LINE
  5
133
100
AcDbEntity
100
AcDbLine
  8
0
 62
256
370
40
  6
ByLayer
 10
115.0
 20
29.3063000000000002
 30
0.0
 11
112.0
 21
29.3063000000000002
 31
0.0
  0
LINE
  5
134
100
AcDbEntity
100
AcDbLine
  8
0
 62
256
370
40
  6
ByLayer
 10
48.0
 20
10.3063000000000002
 30
0.0
 11
48.0
 21
20.3063000000000002
 31
0.0
  0
LINE
  5
135
100
AcDbEntity
100
AcDbLine
  8
0
 62
256
370
40
  6
ByLayer
 10
48.0
 20
7.3063099999999999
 30
0.0
 11
48.0
 21
10.3063000000000002
 31
0.0
  0
LINE
  5
136
100
AcDbEntity
100
AcDbLine
  8
0
 62
256
370
40
  6
ByLayer
 10
48.0
 20
7.3063099999999999
 30
0.0
 11
115.0
 21
7.3063099999999999
 31
0.0
  0
LINE
  5
137
100
AcDbEntity
100
AcDbLine
  8
0
 62
256
370
40
  6
ByLayer
 10
115.0
 20
10.3063000000000002
 30
0.0
 11
115.0
 21
20.3063000000000002
 31
0.0
  0
LINE
  5
138
100
AcDbEntity
100
AcDbLine
  8
0
 62
256
370
40
  6
ByLayer
 10
115.0
 20
7.3063099999999999
 30
0.0
 11
115.0
 21
10.3063000000000002
 31
0.0
  0
LINE
  5
139
100
AcDbEntity
100
AcDbLine
  8
0
 62
256
370
40
  6
ByLayer
 10
115.0
 20
20.3063000000000002
 30
0.0
 11
112.0
 21
20.3063000000000002
 31
0.0
  0
LINE
  5
13A
100
AcDbEntity
100
AcDbLine
  8
0
 62
256
370
40
  6
ByLayer
 10
123.0
 20
50.0
 30
0.0
 11
120.0
 21
50.0
 31
0.0
  0
LINE
  5
13B
100
AcDbEntity
100
AcDbLine
  8
0
 62
256
370
40
  6
ByLayer
 10
152.0
 20
52.8130000000000024
 30
0.0
 11
133.0
 21
52.8130000000000024
 31
0.0
  0
LINE
  5
13C
100
AcDbEntity
100
AcDbLine
  8
0
 62
256
370
40
  6
ByLayer
 10
133.0
 20
50.0
 30
0.0
 11
133.0
 21
53.0
 31
0.0
  0
LINE
  5
13D
100
AcDbEntity
100
AcDbLine
  8
0
 62
256
370
40
  6
ByLayer
 10
151.9960000000000093
 20
60.0
 30
0.0
 11
151.9960000000000093
 21
52.8130000000000024
 31
0.0
  0
LINE
  5
13E
100
AcDbEntity
100
AcDbLine
  8
0
 62
256
370
40
  6
ByLayer
 10
155.0
 20
60.0
 30
0.0
 11
152.0
 21
60.0
 31
0.0
  0
LINE
  5
13F
100
AcDbEntity
100
AcDbLine
  8
0
 62
256
370
40
  6
ByLayer
 10
155.0
 20
60.0
 30
0.0
 11
155.0
 21
70.0
 31
0.0
  0
LINE
  5
140
100
AcDbEntity
100
AcDbLine
  8
0
 62
256
370
40
  6
ByLayer
 10
155.0
 20
70.0
 30
0.0
 11
152.0
 21
70.0
 31
0.0
  0
LINE
  5
141
100
AcDbEntity
100
AcDbLine
  8
0
 62
256
370
40
  6
ByLayer
 10
151.9960000000000093
 20
70.0
 30
0.0
 11
151.9960000000000093
 21
80.0
 31
0.0
  0
LINE
  5
142
100
AcDbEntity
100
AcDbLine
  8
0
 62
256
370
40
  6
ByLayer
 10
155.0
 20
80.0
 30
0.0
 11
152.0
 21
80.0
 31
0.0
  0
LINE
  5
143
100
AcDbEntity
100
AcDbLine
  8
0
 62
256
370
40
  6
ByLayer
 10
155.0
 20
116.9740000000000038
 30
0.0
 11
155.0
 21
80.0
 31
0.0
  0
LINE
  5
144
100
AcDbEntity
100
AcDbLine
  8
0
 62
256
370
40
  6
ByLayer
 10
155.0
 20
116.9740000000000038
 30
0.0
 11
152.0
 21
116.9740000000000038
 31
0.0
  0
LINE
  5
145
100
AcDbEntity
100
AcDbLine
  8
0
 62
256
370
40
  6
ByLayer
 10
152.0
 20
116.9740000000000038
 30
0.0
 11
152.0
 21
126.9740000000000038
 31
0.0
  0
LINE
  5
146
100
AcDbEntity
100
AcDbLine
  8
0
 62
256
370
40
  6
ByLayer
 10
152.0
 20
126.9740000000000038
 30
0.0
 11
155.0
 21
126.9740000000000038
 31
0.0
  0
LINE
  5
147
100
AcDbEntity
100
AcDbLine
  8
0
 62
256
370
40
  6
ByLayer
 10
155.0
 20
139.0
 30
0.0
 11
155.0
 21
126.9740000000000038
 31
0.0
  0
LINE
  5
148
100
AcDbEntity
100
AcDbLine
  8
0
 62
256
370
20
  6
CONTINUOUS
 10
74.1041000000000025
 20
266.5930000000000177
 30
0.0
 11
86.0
 21
266.5930000000000177
 31
0.0
  0
MTEXT
  5
149
100
AcDbEntity
100
AcDbMText
  8
0
 62
256
370
20
  6
ByLayer
 10
76.7401660997340542
 20
257.7156380247753305
 30
0.0
 40
3.0
 41
100.0
 71
5
 72
2
  1
GLUE
  7
iso
 50
90.0
 73
1
 44
1.0
  0
MTEXT
  5
14A
100
AcDbEntity
100
AcDbMText
  8
0
 62
256
370
20
  6
ByLayer
 10
80.4335430777961164
 20
271.2580202776695728
 30
0.0
 40
3.0
 41
100.0
 71
5
 72
2
  1
2
  7
iso
 50
90.0
 73
1
 44
1.0
  0
MTEXT
  5
14B
100
AcDbEntity
100
AcDbMText
  8
0
 62
256
370
20
  6
ByLayer
 10
82.4854191767194891
 20
258.946763684129337
 30
0.0
 40
3.0
 41
100.0
 71
5
 72
2
  1
2
  7
iso
 50
90.0
 73
1
 44
1.0
  0
MTEXT
  5
14C
100
AcDbEntity
100
AcDbMText
  8
0
 62
256
370
20
  6
ByLayer
 10
54.1695290115771044
 20
232.2723743981260611
 30
0.0
 40
3.0
 41
100.0
 71
4
 72
2
  1
GLUE 1
  7
iso
 50
90.0
 73
1
 44
1.0
  0
MTEXT
  5
14D
100
AcDbEntity
100
AcDbMText
  8
0
 62
256
370
20
  6
ByLayer
 10
71.4052882425334587
 20
82.8957943965043569
 30
0.0
 40
2.0
 41
100.0
 71
4
 72
2
  1
GLUE 5
  7
iso
 50
0.0
 73
1
 44
1.0
  0
MTEXT
  5
14E
100
AcDbEntity
100
AcDbMText
  8
0
 62
256
370
20
  6
ByLayer
 10
100.5419288472453871
 20
82.8957943965043569
 30
0.0
 40
2.0
 41
100.0
 71
4
 72
2
  1
GLUE 5
  7
iso
 50
0.0
 73
1
 44
1.0
  0
MTEXT
  5
14F
100
AcDbEntity
100
AcDbMText
  8
0
 62
256
370
20
  6
ByLayer
 10
64.4289095061939747
 20
192.8763532987972553
 30
0.0
 40
3.0
 41
100.0
 71
4
 72
2
  1
GLUE 3
  7
iso
 50
0.0
 73
1
 44
1.0
  0
MTEXT
  5
150
100
AcDbEntity
100
AcDbMText
  8
cotes
 62
256
370
-1
  6
ByLayer
 10
-9.4386335311572704
 20
176.8717848664688574
 30
0.0
 40
2.0
 41
100.0
 71
4
 72
2
  1
Raspberry Pi 3 mm \PCardboard Box\PHenri Jubin\PJuly 2012\PGPL V3
  7
iso
 50
0.0
 73
1
 44
1.0
  0
MTEXT
  5
151
100
AcDbEntity
100
AcDbMText
  8
cotes
 62
256
370
-1
  6
ByLayer
 10
-10.2593842729970337
 20
178.1029109792285112
 30
0.0
 40
2.0
 41
100.0
 71
4
 72
2
  1
Raspberry Pi 3 mm \PCardboard Box\PHenri Jubin\PJuly 2012\PGPL V3
  7
iso
 50
0.0
 73
1
 44
1.0
  0
MTEXT
  5
152
100
AcDbEntity
100
AcDbMText
  8
cotes
 62
256
370
-1
  6
ByLayer
 10
-11.9008857566765585
 20
178.9236617210682709
 30
0.0
 40
2.0
 41
100.0
 71
4
 72
2
  1
Raspberry Pi 3 mm \PCardboard Box\PHenri Jubin\PJuly 2012\PGPL V3
  7
iso
 50
0.0
 73
1
 44
1.0
  0
MTEXT
  5
153
100
AcDbEntity
100
AcDbMText
  8
cotes
 62
256
370
-1
  6
ByLayer
 10
-15.5942640949554914
 20
177.6925356083086172
 30
0.0
 40
3.0
 41
100.0
 71
4
 72
2
  1
Raspberry Pi 3 mm \PCardboard Box\PHenri Jubin\PJuly 2012\PGPL V3
  7
iso
 50
0.0
 73
1
 44
1.0
  0
MTEXT
  5
154
100
AcDbEntity
100
AcDbMText
  8
cotes
 62
256
370
-1
  6
ByLayer
 10
-22.5706454005934738
 20
145.2728813056380091
 30
0.0
 40
3.0
 41
100.0
 71
4
 72
2
  1
Raspberry Pi 3 mm \PCardboard Box\PHenri Jubin\PJuly 2012\PGPL V3
  7
iso
 50
0.0
 73
1
 44
1.0
  0
MTEXT
  5
155
100
AcDbEntity
100
AcDbMText
  8
cotes
 62
256
370
-1
  6
ByLayer
 10
-33.2404050445103891
 20
180.5651632047477904
 30
0.0
 40
3.0
 41
100.0
 71
4
 72
2
  1
Raspberry Pi 3 mm \PCardboard Box\PHenri Jubin\PJuly 2012\PGPL V3
  7
iso
 50
0.0
 73
1
 44
1.0
  0
MTEXT
  5
156
100
AcDbEntity
100
AcDbMText
  8
cotes
 62
256
370
-1
  6
ByLayer
 10
-12.3112611275964401
 20
179.7444124629080306
 30
0.0
 40
3.0
 41
100.0
 71
4
 72
2
  1
Raspberry Pi 3 mm \PCardboard Box\PHenri Jubin\PJuly 2012\PGPL V3
  7
iso
 50
0.0
 73
1
 44
1.0
  0
MTEXT
  5
157
100
AcDbEntity
100
AcDbMText
  8
cotes
 62
256
370
-1
  6
ByLayer
 10
-2.8726275964391692
 20
159.6360192878338466
 30
0.0
 40
3.0
 41
100.0
 71
4
 72
2
  1
Raspberry Pi 3 mm \PCardboard Box\PHenri Jubin\PJuly 2012\PGPL V3
  7
iso
 50
0.0
 73
1
 44
1.0
  0
MTEXT
  5
158
100
AcDbEntity
100
AcDbMText
  8
cotes
 62
256
370
-1
  6
ByLayer
 10
-2.8726275964391692
 20
159.6360192878338466
 30
0.0
 40
3.0
 41
100.0
 71
4
 72
2
  1
Raspberry Pi 3 mm \PCardboard Box\PHenri Jubin\PJuly 2012\PGPL V3
  7
iso
 50
0.0
 73
1
 44
1.0
  0
MTEXT
  5
159
100
AcDbEntity
100
AcDbMText
  8
cotes
 62
256
370
-1
  6
ByLayer
 10
-7.3867566765578641
 20
164.1501483679525393
 30
0.0
 40
3.0
 41
100.0
 71
4
 72
2
  1
Raspberry Pi 3 mm \PCardboard Box\PHenri Jubin\PJuly 2012\PGPL V3
  7
iso
 50
0.0
 73
1
 44
1.0
  0
MTEXT
  5
15A
100
AcDbEntity
100
AcDbMText
  8
cotes
 62
256
370
-1
  6
ByLayer
 10
-8.2075074183976273
 20
162.9190222551928855
 30
0.0
 40
3.0
 41
100.0
 71
4
 72
2
  1
Raspberry Pi 3 mm \PCardboard Box\PHenri Jubin\PJuly 2012\PGPL V3
  7
iso
 50
0.0
 73
1
 44
1.0
  0
MTEXT
  5
15B
100
AcDbEntity
100
AcDbMText
  8
cotes
 62
256
370
-1
  6
ByLayer
 10
-29.9574020771513396
 20
174.4095326409495783
 30
0.0
 40
3.0
 41
100.0
 71
4
 72
2
  1
Raspberry Pi 3 mm \PCardboard Box\PHenri Jubin\PJuly 2012\PGPL V3
  7
iso
 50
0.0
 73
1
 44
1.0
  0
MTEXT
  5
15C
100
AcDbEntity
100
AcDbMText
  8
cotes
 62
256
370
-1
  6
ByLayer
 10
-23.3913961424332371
 20
180.9755385756676844
 30
0.0
 40
3.0
 41
100.0
 71
4
 72
2
  1
Raspberry Pi 3 mm \PCardboard Box\PHenri Jubin\PJuly 2012\PGPL V3
  7
iso
 50
0.0
 73
1
 44
1.0
  0
MTEXT
  5
15D
100
AcDbEntity
100
AcDbMText
  8
cotes
 62
256
370
-1
  6
ByLayer
 10
-22.9810207715133537
 20
180.1547878338278963
 30
0.0
 40
3.0
 41
100.0
 71
4
 72
2
  1
Raspberry Pi 3 mm \PCardboard Box\PHenri Jubin\PJuly 2012\PGPL V3
  7
iso
 50
0.0
 73
1
 44
1.0
  0
MTEXT
  5
15E
100
AcDbEntity
100
AcDbMText
  8
0
 62
256
370
-1
  6
ByLayer
 10
77.9713204747774569
 20
281.1071290801187388
 30
0.0
 40
2.0
 41
100.0
 71
4
 72
2
  1
1 layer\Pside
  7
iso
 50
0.0
 73
1
 44
1.0
  0
MTEXT
  5
15F
100
AcDbEntity
100
AcDbMText
  8
0
 62
256
370
-1
  6
ByLayer
 10
75.5090682492581635
 20
247.8667240356083425
 30
0.0
 40
2.0
 41
100.0
 71
4
 72
2
  1
5 layers\Pside
  7
iso
 50
0.0
 73
1
 44
1.0
  0
LINE
  5
160
100
AcDbEntity
100
AcDbLine
  8
0
 62
256
370
-1
  6
ByLayer
 10
74.0
 20
251.5929999999999893
 30
0.0
 11
86.0
 21
251.5929999999999893
 31
0.0
  0
MTEXT
  5
161
100
AcDbEntity
100
AcDbMText
  8
0
 62
256
370
20
  6
ByLayer
 10
92.934949994124338
 20
193.1383370867277165
 30
0.0
 40
3.0
 41
100.0
 71
4
 72
2
  1
GLUE 3a
  7
iso
 50
0.0
 73
1
 44
1.0
  0
LINE
  5
162
100
AcDbEntity
100
AcDbLine
  8
0
 62
256
370
-1
  6
ByLayer
 10
60.0217577989683733
 20
107.1740258297924839
 30
0.0
 11
60.0217577989683733
 21
138.8027214997371743
 31
0.0
  0
MTEXT
  5
163
100
AcDbEntity
100
AcDbMText
  8
0
 62
256
370
20
  6
ByLayer
 10
57.4455709546989084
 20
128.1596021832418728
 30
0.0
 40
2.0
 41
100.0
 71
4
 72
2
  1
GLUE 6
  7
iso
 50
90.0
 73
1
 44
1.0
  0
LINE
  5
164
100
AcDbEntity
100
AcDbLine
  8
0
 62
256
370
-1
  6
ByLayer
 10
59.9744234881900482
 20
122.9072266103266884
 30
0.0
 11
57.4194592588725357
 21
122.3693394041545872
 31
0.0
  0
LINE
  5
165
100
AcDbEntity
100
AcDbLine
  8
0
 62
256
370
-1
  6
ByLayer
 10
57.4194592588725357
 20
122.3693394041545872
 30
0.0
 11
57.4194592588725357
 21
119.2764879686649664
 31
0.0
  0
LINE
  5
166
100
AcDbEntity
100
AcDbLine
  8
0
 62
256
370
-1
  6
ByLayer
 10
57.4194592588725357
 20
119.2764879686649664
 30
0.0
 11
60.108895289733077
 21
118.6041289609498222
 31
0.0
  0
MTEXT
  5
167
100
AcDbEntity
100
AcDbMText
  8
0
 62
256
370
-1
  6
ByLayer
 10
61.588085106706373
 20
116.7215237393474467
 30
0.0
 40
2.0
 41
100.0
 71
4
 72
2
  1
Indent
  7
iso
 50
90.0
 73
1
 44
1.0
  0
MTEXT
  5
168
100
AcDbEntity
100
AcDbMText
  8
0
 62
256
370
40
  6
ByLayer
 10
133.7823709198819984
 20
96.4382121661726046
 30
0.0
 40
3.0
 41
100.0
 71
4
 72
2
  1
DVI
  7
iso
 50
90.0
 73
1
 44
1.0
  0
MTEXT
  5
169
100
AcDbEntity
100
AcDbMText
  8
0
 62
256
370
40
  6
ByLayer
 10
34.4715311572702063
 20
103.8249688427305131
 30
0.0
 40
3.0
 41
100.0
 71
4
 72
2
  1
Video
  7
iso
 50
-90.0
 73
1
 44
1.0
  0
MTEXT
  5
16A
100
AcDbEntity
100
AcDbMText
  8
0
 62
256
370
40
  6
ByLayer
 10
34.0611557863503265
 20
123.1126112759650368
 30
0.0
 40
3.0
 41
100.0
 71
4
 72
2
  1
Audio
  7
iso
 50
-90.0
 73
1
 44
1.0
  0
LINE
  5
16B
100
AcDbEntity
100
AcDbLine
  8
0
 62
256
370
20
  6
ByLayer
 10
70.8666394131755055
 20
139.0
 30
0.0
 11
71.1355830162615632
 21
139.0
 31
0.0
  0
LINE
  5
16C
100
AcDbEntity
100
AcDbLine
  8
0
 62
256
370
20
  6
ByLayer
 10
71.1355830162615632
 20
139.0
 30
0.0
 11
71.0011112147185486
 21
139.0
 31
0.0
  0
LINE
  5
16D
100
AcDbEntity
100
AcDbLine
  8
0
 62
256
370
20
  6
ByLayer
 10
71.0011112147185486
 20
139.0
 30
0.0
 11
71.0011112147185486
 21
139.0
 31
0.0
  0
LINE
  5
16E
100
AcDbEntity
100
AcDbLine
  8
0
 62
256
370
20
  6
ByLayer
 10
71.0011112147185486
 20
139.0
 30
0.0
 11
71.0011112147185486
 21
131.9623070301306313
 31
0.0
  0
LINE
  5
16F
100
AcDbEntity
100
AcDbLine
  8
0
 62
256
370
20
  6
ByLayer
 10
89.9616352322854169
 20
131.9623070301306313
 30
0.0
 11
89.9616352322854169
 21
139.0
 31
0.0
  0
LINE
  5
170
100
AcDbEntity
100
AcDbLine
  8
0
 62
256
370
20
  6
ByLayer
 10
71.0011112147185486
 20
139.0
 30
0.0
 11
71.0011112147185486
 21
132.1857809167960625
 31
0.0
  0
LINE
  5
171
100
AcDbEntity
100
AcDbLine
  8
0
 62
256
370
20
  6
ByLayer
 10
71.0011112147185486
 20
132.1857809167960625
 30
0.0
 11
60.0217577989683733
 21
132.1857809167960625
 31
0.0
  0
LINE
  5
172
100
AcDbEntity
100
AcDbLine
  8
0
 62
256
370
20
  6
ByLayer
 10
89.9616352322854169
 20
132.1857809167960625
 30
0.0
 11
112.0527903469078694
 21
132.1857809167960625
 31
0.0
  0
MTEXT
  5
173
100
AcDbEntity
100
AcDbMText
  8
0
 62
256
370
20
  6
ByLayer
 10
94.1302610801192685
 20
136.0854631615438564
 30
0.0
 40
3.0
 41
100.0
 71
4
 72
2
  1
Glue 4
  7
iso
 50
0.0
 73
1
 44
1.0
  0
MTEXT
  5
174
100
AcDbEntity
100
AcDbMText
  8
0
 62
256
370
20
  6
ByLayer
 10
61.991500511335687
 20
136.0854631615438564
 30
0.0
 40
3.0
 41
100.0
 71
4
 72
2
  1
Glue 4
  7
iso
 50
0.0
 73
1
 44
1.0
  0
MTEXT
  5
175
100
AcDbEntity
100
AcDbMText
  8
0
 62
256
370
-1
  6
ByLayer
 10
-13.1320118694362034
 20
168.2539020771513378
 30
0.0
 40
3.0
 41
100.0
 71
4
 72
2
  1
Raspberry Pi \P3 mm Cardboard Box\P    Henri Jubin\P     July 2012\P       GPL V3
  7
iso
 50
0.0
 73
1
 44
1.0
  0
MTEXT
  5
176
100
AcDbEntity
100
AcDbMText
  8
0
 62
256
370
40
  6
ByLayer
 10
86.1788278931758498
 20
29.1366513353118357
 30
0.0
 40
3.0
 41
100.0
 71
4
 72
2
  1
SD Card
  7
iso
 50
180.0
 73
1
 44
1.0
  0
MTEXT
  5
177
100
AcDbEntity
100
AcDbMText
  8
0
 62
256
370
40
  6
ByLayer
 10
62.3770563798225197
 20
20.9291439169141356
 30
0.0
 40
3.0
 41
100.0
 71
4
 72
2
  1
Power
  7
iso
 50
180.0
 73
1
 44
1.0
  0
DIMENSION
  5
178
100
AcDbEntity
  8
0
 62
256
370
20
  6
ByLayer
100
AcDbDimension
 10
39.9367999999999981
 20
45.174120830861014
 30
0.0
 11
22.4368049999999997
 21
47.049120830861014
 31
0.0
 70
0
 71
5
 72
1
 41
1.0
 42
0.0
  1

  3
Standard
100
AcDbAlignedDimension
 13
4.9368100000000004
 23
68.5491019584576975
 33
0.0
 14
39.9367999999999981
 24
68.5491019584576975
 34
0.0
 50
0.0
100
AcDbRotatedDimension
  0
DIMENSION
  5
179
100
AcDbEntity
  8
0
 62
256
370
20
  6
ByLayer
100
AcDbDimension
 10
0.5252804747774533
 20
139.0
 30
0.0
 11
-1.3497195252225493
 21
94.5
 31
0.0
 70
0
 71
5
 72
1
 41
1.0
 42
0.0
  1

  3
Standard
100
AcDbAlignedDimension
 13
21.0112189910981435
 23
50.0
 33
0.0
 14
21.0112189910981435
 24
139.0
 34
0.0
 50
90.0
100
AcDbRotatedDimension
  0
DIMENSION
  5
17A
100
AcDbEntity
  8
0
 62
256
370
20
  6
ByLayer
100
AcDbDimension
 10
45.0000000000000426
 20
286.2778587537122235
 30
0.0
 11
80.0000000000000284
 21
288.1528587537122235
 31
0.0
 70
0
 71
5
 72
1
 41
1.0
 42
0.0
  1

  3
Standard
100
AcDbAlignedDimension
 13
115.0
 23
276.5928981348668003
 33
0.0
 14
45.0000000000000426
 24
276.5928981348668003
 34
0.0
 50
0.0
100
AcDbRotatedDimension
  0
LINE
  5
17B
100
AcDbEntity
100
AcDbLine
  8
cotes
 62
256
370
40
  6
ByLayer
 10
115.0
 20
141.5929999999999893
 30
0.0
 11
45.0
 21
141.5929999999999893
 31
0.0
  0
LINE
  5
17C
100
AcDbEntity
100
AcDbLine
  8
cotes
 62
256
370
40
  6
ByLayer
 10
115.0
 20
147.5929999999999893
 30
0.0
 11
45.0
 21
147.5929999999999893
 31
0.0
  0
LINE
  5
17D
100
AcDbEntity
100
AcDbLine
  8
cotes
 62
256
370
40
  6
ByLayer
 10
115.0
 20
147.5929999999999893
 30
0.0
 11
45.0
 21
147.5929999999999893
 31
0.0
  0
LINE
  5
17E
100
AcDbEntity
100
AcDbLine
  8
cotes
 62
256
370
40
  6
ByLayer
 10
115.0
 20
141.5929999999999893
 30
0.0
 11
45.0
 21
141.5929999999999893
 31
0.0
  0
LINE
  5
17F
100
AcDbEntity
100
AcDbLine
  8
cotes
 62
256
370
40
  6
ByLayer
 10
115.0
 20
147.5929999999999893
 30
0.0
 11
45.0
 21
147.5929999999999893
 31
0.0
  0
LINE
  5
180
100
AcDbEntity
100
AcDbLine
  8
0
 62
256
370
40
  6
ByLayer
 10
115.0
 20
141.5929999999999893
 30
0.0
 11
45.0
 21
141.5929999999999893
 31
0.0
  0
LINE
  5
181
100
AcDbEntity
100
AcDbLine
  8
0
 62
256
370
40
  6
ByLayer
 10
121.0000000000000142
 20
144.5928981348668287
 30
0.0
 11
121.0000000000000142
 21
144.5928981348668287
 31
0.0
  0
LINE
  5
182
100
AcDbEntity
100
AcDbLine
  8
0
 62
256
370
40
  6
ByLayer
 10
115.0
 20
179.5928981348668287
 30
0.0
 11
115.0
 21
141.5928981348668287
 31
0.0
  0
LINE
  5
183
100
AcDbEntity
100
AcDbLine
  8
0
 62
256
370
40
  6
ByLayer
 10
45.0000000000000426
 20
179.5928981348668287
 30
0.0
 11
45.0000000000000426
 21
141.5928981348668287
 31
0.0
  0
DIMENSION
  5
184
100
AcDbEntity
  8
0
 62
256
370
20
  6
ByLayer
100
AcDbDimension
 10
155.0
 20
45.0678398439015879
 30
0.0
 11
137.5
 21
46.9428398439015879
 31
0.0
 70
0
 71
5
 72
0
 41
1.0
 42
0.0
  1

  3
Standard
100
AcDbAlignedDimension
 13
120.0
 23
50.0
 33
0.0
 14
155.0
 24
60.0
 34
0.0
 50
0.0
100
AcDbRotatedDimension
  0
DIMENSION
  5
185
100
AcDbEntity
  8
0
 62
256
370
20
  6
ByLayer
100
AcDbDimension
 10
115.0
 20
45.0678398439015879
 30
0.0
 11
80.0
 21
46.9428398439015879
 31
0.0
 70
0
 71
5
 72
0
 41
1.0
 42
0.0
  1

  3
Standard
100
AcDbAlignedDimension
 13
45.0
 23
50.0
 33
0.0
 14
115.0
 24
50.289113972158475
 34
0.0
 50
0.0
100
AcDbRotatedDimension
  0
CIRCLE
  5
186
100
AcDbEntity
100
AcDbCircle
  8
cotes
 62
256
370
20
  6
ByLayer
 10
70.0
 20
210.0
 30
0.0
 40
1.0
  0
CIRCLE
  5
187
100
AcDbEntity
100
AcDbCircle
  8
cotes
 62
256
370
20
  6
ByLayer
 10
70.0
 20
210.0
 30
0.0
 40
1.0
  0
CIRCLE
  5
188
100
AcDbEntity
100
AcDbCircle
  8
cotes
 62
256
370
20
  6
ByLayer
 10
70.0
 20
210.0
 30
0.0
 40
1.0
  0
CIRCLE
  5
189
100
AcDbEntity
100
AcDbCircle
  8
cotes
 62
256
370
20
  6
ByLayer
 10
70.0
 20
210.0
 30
0.0
 40
1.0
  0
CIRCLE
  5
18A
100
AcDbEntity
100
AcDbCircle
  8
cotes
 62
256
370
20
  6
ByLayer
 10
70.0
 20
210.0
 30
0.0
 40
1.0
  0
CIRCLE
  5
18B
100
AcDbEntity
100
AcDbCircle
  8
cotes
 62
256
370
20
  6
ByLayer
 10
70.0
 20
210.0
 30
0.0
 40
1.0
  0
CIRCLE
  5
18C
100
AcDbEntity
100
AcDbCircle
  8
cotes
 62
256
370
20
  6
ByLayer
 10
90.0
 20
210.0
 30
0.0
 40
1.0
  0
CIRCLE
  5
18D
100
AcDbEntity
100
AcDbCircle
  8
cotes
 62
256
370
20
  6
ByLayer
 10
80.0
 20
210.0
 30
0.0
 40
1.0
  0
CIRCLE
  5
18E
100
AcDbEntity
100
AcDbCircle
  8
cotes
 62
256
370
20
  6
ByLayer
 10
70.0
 20
210.0
 30
0.0
 40
1.0
  0
CIRCLE
  5
18F
100
AcDbEntity
100
AcDbCircle
  8
cotes
 62
256
370
20
  6
ByLayer
 10
70.0
 20
200.0
 30
0.0
 40
1.0
  0
CIRCLE
  5
190
100
AcDbEntity
100
AcDbCircle
  8
cotes
 62
256
370
20
  6
ByLayer
 10
70.0
 20
210.0
 30
0.0
 40
1.0
  0
CIRCLE
  5
191
100
AcDbEntity
100
AcDbCircle
  8
cotes
 62
256
370
20
  6
ByLayer
 10
93.653169626839329
 20
210.170023857414094
 30
0.0
 40
1.0
  0
CIRCLE
  5
192
100
AcDbEntity
100
AcDbCircle
  8
cotes
 62
256
370
20
  6
ByLayer
 10
83.5403860521102075
 20
204.2342595852904594
 30
0.0
 40
1.0
  0
CIRCLE
  5
193
100
AcDbEntity
100
AcDbCircle
  8
cotes
 62
256
370
20
  6
ByLayer
 10
66.8323088416881603
 20
209.9501807362243255
 30
0.0
 40
1.0
  0
CIRCLE
  5
194
100
AcDbEntity
100
AcDbCircle
  8
cotes
 62
256
370
20
  6
ByLayer
 10
70.0
 20
210.0
 30
0.0
 40
1.0
  0
CIRCLE
  5
195
100
AcDbEntity
100
AcDbCircle
  8
cotes
 62
256
370
20
  6
ByLayer
 10
80.0
 20
210.0
 30
0.0
 40
3.0
  0
CIRCLE
  5
196
100
AcDbEntity
100
AcDbCircle
  8
cotes
 62
256
370
20
  6
ByLayer
 10
100.0
 20
210.0
 30
0.0
 40
3.0
  0
CIRCLE
  5
197
100
AcDbEntity
100
AcDbCircle
  8
cotes
 62
256
370
20
  6
ByLayer
 10
5.4960780297440923
 20
148.3941068030904944
 30
0.0
 40
12.4459169360853057
  0
CIRCLE
  5
198
100
AcDbEntity
100
AcDbCircle
  8
0
 62
256
370
20
  6
ByLayer
 10
70.5
 20
202.5929999999999893
 30
0.0
 40
3.0
  0
CIRCLE
  5
199
100
AcDbEntity
100
AcDbCircle
  8
0
 62
256
370
20
  6
ByLayer
 10
89.5
 20
202.5929999999999893
 30
0.0
 40
3.0
  0
CIRCLE
  5
19A
100
AcDbEntity
100
AcDbCircle
  8
0
 62
256
370
20
  6
ByLayer
 10
80.0
 20
202.5929999999999893
 30
0.0
 40
3.0
  0
LINE
  5
19B
100
AcDbEntity
100
AcDbLine
  8
cotes
 62
256
370
-1
  6
ByLayer
 10
65.0
 20
31.80631276901007
 30
0.0
 11
93.0
 21
31.80631276901007
 31
0.0
  0
LINE
  5
19C
100
AcDbEntity
100
AcDbLine
  8
0
 62
256
370
-1
  6
ByLayer
 10
65.0
 20
31.80631276901007
 30
0.0
 11
93.0
 21
31.80631276901007
 31
0.0
  0
LINE
  5
19D
100
AcDbEntity
100
AcDbLine
  8
0
 62
256
370
-1
  6
ByLayer
 10
65.0
 20
36.30631276901007
 30
0.0
 11
65.0
 21
31.80631276901007
 31
0.0
  0
LINE
  5
19E
100
AcDbEntity
100
AcDbLine
  8
0
 62
256
370
-1
  6
ByLayer
 10
65.0
 20
31.80631276901007
 30
0.0
 11
93.0
 21
36.30631276901007
 31
0.0
  0
LINE
  5
19F
100
AcDbEntity
100
AcDbLine
  8
0
 62
256
370
-1
  6
ByLayer
 10
93.0
 20
36.30631276901007
 30
0.0
 11
93.0
 21
31.80631276901007
 31
0.0
  0
LINE
  5
1A0
100
AcDbEntity
100
AcDbLine
  8
0
 62
256
370
-1
  6
ByLayer
 10
62.0
 20
33.30631276901007
 30
0.0
 11
62.0
 21
25.30631276901007
 31
0.0
  0
LINE
  5
1A1
100
AcDbEntity
100
AcDbLine
  8
0
 62
256
370
-1
  6
ByLayer
 10
50.0
 20
25.30631276901007
 30
0.0
 11
50.0
 21
33.30631276901007
 31
0.0
  0
LINE
  5
1A2
100
AcDbEntity
100
AcDbLine
  8
0
 62
256
370
-1
  6
ByLayer
 10
50.0
 20
33.30631276901007
 30
0.0
 11
62.0
 21
33.30631276901007
 31
0.0
  0
LINE
  5
1A3
100
AcDbEntity
100
AcDbLine
  8
0
 62
256
370
-1
  6
ByLayer
 10
62.0
 20
33.30631276901007
 30
0.0
 11
50.0
 21
25.30631276901007
 31
0.0
  0
LINE
  5
1A4
100
AcDbEntity
100
AcDbLine
  8
0
 62
256
370
-1
  6
ByLayer
 10
50.0
 20
25.30631276901007
 30
0.0
 11
62.0
 21
25.30631276901007
 31
0.0
  0
LINE
  5
1A5
100
AcDbEntity
100
AcDbLine
  8
0
 62
256
370
-1
  6
ByLayer
 10
93.0527903469078694
 20
119.0
 30
0.0
 11
103.0527903469078694
 21
119.0
 31
0.0
  0
LINE
  5
1A6
100
AcDbEntity
100
AcDbLine
  8
0
 62
256
370
-1
  6
ByLayer
 10
93.0527903469078694
 20
108.0
 30
0.0
 11
93.0527903469078694
 21
108.0
 31
0.0
  0
LINE
  5
1A7
100
AcDbEntity
100
AcDbLine
  8
0
 62
256
370
-1
  6
ByLayer
 10
93.0527903469078694
 20
108.0
 30
0.0
 11
103.0527903469078694
 21
108.0
 31
0.0
  0
LINE
  5
1A8
100
AcDbEntity
100
AcDbLine
  8
0
 62
256
370
-1
  6
ByLayer
 10
103.0527903469078694
 20
119.0
 30
0.0
 11
103.0527903469078694
 21
119.0
 31
0.0
  0
LINE
  5
1A9
100
AcDbEntity
100
AcDbLine
  8
0
 62
256
370
-1
  6
ByLayer
 10
103.0527903469078694
 20
108.0
 30
0.0
 11
103.0527903469078694
 21
119.0
 31
0.0
  0
LINE
  5
1AA
100
AcDbEntity
100
AcDbLine
  8
0
 62
256
370
-1
  6
ByLayer
 10
93.0527903469078694
 20
119.0
 30
0.0
 11
93.0527903469078694
 21
108.0
 31
0.0
  0
LINE
  5
1AB
100
AcDbEntity
100
AcDbLine
  8
0
 62
256
370
-1
  6
ByLayer
 10
90.0
 20
52.8646209386281569
 30
0.0
 11
70.0
 21
52.8646209386281569
 31
0.0
  0
LINE
  5
1AC
100
AcDbEntity
100
AcDbLine
  8
0
 62
256
370
-1
  6
ByLayer
 10
70.0
 20
62.8646209386281569
 30
0.0
 11
90.0
 21
62.8646209386281569
 31
0.0
  0
CIRCLE
  5
1AD
100
AcDbEntity
100
AcDbCircle
  8
0
 62
256
370
20
  6
ByLayer
 10
22.936814921091127
 20
100.0
 30
0.0
 40
0.0
  0
CIRCLE
  5
1AE
100
AcDbEntity
100
AcDbCircle
  8
0
 62
256
370
20
  6
ByLayer
 10
22.936814921091127
 20
100.0
 30
0.0
 40
0.0
  0
CIRCLE
  5
1AF
100
AcDbEntity
100
AcDbCircle
  8
0
 62
256
370
20
  6
ByLayer
 10
22.936814921091127
 20
100.0
 30
0.0
 40
0.0
  0
LINE
  5
1B0
100
AcDbEntity
100
AcDbLine
  8
0
 62
256
370
-1
  6
ByLayer
 10
55.0218079077385482
 20
107.1740258297924697
 30
0.0
 11
60.0217577989683733
 21
107.1740258297924839
 31
0.0
  0
MTEXT
  5
1B1
100
AcDbEntity
100
AcDbMText
  8
0
 62
256
370
20
  6
ByLayer
 10
106.4777140228257366
 20
202.4755146157746992
 30
0.0
 40
3.0
 41
100.0
 71
4
 72
2
  1
GLUE 1
  7
iso
 50
90.0
 73
1
 44
1.0
  0
LINE
  5
1B2
100
AcDbEntity
100
AcDbLine
  8
0
 62
256
370
-1
  6
ByLayer
 10
111.5
 20
247.5459999999999923
 30
0.0
 11
101.5
 21
247.5459999999999923
 31
0.0
  0
LINE
  5
1B3
100
AcDbEntity
100
AcDbLine
  8
0
 62
256
370
-1
  6
ByLayer
 10
111.5
 20
222.5459999999999923
 30
0.0
 11
101.5
 21
222.5459999999999923
 31
0.0
  0
MTEXT
  5
1B4
100
AcDbEntity
100
AcDbMText
  8
0
 62
256
370
20
  6
ByLayer
 10
106.4777140228257366
 20
254.7981774589390511
 30
0.0
 40
3.0
 41
100.0
 71
4
 72
2
  1
GLUE 1
  7
iso
 50
90.0
 73
1
 44
1.0
  0
MTEXT
  5
1B5
100
AcDbEntity
100
AcDbMText
  8
0
 62
256
370
20
  6
ByLayer
 10
106.2578709016359682
 20
226.8781010678387418
 30
0.0
 40
3.0
 41
100.0
 71
4
 72
2
  1
GLUE 1a
  7
iso
 50
90.0
 73
1
 44
1.0
  0
DIMENSION
  5
1B6
100
AcDbEntity
  8
0
 62
256
370
-1
  6
ByLayer
100
AcDbDimension
 10
155.0
 20
141.5928981348668287
 30
0.0
 11
153.125
 21
160.5928981348668287
 31
0.0
 70
0
 71
5
 72
0
 41
1.0
 42
0.0
  1

  3
Standard
100
AcDbAlignedDimension
 13
149.0
 23
179.5928981348668287
 33
0.0
 14
149.0
 24
141.5928981348668287
 34
0.0
 50
90.0
100
AcDbRotatedDimension
  0
LINE
  5
1B7
100
AcDbEntity
100
AcDbLine
  8
0
 62
256
370
20
  6
ByLayer
 10
72.0
 20
13.30631276901007
 30
0.0
 11
88.0
 21
16.30631276901007
 31
0.0
  0
LINE
  5
1B8
100
AcDbEntity
100
AcDbLine
  8
0
 62
256
370
-1
  6
ByLayer
 10
50.0000000000000497
 20
149.0
 30
0.0
 11
67.0000000000000568
 21
149.0
 31
0.0
  0
LINE
  5
1B9
100
AcDbEntity
100
AcDbLine
  8
0
 62
256
370
-1
  6
ByLayer
 10
67.0000000000000568
 20
149.0
 30
0.0
 11
67.0000000000000568
 21
164.0
 31
0.0
  0
LINE
  5
1BA
100
AcDbEntity
100
AcDbLine
  8
0
 62
256
370
-1
  6
ByLayer
 10
67.0000000000000568
 20
164.0
 30
0.0
 11
50.0000000000000497
 21
164.0
 31
0.0
  0
LINE
  5
1BB
100
AcDbEntity
100
AcDbLine
  8
0
 62
256
370
-1
  6
ByLayer
 10
50.0000000000000497
 20
164.0
 30
0.0
 11
50.0000000000000497
 21
149.0
 31
0.0
  0
LINE
  5
1BC
100
AcDbEntity
100
AcDbLine
  8
0
 62
256
370
20
  6
ByLayer
 10
50.0000000000000497
 20
164.0
 30
0.0
 11
67.0000000000000568
 21
149.0
 31
0.0
  0
LINE
  5
1BD
100
AcDbEntity
100
AcDbLine
  8
0
 62
256
370
20
  6
ByLayer
 10
50.0000000000000426
 20
164.0
 30
0.0
 11
50.0000000000000568
 21
149.0
 31
0.0
  0
LINE
  5
1BE
100
AcDbEntity
100
AcDbLine
  8
0
 62
256
370
20
  6
ByLayer
 10
50.0000000000000568
 20
149.0
 30
0.0
 11
67.0000000000000426
 21
149.0
 31
0.0
  0
LINE
  5
1BF
100
AcDbEntity
100
AcDbLine
  8
0
 62
256
370
-1
  6
ByLayer
 10
88.0000000000000426
 20
149.0
 30
0.0
 11
71.0000000000000426
 21
149.0
 31
0.0
  0
LINE
  5
1C0
100
AcDbEntity
100
AcDbLine
  8
0
 62
256
370
-1
  6
ByLayer
 10
71.0000000000000426
 20
167.0
 30
0.0
 11
88.0000000000000426
 21
167.0
 31
0.0
  0
LINE
  5
1C1
100
AcDbEntity
100
AcDbLine
  8
0
 62
256
370
-1
  6
ByLayer
 10
88.0000000000000426
 20
167.0
 30
0.0
 11
88.0000000000000426
 21
149.0
 31
0.0
  0
LINE
  5
1C2
100
AcDbEntity
100
AcDbLine
  8
0
 62
256
370
20
  6
ByLayer
 10
88.0000000000000426
 20
167.0
 30
0.0
 11
71.0000000000000426
 21
149.0
 31
0.0
  0
MTEXT
  5
1C3
100
AcDbEntity
100
AcDbMText
  8
0
 62
256
370
40
  6
ByLayer
 10
53.9115966098306529
 20
167.6042725130204758
 30
0.0
 40
3.0
 41
100.0
 71
4
 72
2
  1
Ether
  7
iso
 50
0.0
 73
1
 44
1.0
  0
MTEXT
  5
1C4
100
AcDbEntity
100
AcDbMText
  8
0
 62
256
370
40
  6
ByLayer
 10
75.6943242640801088
 20
170.5308241422986555
 30
0.0
 40
3.0
 41
100.0
 71
4
 72
2
  1
Usb
  7
iso
 50
0.0
 73
1
 44
1.0
  0
LINE
  5
1C5
100
AcDbEntity
100
AcDbLine
  8
0
 62
256
370
20
  6
ByLayer
 10
71.0000000000000426
 20
167.0
 30
0.0
 11
71.0000000000000426
 21
149.0
 31
0.0
  0
LINE
  5
1C6
100
AcDbEntity
100
AcDbLine
  8
0
 62
256
370
-1
  6
ByLayer
 10
137.0
 20
89.6836440422321743
 30
0.0
 11
144.0
 21
89.6836440422321743
 31
0.0
  0
LINE
  5
1C7
100
AcDbEntity
100
AcDbLine
  8
0
 62
256
370
-1
  6
ByLayer
 10
144.0
 20
108.1376410256404341
 30
0.0
 11
144.0
 21
89.6836440422321743
 31
0.0
  0
LINE
  5
1C8
100
AcDbEntity
100
AcDbLine
  8
0
 62
256
370
-1
  6
ByLayer
 10
144.0
 20
108.1119999999999948
 30
0.0
 11
137.0
 21
108.1119999999999948
 31
0.0
  0
LINE
  5
1C9
100
AcDbEntity
100
AcDbLine
  8
0
 62
256
370
-1
  6
ByLayer
 10
137.0
 20
108.1376410256404341
 30
0.0
 11
137.0
 21
89.6836440422321743
 31
0.0
  0
LINE
  5
1CA
100
AcDbEntity
100
AcDbLine
  8
0
 62
256
370
20
  6
ByLayer
 10
144.0
 20
108.1119999999999948
 30
0.0
 11
137.0
 21
89.6836440422321743
 31
0.0
  0
LINE
  5
1CB
100
AcDbEntity
100
AcDbLine
  8
0
 62
256
370
20
  6
ByLayer
 10
67.0
 20
52.8646209386281569
 30
0.0
 11
67.0
 21
62.8646209386281569
 31
0.0
  0
LINE
  5
1CC
100
AcDbEntity
100
AcDbLine
  8
0
 62
256
370
20
  6
ByLayer
 10
67.0
 20
62.8646209386281569
 30
0.0
 11
95.0
 21
62.8646209386281569
 31
0.0
  0
LINE
  5
1CD
100
AcDbEntity
100
AcDbLine
  8
0
 62
256
370
20
  6
ByLayer
 10
95.0
 20
62.8646209386281569
 30
0.0
 11
95.0
 21
52.8646209386281569
 31
0.0
  0
LINE
  5
1CE
100
AcDbEntity
100
AcDbLine
  8
0
 62
256
370
20
  6
ByLayer
 10
95.0
 20
52.8646209386281569
 30
0.0
 11
67.0
 21
52.8646209386281569
 31
0.0
  0
LINE
  5
1CF
100
AcDbEntity
100
AcDbLine
  8
0
 62
256
370
20
  6
ByLayer
 10
55.0218079077385482
 20
52.8646209386281498
 30
0.0
 11
55.0218079077385482
 21
139.0
 31
0.0
  0
LINE
  5
1D0
100
AcDbEntity
100
AcDbLine
  8
0
 62
256
370
20
  6
ByLayer
 10
55.0218079077385482
 20
139.0
 30
0.0
 11
47.9999999999999858
 21
138.9999999999999716
 31
0.0
  0
LINE
  5
1D1
100
AcDbEntity
100
AcDbLine
  8
0
 62
256
370
20
  6
ByLayer
 10
60.0217577989683733
 20
107.1740258297924839
 30
0.0
 11
47.9999999999999929
 21
107.2130933418255267
 31
0.0
  0
LINE
  5
1D2
100
AcDbEntity
100
AcDbLine
  8
0
 62
256
370
20
  6
ByLayer
 10
48.0
 20
53.1721872643289046
 30
0.0
 11
47.9999999999999858
 21
138.9999999999999716
 31
0.0
  0
LINE
  5
1D3
100
AcDbEntity
100
AcDbLine
  8
0
 62
256
370
20
  6
ByLayer
 10
48.0
 20
53.1721872643289046
 30
0.0
 11
55.0
 21
53.1721872643289046
 31
0.0
  0
CIRCLE
  5
1D4
100
AcDbEntity
100
AcDbCircle
  8
0
 62
256
370
-1
  6
ByLayer
 10
21.8562420118191874
 20
118.512802072980719
 30
0.0
 40
4.0
  0
CIRCLE
  5
1D5
100
AcDbEntity
100
AcDbCircle
  8
0
 62
256
370
-1
  6
ByLayer
 10
21.8562420118191874
 20
118.512802072980719
 30
0.0
 40
6.0
  0
CIRCLE
  5
1D6
100
AcDbEntity
100
AcDbCircle
  8
0
 62
256
370
20
  6
ByLayer
 10
21.8562420118191874
 20
118.512802072980719
 30
0.0
 40
1.0
  0
CIRCLE
  5
1D7
100
AcDbEntity
100
AcDbCircle
  8
0
 62
256
370
-1
  6
ByLayer
 10
23.4960510420618682
 20
99.6568784608836467
 30
0.0
 40
5.0
  0
CIRCLE
  5
1D8
100
AcDbEntity
100
AcDbCircle
  8
0
 62
256
370
-1
  6
ByLayer
 10
23.4960510420618682
 20
99.6568784608836467
 30
0.0
 40
7.0
  0
CIRCLE
  5
1D9
100
AcDbEntity
100
AcDbCircle
  8
0
 62
256
370
20
  6
ByLayer
 10
23.4960510420618682
 20
99.6568784608836467
 30
0.0
 40
1.0
  0
MTEXT
  5
1DA
100
AcDbEntity
100
AcDbMText
  8
0
 62
256
370
20
  6
ByLayer
 10
51.6065149809386412
 20
89.6979730555858055
 30
0.0
 40
2.0
 41
100.0
 71
4
 72
2
  1
GLUE 7
  7
iso
 50
90.0
 73
1
 44
1.0
  0
MTEXT
  5
1DB
100
AcDbEntity
100
AcDbMText
  8
0
 62
256
370
20
  6
ByLayer
 10
75.4061905680901816
 20
57.1592115093394995
 30
0.0
 40
3.0
 41
100.0
 71
4
 72
2
  1
GLUE 8
  7
iso
 50
0.0
 73
0
 44
1.0
  0
MTEXT
  5
1DC
100
AcDbEntity
100
AcDbMText
  8
0
 62
256
370
20
  6
ByLayer
 10
93.4333265056510953
 20
104.8651688075189981
 30
0.0
 40
3.0
 41
100.0
 71
4
 72
2
  1
GLUE 9
  7
iso
 50
0.0
 73
0
 44
1.0
  0
DIMENSION
  5
1DD
100
AcDbEntity
  8
0
 62
256
370
20
  6
ByLayer
100
AcDbDimension
 10
122.5625400632954296
 20
184.5929999999999893
 30
0.0
 11
120.6875400632954296
 21
230.5930000000000177
 31
0.0
 70
0
 71
5
 72
0
 41
1.0
 42
0.0
  1

  3
Standard
100
AcDbAlignedDimension
 13
109.6467566933965827
 23
276.5930000000000177
 33
0.0
 14
104.7002864666268209
 24
184.5929999999999893
 34
0.0
 50
90.0
100
AcDbRotatedDimension
  0
LINE
  5
1DE
100
AcDbEntity
100
AcDbLine
  8
cotes
 62
256
370
-1
  6
ByLayer
 10
152.0
 20
61.8130000000000024
 30
0.0
 11
133.0
 21
61.8130000000000024
 31
0.0
  0
LINE
  5
1DF
100
AcDbEntity
100
AcDbLine
  8
cotes
 62
256
370
-1
  6
ByLayer
 10
152.0
 20
61.8130000000000024
 30
0.0
 11
133.0
 21
61.8130000000000024
 31
0.0
  0
LINE
  5
1E0
100
AcDbEntity
100
AcDbLine
  8
cotes
 62
256
370
-1
  6
ByLayer
 10
120.0
 20
130.1119999999999948
 30
0.0
 11
155.0
 21
130.1119999999999948
 31
0.0
  0
LINE
  5
1E1
100
AcDbEntity
100
AcDbLine
  8
cotes
 62
256
370
-1
  6
ByLayer
 10
120.0
 20
148.1119999999999948
 30
0.0
 11
155.0
 21
148.1119999999999948
 31
0.0
  0
CIRCLE
  5
1E2
100
AcDbEntity
100
AcDbCircle
  8
0
 62
256
370
20
  6
ByLayer
 10
140.0
 20
61.7319484300857582
 30
0.0
 40
3.0
  0
CIRCLE
  5
1E3
100
AcDbEntity
100
AcDbCircle
  8
0
 62
256
370
20
  6
ByLayer
 10
130.0
 20
61.7319484300857582
 30
0.0
 40
3.0
  0
CIRCLE
  5
1E4
100
AcDbEntity
100
AcDbCircle
  8
0
 62
256
370
20
  6
ByLayer
 10
140.0
 20
71.7319484300857653
 30
0.0
 40
3.0
  0
ENDSEC
  0
SECTION
  2
OBJECTS
  0
DICTIONARY
  5
C
100
AcDbDictionary
280
0
281
1
  3
ACAD_GROUP
350
D
  3
ACAD_LAYOUT
350
1A
  3
ACAD_MLINESTYLE
350
17
  3
ACAD_PLOTSETTINGS
350
19
  3
ACAD_PLOTSTYLENAME
350
E
  3
AcDbVariableDictionary
350
1E5
  0
DICTIONARY
  5
D
100
AcDbDictionary
280
0
281
1
  0
ACDBDICTIONARYWDFLT
  5
E
100
AcDbDictionary
281
1
  3
Normal
350
F
100
AcDbDictionaryWithDefault
340
F
  0
ACDBPLACEHOLDER
  5
F
  0
DICTIONARY
  5
17
100
AcDbDictionary
280
0
281
1
  3
Standard
350
18
  0
MLINESTYLE
  5
18
100
AcDbMlineStyle
  2
STANDARD
 70
0
  3

 62
256
 51
90.0
 52
90.0
 71
2
 49
0.5
 62
256
  6
BYLAYER
 49
-0.5
 62
256
  6
BYLAYER
  0
DICTIONARY
  5
19
100
AcDbDictionary
280
0
281
1
  0
DICTIONARY
  5
1A
100
AcDbDictionary
281
1
  3
Layout1
350
1E
  3
Layout2
350
26
  3
Model
350
22
  0
LAYOUT
  5
1E
100
AcDbPlotSettings
  1

  2
C:\Program Files\AutoCAD 2002\plotters\DWF ePlot (optimized for plotting).pc3
  4

  6

 40
0.0
 41
0.0
 42
0.0
 43
0.0
 44
0.0
 45
0.0
 46
0.0
 47
0.0
 48
0.0
 49
0.0
140
0.0
141
0.0
142
1.0
143
1.0
 70
688
 72
0
 73
0
 74
5
  7

 75
16
147
1.0
148
0.0
149
0.0
100
AcDbLayout
  1
Layout1
 70
1
 71
1
 10
0.0
 20
0.0
 11
420.0
 21
297.0
 12
0.0
 22
0.0
 32
0.0
 14
100000000000000000000.0
 24
100000000000000000000.0
 34
100000000000000000000.0
 15
-100000000000000000000.0
 25
-100000000000000000000.0
 35
-100000000000000000000.0
146
0.0
 13
0.0
 23
0.0
 33
0.0
 16
1.0
 26
0.0
 36
0.0
 17
0.0
 27
1.0
 37
0.0
 76
0
330
1B
  0
LAYOUT
  5
22
100
AcDbPlotSettings
  1

  2
C:\Program Files\AutoCAD 2002\plotters\DWF ePlot (optimized for plotting).pc3
  4

  6

 40
0.0
 41
0.0
 42
0.0
 43
0.0
 44
0.0
 45
0.0
 46
0.0
 47
0.0
 48
0.0
 49
0.0
140
0.0
141
0.0
142
1.0
143
1.0
 70
1712
 72
0
 73
0
 74
0
  7

 75
0
147
1.0
148
0.0
149
0.0
100
AcDbLayout
  1
Model
 70
1
 71
0
 10
0.0
 20
0.0
 11
12.0
 21
9.0
 12
0.0
 22
0.0
 32
0.0
 14
0.0
 24
0.0
 34
0.0
 15
0.0
 25
0.0
 35
0.0
146
0.0
 13
0.0
 23
0.0
 33
0.0
 16
1.0
 26
0.0
 36
0.0
 17
0.0
 27
1.0
 37
0.0
 76
0
330
1F
  0
LAYOUT
  5
26
100
AcDbPlotSettings
  1

  2
C:\Program Files\AutoCAD 2002\plotters\DWF ePlot (optimized for plotting).pc3
  4

  6

 40
0.0
 41
0.0
 42
0.0
 43
0.0
 44
0.0
 45
0.0
 46
0.0
 47
0.0
 48
0.0
 49
0.0
140
0.0
141
0.0
142
1.0
143
1.0
 70
688
 72
0
 73
0
 74
5
  7

 75
16
147
1.0
148
0.0
149
0.0
100
AcDbLayout
  1
Layout2
 70
1
 71
2
 10
0.0
 20
0.0
 11
12.0
 21
9.0
 12
0.0
 22
0.0
 32
0.0
 14
0.0
 24
0.0
 34
0.0
 15
0.0
 25
0.0
 35
0.0
146
0.0
 13
0.0
 23
0.0
 33
0.0
 16
1.0
 26
0.0
 36
0.0
 17
0.0
 27
1.0
 37
0.0
 76
0
330
23
  0
DICTIONARY
  5
1E5
100
AcDbDictionary
281
1
  3
DIMASSOC
350
1E7
  3
HIDETEXT
350
1E6
  0
DICTIONARYVAR
  5
1E6
100
DictionaryVariables
280
0
  1
2
  0
DICTIONARYVAR
  5
1E7
100
DictionaryVariables
280
0
  1
1
  0
IMAGEDEF
  5
45
100
AcDbRasterImageDef
 90
0
  1
/ldisk2/hobbies/electronique/raspberry/200px-Raspberry_Pi_Logo.svg.png
 10
200.0
 20
253.0
 11
1.0
 21
1.0
280
1
281
0
  0
IMAGEDEF
  5
47
100
AcDbRasterImageDef
 90
0
  1
/ldisk2/hobbies/electronique/raspberry/200px-Raspberry_Pi_Logo.svg.png
 10
200.0
 20
253.0
 11
1.0
 21
1.0
280
1
281
0
  0
ENDSEC
  0
EOF
