  0
SECTION
  2
HEADER
  9
$ACADVER
  1
AC1014
  9
$HANDSEED
  5
FFFF
  9
$MEASUREMENT
 70
     1
  0
ENDSEC
  0
SECTION
  2
TABLES
  0
TABLE
  2
VPORT
  5
8
330
0
100
AcDbSymbolTable
 70
     4
  0
VPORT
  5
2E
330
8
100
AcDbSymbolTableRecord
100
AcDbViewportTableRecord
  2
*ACTIVE
 70
     0
 10
0.0
 20
0.0
 11
1.0
 21
1.0
 12
210.0
 22
148.5
 13
0.0
 23
0.0
 14
10.0
 24
10.0
 15
10.0
 25
10.0
 16
0.0
 26
0.0
 36
1.0
 17
0.0
 27
0.0
 37
0.0
 40
341.0
 41
1.24
 42
50.0
 43
0.0
 44
0.0
 50
0.0
 51
0.0
 71
     0
 72
   100
 73
     1
 74
     3
 75
     0
 76
     0
 77
     0
 78
     0
  0
ENDTAB
  0
TABLE
  2
LTYPE
  5
5
330
0
100
AcDbSymbolTable
 70
     1
  0
LTYPE
  5
14
330
5
100
AcDbSymbolTableRecord
100
AcDbLinetypeTableRecord
  2
BYBLOCK
 70
     0
  3

 72
    65
 73
     0
 40
0.0
  0
LTYPE
  5
15
330
5
100
AcDbSymbolTableRecord
100
AcDbLinetypeTableRecord
  2
BYLAYER
 70
     0
  3

 72
    65
 73
     0
 40
0.0
  0
LTYPE
  5
16
330
5
100
AcDbSymbolTableRecord
100
AcDbLinetypeTableRecord
  2
CONTINUOUS
 70
     0
  3
Solid line
 72
    65
 73
     0
 40
0.0
  0
ENDTAB
  0
TABLE
  2
LAYER
  5
2
100
AcDbSymbolTable
 70
2
  0
LAYER
  5
50
100
AcDbSymbolTableRecord
100
AcDbLayerTableRecord
  2
0
 70
0
  6
CONTINUOUS
  0
LAYER
  5
51
100
AcDbSymbolTableRecord
100
AcDbLayerTableRecord
  2
Layer_1
 70
0
  6
CONTINUOUS
  0
ENDTAB
  0
TABLE
  2
STYLE
  5
3
330
0
100
AcDbSymbolTable
 70
     1
  0
STYLE
  5
11
330
3
100
AcDbSymbolTableRecord
100
AcDbTextStyleTableRecord
  2
STANDARD
 70
     0
 40
0.0
 41
1.0
 50
0.0
 71
     0
 42
2.5
  3
txt
  4

  0
ENDTAB
  0
TABLE
  2
VIEW
  5
6
330
0
100
AcDbSymbolTable
 70
     0
  0
ENDTAB
  0
TABLE
  2
UCS
  5
7
330
0
100
AcDbSymbolTable
 70
     0
  0
ENDTAB
  0
TABLE
  2
APPID
  5
9
330
0
100
AcDbSymbolTable
 70
     2
  0
APPID
  5
12
330
9
100
AcDbSymbolTableRecord
100
AcDbRegAppTableRecord
  2
ACAD
 70
     0
  0
ENDTAB
  0
TABLE
  2
DIMSTYLE
  5
A
330
0
100
AcDbSymbolTable
 70
     1
  0
DIMSTYLE
105
27
330
A
100
AcDbSymbolTableRecord
100
AcDbDimStyleTableRecord
  2
ISO-25
 70
     0
  3

  4

  5

  6

  7

 40
1.0
 41
2.5
 42
0.625
 43
3.75
 44
1.25
 45
0.0
 46
0.0
 47
0.0
 48
0.0
140
2.5
141
2.5
142
0.0
143
0.03937007874016
144
1.0
145
0.0
146
1.0
147
0.625
 71
     0
 72
     0
 73
     0
 74
     0
 75
     0
 76
     0
 77
     1
 78
     8
170
     0
171
     3
172
     1
173
     0
174
     0
175
     0
176
     0
177
     0
178
     0
270
     2
271
     2
272
     2
273
     2
274
     3
340
11
275
     0
280
     0
281
     0
282
     0
283
     0
284
     8
285
     0
286
     0
287
     3
288
     0
  0
ENDTAB
  0
TABLE
  2
BLOCK_RECORD
  5
1
330
0
100
AcDbSymbolTable
 70
     1
  0
BLOCK_RECORD
  5
1F
330
1
100
AcDbSymbolTableRecord
100
AcDbBlockTableRecord
  2
*MODEL_SPACE
  0
BLOCK_RECORD
  5
1B
330
1
100
AcDbSymbolTableRecord
100
AcDbBlockTableRecord
  2
*PAPER_SPACE
  0
ENDTAB
  0
ENDSEC
  0
SECTION
  2
BLOCKS
  0
BLOCK
  5
20
330
1F
100
AcDbEntity
  8
0
100
AcDbBlockBegin
  2
*MODEL_SPACE
 70
     0
 10
0.0
 20
0.0
 30
0.0
  3
*MODEL_SPACE
  1

  0
ENDBLK
  5
21
330
1F
100
AcDbEntity
  8
0
100
AcDbBlockEnd
  0
BLOCK
  5
1C
330
1B
100
AcDbEntity
 67
     1
  8
0
100
AcDbBlockBegin
  2
*PAPER_SPACE
  1

  0
ENDBLK
  5
1D
330
1B
100
AcDbEntity
 67
     1
  8
0
100
AcDbBlockEnd
  0
ENDSEC
  0
SECTION
  2
ENTITIES
  0
SPLINE
  5
100
100
AcDbEntity
  8
Layer_1
 62
7
100
AcDbSpline
 70
8
 71
3
 72
8
 73
4
 74
0
 40
0
 40
0
 40
0
 40
0
 40
1
 40
1
 40
1
 40
1
 10
-487.442460
 20
428.717569
 30
0.0
 10
-484.724420
 20
428.717569
 30
0.0
 10
-482.536260
 20
426.529406
 30
0.0
 10
-482.536260
 20
423.811374
 30
0.0
  0
LWPOLYLINE
  5
101
100
AcDbEntity
  8
Layer_1
 62
7
100
AcDbPolyline
 90
2
 70
0
 10
-489.603380
 20
428.717569
 30
0.0
 10
-487.442460
 20
428.717569
 30
0.0
  0
SPLINE
  5
102
100
AcDbEntity
  8
Layer_1
 62
7
100
AcDbSpline
 70
8
 71
3
 72
8
 73
4
 74
0
 40
0
 40
0
 40
0
 40
0
 40
1
 40
1
 40
1
 40
1
 10
-482.536260
 20
-111.349500
 30
0.0
 10
-482.536260
 20
-114.067530
 30
0.0
 10
-484.724420
 20
-116.255700
 30
0.0
 10
-487.442460
 20
-116.255700
 30
0.0
  0
LWPOLYLINE
  5
103
100
AcDbEntity
  8
Layer_1
 62
7
100
AcDbPolyline
 90
2
 70
0
 10
-482.536260
 20
423.811374
 30
0.0
 10
-482.536260
 20
-111.349500
 30
0.0
  0
SPLINE
  5
104
100
AcDbEntity
  8
Layer_1
 62
7
100
AcDbSpline
 70
8
 71
3
 72
8
 73
4
 74
0
 40
0
 40
0
 40
0
 40
0
 40
1
 40
1
 40
1
 40
1
 10
-489.603380
 20
-116.255700
 30
0.0
 10
-492.321410
 20
-116.255700
 30
0.0
 10
-494.509580
 20
-114.067530
 30
0.0
 10
-494.509580
 20
-111.349500
 30
0.0
  0
LWPOLYLINE
  5
105
100
AcDbEntity
  8
Layer_1
 62
7
100
AcDbPolyline
 90
2
 70
0
 10
-487.442460
 20
-116.255700
 30
0.0
 10
-489.603380
 20
-116.255700
 30
0.0
  0
SPLINE
  5
106
100
AcDbEntity
  8
Layer_1
 62
7
100
AcDbSpline
 70
8
 71
3
 72
8
 73
4
 74
0
 40
0
 40
0
 40
0
 40
0
 40
1
 40
1
 40
1
 40
1
 10
-494.509580
 20
423.811374
 30
0.0
 10
-494.509580
 20
426.529406
 30
0.0
 10
-492.321410
 20
428.717569
 30
0.0
 10
-489.603380
 20
428.717569
 30
0.0
  0
LWPOLYLINE
  5
107
100
AcDbEntity
  8
Layer_1
 62
7
100
AcDbPolyline
 90
2
 70
0
 10
-494.509580
 20
-111.349500
 30
0.0
 10
-494.509580
 20
423.811374
 30
0.0
  0
SPLINE
  5
108
100
AcDbEntity
  8
Layer_1
 62
7
100
AcDbSpline
 70
8
 71
3
 72
8
 73
4
 74
0
 40
0
 40
0
 40
0
 40
0
 40
1
 40
1
 40
1
 40
1
 10
-487.240940
 20
422.882000
 30
0.0
 10
-487.240939
 20
422.541999
 30
0.0
 10
-487.376002
 20
422.215923
 30
0.0
 10
-487.616418
 20
421.975505
 30
0.0
  0
SPLINE
  5
109
100
AcDbEntity
  8
Layer_1
 62
7
100
AcDbSpline
 70
8
 71
3
 72
8
 73
4
 74
0
 40
0
 40
0
 40
0
 40
0
 40
1
 40
1
 40
1
 40
1
 10
-487.616418
 20
421.975505
 30
0.0
 10
-487.856834
 20
421.735087
 30
0.0
 10
-488.182909
 20
421.600021
 30
0.0
 10
-488.522910
 20
421.600020
 30
0.0
  0
SPLINE
  5
10a
100
AcDbEntity
  8
Layer_1
 62
7
100
AcDbSpline
 70
8
 71
3
 72
8
 73
4
 74
0
 40
0
 40
0
 40
0
 40
0
 40
1
 40
1
 40
1
 40
1
 10
-488.522910
 20
421.600020
 30
0.0
 10
-488.862913
 20
421.600019
 30
0.0
 10
-489.188990
 20
421.735083
 30
0.0
 10
-489.429408
 20
421.975502
 30
0.0
  0
SPLINE
  5
10b
100
AcDbEntity
  8
Layer_1
 62
7
100
AcDbSpline
 70
8
 71
3
 72
8
 73
4
 74
0
 40
0
 40
0
 40
0
 40
0
 40
1
 40
1
 40
1
 40
1
 10
-489.429408
 20
421.975502
 30
0.0
 10
-489.669827
 20
422.215920
 30
0.0
 10
-489.804891
 20
422.541997
 30
0.0
 10
-489.804890
 20
422.882000
 30
0.0
  0
SPLINE
  5
10c
100
AcDbEntity
  8
Layer_1
 62
7
100
AcDbSpline
 70
8
 71
3
 72
8
 73
4
 74
0
 40
0
 40
0
 40
0
 40
0
 40
1
 40
1
 40
1
 40
1
 10
-489.804890
 20
422.882000
 30
0.0
 10
-489.804889
 20
423.222001
 30
0.0
 10
-489.669823
 20
423.548077
 30
0.0
 10
-489.429406
 20
423.788493
 30
0.0
  0
SPLINE
  5
10d
100
AcDbEntity
  8
Layer_1
 62
7
100
AcDbSpline
 70
8
 71
3
 72
8
 73
4
 74
0
 40
0
 40
0
 40
0
 40
0
 40
1
 40
1
 40
1
 40
1
 10
-489.429406
 20
423.788493
 30
0.0
 10
-489.188988
 20
424.028910
 30
0.0
 10
-488.862911
 20
424.163973
 30
0.0
 10
-488.522910
 20
424.163972
 30
0.0
  0
SPLINE
  5
10e
100
AcDbEntity
  8
Layer_1
 62
7
100
AcDbSpline
 70
8
 71
3
 72
8
 73
4
 74
0
 40
0
 40
0
 40
0
 40
0
 40
1
 40
1
 40
1
 40
1
 10
-488.522910
 20
424.163972
 30
0.0
 10
-487.814898
 20
424.163969
 30
0.0
 10
-487.240941
 20
423.590012
 30
0.0
 10
-487.240940
 20
422.882000
 30
0.0
  0
LWPOLYLINE
  5
10f
100
AcDbEntity
  8
Layer_1
 62
7
100
AcDbPolyline
 90
1
 70
1
 10
-489.603380
 20
428.717569
 30
0.0
  0
SPLINE
  5
110
100
AcDbEntity
  8
Layer_1
 62
7
100
AcDbSpline
 70
8
 71
3
 72
8
 73
4
 74
0
 40
0
 40
0
 40
0
 40
0
 40
1
 40
1
 40
1
 40
1
 10
-487.240940
 20
-109.922100
 30
0.0
 10
-487.240939
 20
-110.262101
 30
0.0
 10
-487.376002
 20
-110.588177
 30
0.0
 10
-487.616418
 20
-110.828595
 30
0.0
  0
SPLINE
  5
111
100
AcDbEntity
  8
Layer_1
 62
7
100
AcDbSpline
 70
8
 71
3
 72
8
 73
4
 74
0
 40
0
 40
0
 40
0
 40
0
 40
1
 40
1
 40
1
 40
1
 10
-487.616418
 20
-110.828595
 30
0.0
 10
-487.856834
 20
-111.069013
 30
0.0
 10
-488.182909
 20
-111.204079
 30
0.0
 10
-488.522910
 20
-111.204080
 30
0.0
  0
SPLINE
  5
112
100
AcDbEntity
  8
Layer_1
 62
7
100
AcDbSpline
 70
8
 71
3
 72
8
 73
4
 74
0
 40
0
 40
0
 40
0
 40
0
 40
1
 40
1
 40
1
 40
1
 10
-488.522910
 20
-111.204080
 30
0.0
 10
-488.862913
 20
-111.204081
 30
0.0
 10
-489.188990
 20
-111.069017
 30
0.0
 10
-489.429408
 20
-110.828598
 30
0.0
  0
SPLINE
  5
113
100
AcDbEntity
  8
Layer_1
 62
7
100
AcDbSpline
 70
8
 71
3
 72
8
 73
4
 74
0
 40
0
 40
0
 40
0
 40
0
 40
1
 40
1
 40
1
 40
1
 10
-489.429408
 20
-110.828598
 30
0.0
 10
-489.669827
 20
-110.588180
 30
0.0
 10
-489.804891
 20
-110.262103
 30
0.0
 10
-489.804890
 20
-109.922100
 30
0.0
  0
SPLINE
  5
114
100
AcDbEntity
  8
Layer_1
 62
7
100
AcDbSpline
 70
8
 71
3
 72
8
 73
4
 74
0
 40
0
 40
0
 40
0
 40
0
 40
1
 40
1
 40
1
 40
1
 10
-489.804890
 20
-109.922100
 30
0.0
 10
-489.804889
 20
-109.582099
 30
0.0
 10
-489.669823
 20
-109.256024
 30
0.0
 10
-489.429405
 20
-109.015608
 30
0.0
  0
SPLINE
  5
115
100
AcDbEntity
  8
Layer_1
 62
7
100
AcDbSpline
 70
8
 71
3
 72
8
 73
4
 74
0
 40
0
 40
0
 40
0
 40
0
 40
1
 40
1
 40
1
 40
1
 10
-489.429405
 20
-109.015608
 30
0.0
 10
-489.188987
 20
-108.775192
 30
0.0
 10
-488.862911
 20
-108.640129
 30
0.0
 10
-488.522910
 20
-108.640130
 30
0.0
  0
SPLINE
  5
116
100
AcDbEntity
  8
Layer_1
 62
7
100
AcDbSpline
 70
8
 71
3
 72
8
 73
4
 74
0
 40
0
 40
0
 40
0
 40
0
 40
1
 40
1
 40
1
 40
1
 10
-488.522910
 20
-108.640130
 30
0.0
 10
-487.814899
 20
-108.640133
 30
0.0
 10
-487.240943
 20
-109.214089
 30
0.0
 10
-487.240940
 20
-109.922100
 30
0.0
  0
LWPOLYLINE
  5
117
100
AcDbEntity
  8
Layer_1
 62
7
100
AcDbPolyline
 90
1
 70
1
 10
-487.240940
 20
422.882000
 30
0.0
  0
LWPOLYLINE
  5
118
100
AcDbEntity
  8
Layer_1
 62
7
100
AcDbPolyline
 90
1
 70
1
 10
-487.240940
 20
-109.922100
 30
0.0
  0
SPLINE
  5
119
100
AcDbEntity
  8
Layer_1
 62
7
100
AcDbSpline
 70
8
 71
3
 72
8
 73
4
 74
0
 40
0
 40
0
 40
0
 40
0
 40
1
 40
1
 40
1
 40
1
 10
-469.725800
 20
428.717569
 30
0.0
 10
-467.007760
 20
428.717569
 30
0.0
 10
-464.819600
 20
426.529406
 30
0.0
 10
-464.819600
 20
423.811374
 30
0.0
  0
LWPOLYLINE
  5
11a
100
AcDbEntity
  8
Layer_1
 62
7
100
AcDbPolyline
 90
2
 70
0
 10
-471.886720
 20
428.717569
 30
0.0
 10
-469.725800
 20
428.717569
 30
0.0
  0
SPLINE
  5
11b
100
AcDbEntity
  8
Layer_1
 62
7
100
AcDbSpline
 70
8
 71
3
 72
8
 73
4
 74
0
 40
0
 40
0
 40
0
 40
0
 40
1
 40
1
 40
1
 40
1
 10
-464.819600
 20
-111.349500
 30
0.0
 10
-464.819600
 20
-114.067530
 30
0.0
 10
-467.007760
 20
-116.255700
 30
0.0
 10
-469.725800
 20
-116.255700
 30
0.0
  0
LWPOLYLINE
  5
11c
100
AcDbEntity
  8
Layer_1
 62
7
100
AcDbPolyline
 90
2
 70
0
 10
-464.819600
 20
423.811374
 30
0.0
 10
-464.819600
 20
-111.349500
 30
0.0
  0
SPLINE
  5
11d
100
AcDbEntity
  8
Layer_1
 62
7
100
AcDbSpline
 70
8
 71
3
 72
8
 73
4
 74
0
 40
0
 40
0
 40
0
 40
0
 40
1
 40
1
 40
1
 40
1
 10
-471.886720
 20
-116.255700
 30
0.0
 10
-474.604750
 20
-116.255700
 30
0.0
 10
-476.792920
 20
-114.067530
 30
0.0
 10
-476.792920
 20
-111.349500
 30
0.0
  0
LWPOLYLINE
  5
11e
100
AcDbEntity
  8
Layer_1
 62
7
100
AcDbPolyline
 90
2
 70
0
 10
-469.725800
 20
-116.255700
 30
0.0
 10
-471.886720
 20
-116.255700
 30
0.0
  0
SPLINE
  5
11f
100
AcDbEntity
  8
Layer_1
 62
7
100
AcDbSpline
 70
8
 71
3
 72
8
 73
4
 74
0
 40
0
 40
0
 40
0
 40
0
 40
1
 40
1
 40
1
 40
1
 10
-476.792920
 20
423.811374
 30
0.0
 10
-476.792920
 20
426.529406
 30
0.0
 10
-474.604750
 20
428.717569
 30
0.0
 10
-471.886720
 20
428.717569
 30
0.0
  0
LWPOLYLINE
  5
120
100
AcDbEntity
  8
Layer_1
 62
7
100
AcDbPolyline
 90
2
 70
0
 10
-476.792920
 20
-111.349500
 30
0.0
 10
-476.792920
 20
423.811374
 30
0.0
  0
SPLINE
  5
121
100
AcDbEntity
  8
Layer_1
 62
7
100
AcDbSpline
 70
8
 71
3
 72
8
 73
4
 74
0
 40
0
 40
0
 40
0
 40
0
 40
1
 40
1
 40
1
 40
1
 10
-469.524280
 20
422.882000
 30
0.0
 10
-469.524279
 20
422.541999
 30
0.0
 10
-469.659342
 20
422.215923
 30
0.0
 10
-469.899758
 20
421.975505
 30
0.0
  0
SPLINE
  5
122
100
AcDbEntity
  8
Layer_1
 62
7
100
AcDbSpline
 70
8
 71
3
 72
8
 73
4
 74
0
 40
0
 40
0
 40
0
 40
0
 40
1
 40
1
 40
1
 40
1
 10
-469.899758
 20
421.975505
 30
0.0
 10
-470.140174
 20
421.735087
 30
0.0
 10
-470.466249
 20
421.600021
 30
0.0
 10
-470.806250
 20
421.600020
 30
0.0
  0
SPLINE
  5
123
100
AcDbEntity
  8
Layer_1
 62
7
100
AcDbSpline
 70
8
 71
3
 72
8
 73
4
 74
0
 40
0
 40
0
 40
0
 40
0
 40
1
 40
1
 40
1
 40
1
 10
-470.806250
 20
421.600020
 30
0.0
 10
-471.146253
 20
421.600019
 30
0.0
 10
-471.472330
 20
421.735083
 30
0.0
 10
-471.712748
 20
421.975502
 30
0.0
  0
SPLINE
  5
124
100
AcDbEntity
  8
Layer_1
 62
7
100
AcDbSpline
 70
8
 71
3
 72
8
 73
4
 74
0
 40
0
 40
0
 40
0
 40
0
 40
1
 40
1
 40
1
 40
1
 10
-471.712748
 20
421.975502
 30
0.0
 10
-471.953167
 20
422.215920
 30
0.0
 10
-472.088231
 20
422.541997
 30
0.0
 10
-472.088230
 20
422.882000
 30
0.0
  0
SPLINE
  5
125
100
AcDbEntity
  8
Layer_1
 62
7
100
AcDbSpline
 70
8
 71
3
 72
8
 73
4
 74
0
 40
0
 40
0
 40
0
 40
0
 40
1
 40
1
 40
1
 40
1
 10
-472.088230
 20
422.882000
 30
0.0
 10
-472.088229
 20
423.222001
 30
0.0
 10
-471.953163
 20
423.548077
 30
0.0
 10
-471.712746
 20
423.788493
 30
0.0
  0
SPLINE
  5
126
100
AcDbEntity
  8
Layer_1
 62
7
100
AcDbSpline
 70
8
 71
3
 72
8
 73
4
 74
0
 40
0
 40
0
 40
0
 40
0
 40
1
 40
1
 40
1
 40
1
 10
-471.712746
 20
423.788493
 30
0.0
 10
-471.472328
 20
424.028910
 30
0.0
 10
-471.146251
 20
424.163973
 30
0.0
 10
-470.806250
 20
424.163972
 30
0.0
  0
SPLINE
  5
127
100
AcDbEntity
  8
Layer_1
 62
7
100
AcDbSpline
 70
8
 71
3
 72
8
 73
4
 74
0
 40
0
 40
0
 40
0
 40
0
 40
1
 40
1
 40
1
 40
1
 10
-470.806250
 20
424.163972
 30
0.0
 10
-470.098238
 20
424.163969
 30
0.0
 10
-469.524281
 20
423.590012
 30
0.0
 10
-469.524280
 20
422.882000
 30
0.0
  0
LWPOLYLINE
  5
128
100
AcDbEntity
  8
Layer_1
 62
7
100
AcDbPolyline
 90
1
 70
1
 10
-471.886720
 20
428.717569
 30
0.0
  0
SPLINE
  5
129
100
AcDbEntity
  8
Layer_1
 62
7
100
AcDbSpline
 70
8
 71
3
 72
8
 73
4
 74
0
 40
0
 40
0
 40
0
 40
0
 40
1
 40
1
 40
1
 40
1
 10
-469.524280
 20
-109.922100
 30
0.0
 10
-469.524279
 20
-110.262101
 30
0.0
 10
-469.659342
 20
-110.588177
 30
0.0
 10
-469.899758
 20
-110.828595
 30
0.0
  0
SPLINE
  5
12a
100
AcDbEntity
  8
Layer_1
 62
7
100
AcDbSpline
 70
8
 71
3
 72
8
 73
4
 74
0
 40
0
 40
0
 40
0
 40
0
 40
1
 40
1
 40
1
 40
1
 10
-469.899758
 20
-110.828595
 30
0.0
 10
-470.140174
 20
-111.069013
 30
0.0
 10
-470.466249
 20
-111.204079
 30
0.0
 10
-470.806250
 20
-111.204080
 30
0.0
  0
SPLINE
  5
12b
100
AcDbEntity
  8
Layer_1
 62
7
100
AcDbSpline
 70
8
 71
3
 72
8
 73
4
 74
0
 40
0
 40
0
 40
0
 40
0
 40
1
 40
1
 40
1
 40
1
 10
-470.806250
 20
-111.204080
 30
0.0
 10
-471.146253
 20
-111.204081
 30
0.0
 10
-471.472330
 20
-111.069017
 30
0.0
 10
-471.712748
 20
-110.828598
 30
0.0
  0
SPLINE
  5
12c
100
AcDbEntity
  8
Layer_1
 62
7
100
AcDbSpline
 70
8
 71
3
 72
8
 73
4
 74
0
 40
0
 40
0
 40
0
 40
0
 40
1
 40
1
 40
1
 40
1
 10
-471.712748
 20
-110.828598
 30
0.0
 10
-471.953167
 20
-110.588180
 30
0.0
 10
-472.088231
 20
-110.262103
 30
0.0
 10
-472.088230
 20
-109.922100
 30
0.0
  0
SPLINE
  5
12d
100
AcDbEntity
  8
Layer_1
 62
7
100
AcDbSpline
 70
8
 71
3
 72
8
 73
4
 74
0
 40
0
 40
0
 40
0
 40
0
 40
1
 40
1
 40
1
 40
1
 10
-472.088230
 20
-109.922100
 30
0.0
 10
-472.088229
 20
-109.582099
 30
0.0
 10
-471.953163
 20
-109.256024
 30
0.0
 10
-471.712745
 20
-109.015608
 30
0.0
  0
SPLINE
  5
12e
100
AcDbEntity
  8
Layer_1
 62
7
100
AcDbSpline
 70
8
 71
3
 72
8
 73
4
 74
0
 40
0
 40
0
 40
0
 40
0
 40
1
 40
1
 40
1
 40
1
 10
-471.712745
 20
-109.015608
 30
0.0
 10
-471.472327
 20
-108.775192
 30
0.0
 10
-471.146251
 20
-108.640129
 30
0.0
 10
-470.806250
 20
-108.640130
 30
0.0
  0
SPLINE
  5
12f
100
AcDbEntity
  8
Layer_1
 62
7
100
AcDbSpline
 70
8
 71
3
 72
8
 73
4
 74
0
 40
0
 40
0
 40
0
 40
0
 40
1
 40
1
 40
1
 40
1
 10
-470.806250
 20
-108.640130
 30
0.0
 10
-470.098239
 20
-108.640133
 30
0.0
 10
-469.524283
 20
-109.214089
 30
0.0
 10
-469.524280
 20
-109.922100
 30
0.0
  0
LWPOLYLINE
  5
130
100
AcDbEntity
  8
Layer_1
 62
7
100
AcDbPolyline
 90
1
 70
1
 10
-469.524280
 20
422.882000
 30
0.0
  0
LWPOLYLINE
  5
131
100
AcDbEntity
  8
Layer_1
 62
7
100
AcDbPolyline
 90
1
 70
1
 10
-469.524280
 20
-109.922100
 30
0.0
  0
SPLINE
  5
132
100
AcDbEntity
  8
Layer_1
 62
7
100
AcDbSpline
 70
8
 71
3
 72
8
 73
4
 74
0
 40
0
 40
0
 40
0
 40
0
 40
1
 40
1
 40
1
 40
1
 10
-452.009150
 20
428.717569
 30
0.0
 10
-449.291110
 20
428.717569
 30
0.0
 10
-447.102950
 20
426.529406
 30
0.0
 10
-447.102950
 20
423.811374
 30
0.0
  0
LWPOLYLINE
  5
133
100
AcDbEntity
  8
Layer_1
 62
7
100
AcDbPolyline
 90
2
 70
0
 10
-454.170070
 20
428.717569
 30
0.0
 10
-452.009150
 20
428.717569
 30
0.0
  0
SPLINE
  5
134
100
AcDbEntity
  8
Layer_1
 62
7
100
AcDbSpline
 70
8
 71
3
 72
8
 73
4
 74
0
 40
0
 40
0
 40
0
 40
0
 40
1
 40
1
 40
1
 40
1
 10
-447.102950
 20
-111.349500
 30
0.0
 10
-447.102950
 20
-114.067530
 30
0.0
 10
-449.291110
 20
-116.255700
 30
0.0
 10
-452.009150
 20
-116.255700
 30
0.0
  0
LWPOLYLINE
  5
135
100
AcDbEntity
  8
Layer_1
 62
7
100
AcDbPolyline
 90
2
 70
0
 10
-447.102950
 20
423.811374
 30
0.0
 10
-447.102950
 20
-111.349500
 30
0.0
  0
SPLINE
  5
136
100
AcDbEntity
  8
Layer_1
 62
7
100
AcDbSpline
 70
8
 71
3
 72
8
 73
4
 74
0
 40
0
 40
0
 40
0
 40
0
 40
1
 40
1
 40
1
 40
1
 10
-454.170070
 20
-116.255700
 30
0.0
 10
-456.888100
 20
-116.255700
 30
0.0
 10
-459.076270
 20
-114.067530
 30
0.0
 10
-459.076270
 20
-111.349500
 30
0.0
  0
LWPOLYLINE
  5
137
100
AcDbEntity
  8
Layer_1
 62
7
100
AcDbPolyline
 90
2
 70
0
 10
-452.009150
 20
-116.255700
 30
0.0
 10
-454.170070
 20
-116.255700
 30
0.0
  0
SPLINE
  5
138
100
AcDbEntity
  8
Layer_1
 62
7
100
AcDbSpline
 70
8
 71
3
 72
8
 73
4
 74
0
 40
0
 40
0
 40
0
 40
0
 40
1
 40
1
 40
1
 40
1
 10
-459.076270
 20
423.811374
 30
0.0
 10
-459.076270
 20
426.529406
 30
0.0
 10
-456.888100
 20
428.717569
 30
0.0
 10
-454.170070
 20
428.717569
 30
0.0
  0
LWPOLYLINE
  5
139
100
AcDbEntity
  8
Layer_1
 62
7
100
AcDbPolyline
 90
2
 70
0
 10
-459.076270
 20
-111.349500
 30
0.0
 10
-459.076270
 20
423.811374
 30
0.0
  0
SPLINE
  5
13a
100
AcDbEntity
  8
Layer_1
 62
7
100
AcDbSpline
 70
8
 71
3
 72
8
 73
4
 74
0
 40
0
 40
0
 40
0
 40
0
 40
1
 40
1
 40
1
 40
1
 10
-451.807630
 20
422.882000
 30
0.0
 10
-451.807629
 20
422.541999
 30
0.0
 10
-451.942692
 20
422.215923
 30
0.0
 10
-452.183108
 20
421.975505
 30
0.0
  0
SPLINE
  5
13b
100
AcDbEntity
  8
Layer_1
 62
7
100
AcDbSpline
 70
8
 71
3
 72
8
 73
4
 74
0
 40
0
 40
0
 40
0
 40
0
 40
1
 40
1
 40
1
 40
1
 10
-452.183108
 20
421.975505
 30
0.0
 10
-452.423524
 20
421.735087
 30
0.0
 10
-452.749599
 20
421.600021
 30
0.0
 10
-453.089600
 20
421.600020
 30
0.0
  0
SPLINE
  5
13c
100
AcDbEntity
  8
Layer_1
 62
7
100
AcDbSpline
 70
8
 71
3
 72
8
 73
4
 74
0
 40
0
 40
0
 40
0
 40
0
 40
1
 40
1
 40
1
 40
1
 10
-453.089600
 20
421.600020
 30
0.0
 10
-453.429603
 20
421.600019
 30
0.0
 10
-453.755680
 20
421.735083
 30
0.0
 10
-453.996098
 20
421.975502
 30
0.0
  0
SPLINE
  5
13d
100
AcDbEntity
  8
Layer_1
 62
7
100
AcDbSpline
 70
8
 71
3
 72
8
 73
4
 74
0
 40
0
 40
0
 40
0
 40
0
 40
1
 40
1
 40
1
 40
1
 10
-453.996098
 20
421.975502
 30
0.0
 10
-454.236517
 20
422.215920
 30
0.0
 10
-454.371581
 20
422.541997
 30
0.0
 10
-454.371580
 20
422.882000
 30
0.0
  0
SPLINE
  5
13e
100
AcDbEntity
  8
Layer_1
 62
7
100
AcDbSpline
 70
8
 71
3
 72
8
 73
4
 74
0
 40
0
 40
0
 40
0
 40
0
 40
1
 40
1
 40
1
 40
1
 10
-454.371580
 20
422.882000
 30
0.0
 10
-454.371579
 20
423.222001
 30
0.0
 10
-454.236513
 20
423.548077
 30
0.0
 10
-453.996096
 20
423.788493
 30
0.0
  0
SPLINE
  5
13f
100
AcDbEntity
  8
Layer_1
 62
7
100
AcDbSpline
 70
8
 71
3
 72
8
 73
4
 74
0
 40
0
 40
0
 40
0
 40
0
 40
1
 40
1
 40
1
 40
1
 10
-453.996096
 20
423.788493
 30
0.0
 10
-453.755678
 20
424.028910
 30
0.0
 10
-453.429601
 20
424.163973
 30
0.0
 10
-453.089600
 20
424.163972
 30
0.0
  0
SPLINE
  5
140
100
AcDbEntity
  8
Layer_1
 62
7
100
AcDbSpline
 70
8
 71
3
 72
8
 73
4
 74
0
 40
0
 40
0
 40
0
 40
0
 40
1
 40
1
 40
1
 40
1
 10
-453.089600
 20
424.163972
 30
0.0
 10
-452.381588
 20
424.163969
 30
0.0
 10
-451.807631
 20
423.590012
 30
0.0
 10
-451.807630
 20
422.882000
 30
0.0
  0
LWPOLYLINE
  5
141
100
AcDbEntity
  8
Layer_1
 62
7
100
AcDbPolyline
 90
1
 70
1
 10
-454.170070
 20
428.717569
 30
0.0
  0
SPLINE
  5
142
100
AcDbEntity
  8
Layer_1
 62
7
100
AcDbSpline
 70
8
 71
3
 72
8
 73
4
 74
0
 40
0
 40
0
 40
0
 40
0
 40
1
 40
1
 40
1
 40
1
 10
-451.807630
 20
-109.922100
 30
0.0
 10
-451.807629
 20
-110.262101
 30
0.0
 10
-451.942692
 20
-110.588177
 30
0.0
 10
-452.183108
 20
-110.828595
 30
0.0
  0
SPLINE
  5
143
100
AcDbEntity
  8
Layer_1
 62
7
100
AcDbSpline
 70
8
 71
3
 72
8
 73
4
 74
0
 40
0
 40
0
 40
0
 40
0
 40
1
 40
1
 40
1
 40
1
 10
-452.183108
 20
-110.828595
 30
0.0
 10
-452.423524
 20
-111.069013
 30
0.0
 10
-452.749599
 20
-111.204079
 30
0.0
 10
-453.089600
 20
-111.204080
 30
0.0
  0
SPLINE
  5
144
100
AcDbEntity
  8
Layer_1
 62
7
100
AcDbSpline
 70
8
 71
3
 72
8
 73
4
 74
0
 40
0
 40
0
 40
0
 40
0
 40
1
 40
1
 40
1
 40
1
 10
-453.089600
 20
-111.204080
 30
0.0
 10
-453.429603
 20
-111.204081
 30
0.0
 10
-453.755680
 20
-111.069017
 30
0.0
 10
-453.996098
 20
-110.828598
 30
0.0
  0
SPLINE
  5
145
100
AcDbEntity
  8
Layer_1
 62
7
100
AcDbSpline
 70
8
 71
3
 72
8
 73
4
 74
0
 40
0
 40
0
 40
0
 40
0
 40
1
 40
1
 40
1
 40
1
 10
-453.996098
 20
-110.828598
 30
0.0
 10
-454.236517
 20
-110.588180
 30
0.0
 10
-454.371581
 20
-110.262103
 30
0.0
 10
-454.371580
 20
-109.922100
 30
0.0
  0
SPLINE
  5
146
100
AcDbEntity
  8
Layer_1
 62
7
100
AcDbSpline
 70
8
 71
3
 72
8
 73
4
 74
0
 40
0
 40
0
 40
0
 40
0
 40
1
 40
1
 40
1
 40
1
 10
-454.371580
 20
-109.922100
 30
0.0
 10
-454.371579
 20
-109.582099
 30
0.0
 10
-454.236513
 20
-109.256024
 30
0.0
 10
-453.996095
 20
-109.015608
 30
0.0
  0
SPLINE
  5
147
100
AcDbEntity
  8
Layer_1
 62
7
100
AcDbSpline
 70
8
 71
3
 72
8
 73
4
 74
0
 40
0
 40
0
 40
0
 40
0
 40
1
 40
1
 40
1
 40
1
 10
-453.996095
 20
-109.015608
 30
0.0
 10
-453.755677
 20
-108.775192
 30
0.0
 10
-453.429601
 20
-108.640129
 30
0.0
 10
-453.089600
 20
-108.640130
 30
0.0
  0
SPLINE
  5
148
100
AcDbEntity
  8
Layer_1
 62
7
100
AcDbSpline
 70
8
 71
3
 72
8
 73
4
 74
0
 40
0
 40
0
 40
0
 40
0
 40
1
 40
1
 40
1
 40
1
 10
-453.089600
 20
-108.640130
 30
0.0
 10
-452.381589
 20
-108.640133
 30
0.0
 10
-451.807633
 20
-109.214089
 30
0.0
 10
-451.807630
 20
-109.922100
 30
0.0
  0
LWPOLYLINE
  5
149
100
AcDbEntity
  8
Layer_1
 62
7
100
AcDbPolyline
 90
1
 70
1
 10
-451.807630
 20
422.882000
 30
0.0
  0
LWPOLYLINE
  5
14a
100
AcDbEntity
  8
Layer_1
 62
7
100
AcDbPolyline
 90
1
 70
1
 10
-451.807630
 20
-109.922100
 30
0.0
  0
SPLINE
  5
14b
100
AcDbEntity
  8
Layer_1
 62
7
100
AcDbSpline
 70
8
 71
3
 72
8
 73
4
 74
0
 40
0
 40
0
 40
0
 40
0
 40
1
 40
1
 40
1
 40
1
 10
-416.575830
 20
428.717569
 30
0.0
 10
-413.857790
 20
428.717569
 30
0.0
 10
-411.669630
 20
426.529406
 30
0.0
 10
-411.669630
 20
423.811374
 30
0.0
  0
LWPOLYLINE
  5
14c
100
AcDbEntity
  8
Layer_1
 62
7
100
AcDbPolyline
 90
2
 70
0
 10
-418.736750
 20
428.717569
 30
0.0
 10
-416.575830
 20
428.717569
 30
0.0
  0
SPLINE
  5
14d
100
AcDbEntity
  8
Layer_1
 62
7
100
AcDbSpline
 70
8
 71
3
 72
8
 73
4
 74
0
 40
0
 40
0
 40
0
 40
0
 40
1
 40
1
 40
1
 40
1
 10
-411.669630
 20
-111.349500
 30
0.0
 10
-411.669630
 20
-114.067530
 30
0.0
 10
-413.857790
 20
-116.255700
 30
0.0
 10
-416.575830
 20
-116.255700
 30
0.0
  0
LWPOLYLINE
  5
14e
100
AcDbEntity
  8
Layer_1
 62
7
100
AcDbPolyline
 90
2
 70
0
 10
-411.669630
 20
423.811374
 30
0.0
 10
-411.669630
 20
-111.349500
 30
0.0
  0
SPLINE
  5
14f
100
AcDbEntity
  8
Layer_1
 62
7
100
AcDbSpline
 70
8
 71
3
 72
8
 73
4
 74
0
 40
0
 40
0
 40
0
 40
0
 40
1
 40
1
 40
1
 40
1
 10
-418.736750
 20
-116.255700
 30
0.0
 10
-421.454780
 20
-116.255700
 30
0.0
 10
-423.642950
 20
-114.067530
 30
0.0
 10
-423.642950
 20
-111.349500
 30
0.0
  0
LWPOLYLINE
  5
150
100
AcDbEntity
  8
Layer_1
 62
7
100
AcDbPolyline
 90
2
 70
0
 10
-416.575830
 20
-116.255700
 30
0.0
 10
-418.736750
 20
-116.255700
 30
0.0
  0
SPLINE
  5
151
100
AcDbEntity
  8
Layer_1
 62
7
100
AcDbSpline
 70
8
 71
3
 72
8
 73
4
 74
0
 40
0
 40
0
 40
0
 40
0
 40
1
 40
1
 40
1
 40
1
 10
-423.642950
 20
423.811374
 30
0.0
 10
-423.642950
 20
426.529406
 30
0.0
 10
-421.454780
 20
428.717569
 30
0.0
 10
-418.736750
 20
428.717569
 30
0.0
  0
LWPOLYLINE
  5
152
100
AcDbEntity
  8
Layer_1
 62
7
100
AcDbPolyline
 90
2
 70
0
 10
-423.642950
 20
-111.349500
 30
0.0
 10
-423.642950
 20
423.811374
 30
0.0
  0
SPLINE
  5
153
100
AcDbEntity
  8
Layer_1
 62
7
100
AcDbSpline
 70
8
 71
3
 72
8
 73
4
 74
0
 40
0
 40
0
 40
0
 40
0
 40
1
 40
1
 40
1
 40
1
 10
-416.374310
 20
422.882000
 30
0.0
 10
-416.374309
 20
422.541999
 30
0.0
 10
-416.509372
 20
422.215923
 30
0.0
 10
-416.749788
 20
421.975505
 30
0.0
  0
SPLINE
  5
154
100
AcDbEntity
  8
Layer_1
 62
7
100
AcDbSpline
 70
8
 71
3
 72
8
 73
4
 74
0
 40
0
 40
0
 40
0
 40
0
 40
1
 40
1
 40
1
 40
1
 10
-416.749788
 20
421.975505
 30
0.0
 10
-416.990204
 20
421.735087
 30
0.0
 10
-417.316279
 20
421.600021
 30
0.0
 10
-417.656280
 20
421.600020
 30
0.0
  0
SPLINE
  5
155
100
AcDbEntity
  8
Layer_1
 62
7
100
AcDbSpline
 70
8
 71
3
 72
8
 73
4
 74
0
 40
0
 40
0
 40
0
 40
0
 40
1
 40
1
 40
1
 40
1
 10
-417.656280
 20
421.600020
 30
0.0
 10
-417.996283
 20
421.600019
 30
0.0
 10
-418.322360
 20
421.735083
 30
0.0
 10
-418.562778
 20
421.975502
 30
0.0
  0
SPLINE
  5
156
100
AcDbEntity
  8
Layer_1
 62
7
100
AcDbSpline
 70
8
 71
3
 72
8
 73
4
 74
0
 40
0
 40
0
 40
0
 40
0
 40
1
 40
1
 40
1
 40
1
 10
-418.562778
 20
421.975502
 30
0.0
 10
-418.803197
 20
422.215920
 30
0.0
 10
-418.938261
 20
422.541997
 30
0.0
 10
-418.938260
 20
422.882000
 30
0.0
  0
SPLINE
  5
157
100
AcDbEntity
  8
Layer_1
 62
7
100
AcDbSpline
 70
8
 71
3
 72
8
 73
4
 74
0
 40
0
 40
0
 40
0
 40
0
 40
1
 40
1
 40
1
 40
1
 10
-418.938260
 20
422.882000
 30
0.0
 10
-418.938259
 20
423.222001
 30
0.0
 10
-418.803193
 20
423.548077
 30
0.0
 10
-418.562776
 20
423.788493
 30
0.0
  0
SPLINE
  5
158
100
AcDbEntity
  8
Layer_1
 62
7
100
AcDbSpline
 70
8
 71
3
 72
8
 73
4
 74
0
 40
0
 40
0
 40
0
 40
0
 40
1
 40
1
 40
1
 40
1
 10
-418.562776
 20
423.788493
 30
0.0
 10
-418.322358
 20
424.028910
 30
0.0
 10
-417.996281
 20
424.163973
 30
0.0
 10
-417.656280
 20
424.163972
 30
0.0
  0
SPLINE
  5
159
100
AcDbEntity
  8
Layer_1
 62
7
100
AcDbSpline
 70
8
 71
3
 72
8
 73
4
 74
0
 40
0
 40
0
 40
0
 40
0
 40
1
 40
1
 40
1
 40
1
 10
-417.656280
 20
424.163972
 30
0.0
 10
-416.948268
 20
424.163969
 30
0.0
 10
-416.374311
 20
423.590012
 30
0.0
 10
-416.374310
 20
422.882000
 30
0.0
  0
LWPOLYLINE
  5
15a
100
AcDbEntity
  8
Layer_1
 62
7
100
AcDbPolyline
 90
1
 70
1
 10
-418.736750
 20
428.717569
 30
0.0
  0
SPLINE
  5
15b
100
AcDbEntity
  8
Layer_1
 62
7
100
AcDbSpline
 70
8
 71
3
 72
8
 73
4
 74
0
 40
0
 40
0
 40
0
 40
0
 40
1
 40
1
 40
1
 40
1
 10
-416.374310
 20
-109.922100
 30
0.0
 10
-416.374309
 20
-110.262101
 30
0.0
 10
-416.509372
 20
-110.588177
 30
0.0
 10
-416.749788
 20
-110.828595
 30
0.0
  0
SPLINE
  5
15c
100
AcDbEntity
  8
Layer_1
 62
7
100
AcDbSpline
 70
8
 71
3
 72
8
 73
4
 74
0
 40
0
 40
0
 40
0
 40
0
 40
1
 40
1
 40
1
 40
1
 10
-416.749788
 20
-110.828595
 30
0.0
 10
-416.990204
 20
-111.069013
 30
0.0
 10
-417.316279
 20
-111.204079
 30
0.0
 10
-417.656280
 20
-111.204080
 30
0.0
  0
SPLINE
  5
15d
100
AcDbEntity
  8
Layer_1
 62
7
100
AcDbSpline
 70
8
 71
3
 72
8
 73
4
 74
0
 40
0
 40
0
 40
0
 40
0
 40
1
 40
1
 40
1
 40
1
 10
-417.656280
 20
-111.204080
 30
0.0
 10
-417.996283
 20
-111.204081
 30
0.0
 10
-418.322360
 20
-111.069017
 30
0.0
 10
-418.562778
 20
-110.828598
 30
0.0
  0
SPLINE
  5
15e
100
AcDbEntity
  8
Layer_1
 62
7
100
AcDbSpline
 70
8
 71
3
 72
8
 73
4
 74
0
 40
0
 40
0
 40
0
 40
0
 40
1
 40
1
 40
1
 40
1
 10
-418.562778
 20
-110.828598
 30
0.0
 10
-418.803197
 20
-110.588180
 30
0.0
 10
-418.938261
 20
-110.262103
 30
0.0
 10
-418.938260
 20
-109.922100
 30
0.0
  0
SPLINE
  5
15f
100
AcDbEntity
  8
Layer_1
 62
7
100
AcDbSpline
 70
8
 71
3
 72
8
 73
4
 74
0
 40
0
 40
0
 40
0
 40
0
 40
1
 40
1
 40
1
 40
1
 10
-418.938260
 20
-109.922100
 30
0.0
 10
-418.938259
 20
-109.582099
 30
0.0
 10
-418.803193
 20
-109.256024
 30
0.0
 10
-418.562775
 20
-109.015608
 30
0.0
  0
SPLINE
  5
160
100
AcDbEntity
  8
Layer_1
 62
7
100
AcDbSpline
 70
8
 71
3
 72
8
 73
4
 74
0
 40
0
 40
0
 40
0
 40
0
 40
1
 40
1
 40
1
 40
1
 10
-418.562775
 20
-109.015608
 30
0.0
 10
-418.322357
 20
-108.775192
 30
0.0
 10
-417.996281
 20
-108.640129
 30
0.0
 10
-417.656280
 20
-108.640130
 30
0.0
  0
SPLINE
  5
161
100
AcDbEntity
  8
Layer_1
 62
7
100
AcDbSpline
 70
8
 71
3
 72
8
 73
4
 74
0
 40
0
 40
0
 40
0
 40
0
 40
1
 40
1
 40
1
 40
1
 10
-417.656280
 20
-108.640130
 30
0.0
 10
-416.948269
 20
-108.640133
 30
0.0
 10
-416.374313
 20
-109.214089
 30
0.0
 10
-416.374310
 20
-109.922100
 30
0.0
  0
LWPOLYLINE
  5
162
100
AcDbEntity
  8
Layer_1
 62
7
100
AcDbPolyline
 90
1
 70
1
 10
-416.374310
 20
422.882000
 30
0.0
  0
LWPOLYLINE
  5
163
100
AcDbEntity
  8
Layer_1
 62
7
100
AcDbPolyline
 90
1
 70
1
 10
-416.374310
 20
-109.922100
 30
0.0
  0
SPLINE
  5
164
100
AcDbEntity
  8
Layer_1
 62
7
100
AcDbSpline
 70
8
 71
3
 72
8
 73
4
 74
0
 40
0
 40
0
 40
0
 40
0
 40
1
 40
1
 40
1
 40
1
 10
-398.859220
 20
428.717569
 30
0.0
 10
-396.141180
 20
428.717569
 30
0.0
 10
-393.953020
 20
426.529406
 30
0.0
 10
-393.953020
 20
423.811374
 30
0.0
  0
LWPOLYLINE
  5
165
100
AcDbEntity
  8
Layer_1
 62
7
100
AcDbPolyline
 90
2
 70
0
 10
-401.020140
 20
428.717569
 30
0.0
 10
-398.859220
 20
428.717569
 30
0.0
  0
SPLINE
  5
166
100
AcDbEntity
  8
Layer_1
 62
7
100
AcDbSpline
 70
8
 71
3
 72
8
 73
4
 74
0
 40
0
 40
0
 40
0
 40
0
 40
1
 40
1
 40
1
 40
1
 10
-393.953020
 20
-111.349500
 30
0.0
 10
-393.953020
 20
-114.067530
 30
0.0
 10
-396.141180
 20
-116.255700
 30
0.0
 10
-398.859220
 20
-116.255700
 30
0.0
  0
LWPOLYLINE
  5
167
100
AcDbEntity
  8
Layer_1
 62
7
100
AcDbPolyline
 90
2
 70
0
 10
-393.953020
 20
423.811374
 30
0.0
 10
-393.953020
 20
-111.349500
 30
0.0
  0
SPLINE
  5
168
100
AcDbEntity
  8
Layer_1
 62
7
100
AcDbSpline
 70
8
 71
3
 72
8
 73
4
 74
0
 40
0
 40
0
 40
0
 40
0
 40
1
 40
1
 40
1
 40
1
 10
-401.020140
 20
-116.255700
 30
0.0
 10
-403.738170
 20
-116.255700
 30
0.0
 10
-405.926340
 20
-114.067530
 30
0.0
 10
-405.926340
 20
-111.349500
 30
0.0
  0
LWPOLYLINE
  5
169
100
AcDbEntity
  8
Layer_1
 62
7
100
AcDbPolyline
 90
2
 70
0
 10
-398.859220
 20
-116.255700
 30
0.0
 10
-401.020140
 20
-116.255700
 30
0.0
  0
SPLINE
  5
16a
100
AcDbEntity
  8
Layer_1
 62
7
100
AcDbSpline
 70
8
 71
3
 72
8
 73
4
 74
0
 40
0
 40
0
 40
0
 40
0
 40
1
 40
1
 40
1
 40
1
 10
-405.926340
 20
423.811374
 30
0.0
 10
-405.926340
 20
426.529406
 30
0.0
 10
-403.738170
 20
428.717569
 30
0.0
 10
-401.020140
 20
428.717569
 30
0.0
  0
LWPOLYLINE
  5
16b
100
AcDbEntity
  8
Layer_1
 62
7
100
AcDbPolyline
 90
2
 70
0
 10
-405.926340
 20
-111.349500
 30
0.0
 10
-405.926340
 20
423.811374
 30
0.0
  0
SPLINE
  5
16c
100
AcDbEntity
  8
Layer_1
 62
7
100
AcDbSpline
 70
8
 71
3
 72
8
 73
4
 74
0
 40
0
 40
0
 40
0
 40
0
 40
1
 40
1
 40
1
 40
1
 10
-398.657700
 20
422.882000
 30
0.0
 10
-398.657699
 20
422.541999
 30
0.0
 10
-398.792762
 20
422.215923
 30
0.0
 10
-399.033178
 20
421.975505
 30
0.0
  0
SPLINE
  5
16d
100
AcDbEntity
  8
Layer_1
 62
7
100
AcDbSpline
 70
8
 71
3
 72
8
 73
4
 74
0
 40
0
 40
0
 40
0
 40
0
 40
1
 40
1
 40
1
 40
1
 10
-399.033178
 20
421.975505
 30
0.0
 10
-399.273594
 20
421.735087
 30
0.0
 10
-399.599669
 20
421.600021
 30
0.0
 10
-399.939670
 20
421.600020
 30
0.0
  0
SPLINE
  5
16e
100
AcDbEntity
  8
Layer_1
 62
7
100
AcDbSpline
 70
8
 71
3
 72
8
 73
4
 74
0
 40
0
 40
0
 40
0
 40
0
 40
1
 40
1
 40
1
 40
1
 10
-399.939670
 20
421.600020
 30
0.0
 10
-400.279673
 20
421.600019
 30
0.0
 10
-400.605750
 20
421.735083
 30
0.0
 10
-400.846168
 20
421.975502
 30
0.0
  0
SPLINE
  5
16f
100
AcDbEntity
  8
Layer_1
 62
7
100
AcDbSpline
 70
8
 71
3
 72
8
 73
4
 74
0
 40
0
 40
0
 40
0
 40
0
 40
1
 40
1
 40
1
 40
1
 10
-400.846168
 20
421.975502
 30
0.0
 10
-401.086587
 20
422.215920
 30
0.0
 10
-401.221651
 20
422.541997
 30
0.0
 10
-401.221650
 20
422.882000
 30
0.0
  0
SPLINE
  5
170
100
AcDbEntity
  8
Layer_1
 62
7
100
AcDbSpline
 70
8
 71
3
 72
8
 73
4
 74
0
 40
0
 40
0
 40
0
 40
0
 40
1
 40
1
 40
1
 40
1
 10
-401.221650
 20
422.882000
 30
0.0
 10
-401.221649
 20
423.222001
 30
0.0
 10
-401.086583
 20
423.548077
 30
0.0
 10
-400.846166
 20
423.788493
 30
0.0
  0
SPLINE
  5
171
100
AcDbEntity
  8
Layer_1
 62
7
100
AcDbSpline
 70
8
 71
3
 72
8
 73
4
 74
0
 40
0
 40
0
 40
0
 40
0
 40
1
 40
1
 40
1
 40
1
 10
-400.846166
 20
423.788493
 30
0.0
 10
-400.605748
 20
424.028910
 30
0.0
 10
-400.279671
 20
424.163973
 30
0.0
 10
-399.939670
 20
424.163972
 30
0.0
  0
SPLINE
  5
172
100
AcDbEntity
  8
Layer_1
 62
7
100
AcDbSpline
 70
8
 71
3
 72
8
 73
4
 74
0
 40
0
 40
0
 40
0
 40
0
 40
1
 40
1
 40
1
 40
1
 10
-399.939670
 20
424.163972
 30
0.0
 10
-399.231658
 20
424.163969
 30
0.0
 10
-398.657701
 20
423.590012
 30
0.0
 10
-398.657700
 20
422.882000
 30
0.0
  0
LWPOLYLINE
  5
173
100
AcDbEntity
  8
Layer_1
 62
7
100
AcDbPolyline
 90
1
 70
1
 10
-401.020140
 20
428.717569
 30
0.0
  0
SPLINE
  5
174
100
AcDbEntity
  8
Layer_1
 62
7
100
AcDbSpline
 70
8
 71
3
 72
8
 73
4
 74
0
 40
0
 40
0
 40
0
 40
0
 40
1
 40
1
 40
1
 40
1
 10
-398.657700
 20
-109.922100
 30
0.0
 10
-398.657699
 20
-110.262101
 30
0.0
 10
-398.792762
 20
-110.588177
 30
0.0
 10
-399.033178
 20
-110.828595
 30
0.0
  0
SPLINE
  5
175
100
AcDbEntity
  8
Layer_1
 62
7
100
AcDbSpline
 70
8
 71
3
 72
8
 73
4
 74
0
 40
0
 40
0
 40
0
 40
0
 40
1
 40
1
 40
1
 40
1
 10
-399.033178
 20
-110.828595
 30
0.0
 10
-399.273594
 20
-111.069013
 30
0.0
 10
-399.599669
 20
-111.204079
 30
0.0
 10
-399.939670
 20
-111.204080
 30
0.0
  0
SPLINE
  5
176
100
AcDbEntity
  8
Layer_1
 62
7
100
AcDbSpline
 70
8
 71
3
 72
8
 73
4
 74
0
 40
0
 40
0
 40
0
 40
0
 40
1
 40
1
 40
1
 40
1
 10
-399.939670
 20
-111.204080
 30
0.0
 10
-400.279673
 20
-111.204081
 30
0.0
 10
-400.605750
 20
-111.069017
 30
0.0
 10
-400.846168
 20
-110.828598
 30
0.0
  0
SPLINE
  5
177
100
AcDbEntity
  8
Layer_1
 62
7
100
AcDbSpline
 70
8
 71
3
 72
8
 73
4
 74
0
 40
0
 40
0
 40
0
 40
0
 40
1
 40
1
 40
1
 40
1
 10
-400.846168
 20
-110.828598
 30
0.0
 10
-401.086587
 20
-110.588180
 30
0.0
 10
-401.221651
 20
-110.262103
 30
0.0
 10
-401.221650
 20
-109.922100
 30
0.0
  0
SPLINE
  5
178
100
AcDbEntity
  8
Layer_1
 62
7
100
AcDbSpline
 70
8
 71
3
 72
8
 73
4
 74
0
 40
0
 40
0
 40
0
 40
0
 40
1
 40
1
 40
1
 40
1
 10
-401.221650
 20
-109.922100
 30
0.0
 10
-401.221649
 20
-109.582099
 30
0.0
 10
-401.086583
 20
-109.256024
 30
0.0
 10
-400.846165
 20
-109.015608
 30
0.0
  0
SPLINE
  5
179
100
AcDbEntity
  8
Layer_1
 62
7
100
AcDbSpline
 70
8
 71
3
 72
8
 73
4
 74
0
 40
0
 40
0
 40
0
 40
0
 40
1
 40
1
 40
1
 40
1
 10
-400.846165
 20
-109.015608
 30
0.0
 10
-400.605747
 20
-108.775192
 30
0.0
 10
-400.279671
 20
-108.640129
 30
0.0
 10
-399.939670
 20
-108.640130
 30
0.0
  0
SPLINE
  5
17a
100
AcDbEntity
  8
Layer_1
 62
7
100
AcDbSpline
 70
8
 71
3
 72
8
 73
4
 74
0
 40
0
 40
0
 40
0
 40
0
 40
1
 40
1
 40
1
 40
1
 10
-399.939670
 20
-108.640130
 30
0.0
 10
-399.231659
 20
-108.640133
 30
0.0
 10
-398.657703
 20
-109.214089
 30
0.0
 10
-398.657700
 20
-109.922100
 30
0.0
  0
LWPOLYLINE
  5
17b
100
AcDbEntity
  8
Layer_1
 62
7
100
AcDbPolyline
 90
1
 70
1
 10
-398.657700
 20
422.882000
 30
0.0
  0
LWPOLYLINE
  5
17c
100
AcDbEntity
  8
Layer_1
 62
7
100
AcDbPolyline
 90
1
 70
1
 10
-398.657700
 20
-109.922100
 30
0.0
  0
SPLINE
  5
17d
100
AcDbEntity
  8
Layer_1
 62
7
100
AcDbSpline
 70
8
 71
3
 72
8
 73
4
 74
0
 40
0
 40
0
 40
0
 40
0
 40
1
 40
1
 40
1
 40
1
 10
-434.292530
 20
428.717569
 30
0.0
 10
-431.574490
 20
428.717569
 30
0.0
 10
-429.386330
 20
426.529406
 30
0.0
 10
-429.386330
 20
423.811374
 30
0.0
  0
LWPOLYLINE
  5
17e
100
AcDbEntity
  8
Layer_1
 62
7
100
AcDbPolyline
 90
2
 70
0
 10
-436.453450
 20
428.717569
 30
0.0
 10
-434.292530
 20
428.717569
 30
0.0
  0
SPLINE
  5
17f
100
AcDbEntity
  8
Layer_1
 62
7
100
AcDbSpline
 70
8
 71
3
 72
8
 73
4
 74
0
 40
0
 40
0
 40
0
 40
0
 40
1
 40
1
 40
1
 40
1
 10
-429.386330
 20
-111.349500
 30
0.0
 10
-429.386330
 20
-114.067530
 30
0.0
 10
-431.574490
 20
-116.255700
 30
0.0
 10
-434.292530
 20
-116.255700
 30
0.0
  0
LWPOLYLINE
  5
180
100
AcDbEntity
  8
Layer_1
 62
7
100
AcDbPolyline
 90
2
 70
0
 10
-429.386330
 20
423.811374
 30
0.0
 10
-429.386330
 20
-111.349500
 30
0.0
  0
SPLINE
  5
181
100
AcDbEntity
  8
Layer_1
 62
7
100
AcDbSpline
 70
8
 71
3
 72
8
 73
4
 74
0
 40
0
 40
0
 40
0
 40
0
 40
1
 40
1
 40
1
 40
1
 10
-436.453450
 20
-116.255700
 30
0.0
 10
-439.171480
 20
-116.255700
 30
0.0
 10
-441.359650
 20
-114.067530
 30
0.0
 10
-441.359650
 20
-111.349500
 30
0.0
  0
LWPOLYLINE
  5
182
100
AcDbEntity
  8
Layer_1
 62
7
100
AcDbPolyline
 90
2
 70
0
 10
-434.292530
 20
-116.255700
 30
0.0
 10
-436.453450
 20
-116.255700
 30
0.0
  0
SPLINE
  5
183
100
AcDbEntity
  8
Layer_1
 62
7
100
AcDbSpline
 70
8
 71
3
 72
8
 73
4
 74
0
 40
0
 40
0
 40
0
 40
0
 40
1
 40
1
 40
1
 40
1
 10
-441.359650
 20
423.811374
 30
0.0
 10
-441.359650
 20
426.529406
 30
0.0
 10
-439.171480
 20
428.717569
 30
0.0
 10
-436.453450
 20
428.717569
 30
0.0
  0
LWPOLYLINE
  5
184
100
AcDbEntity
  8
Layer_1
 62
7
100
AcDbPolyline
 90
2
 70
0
 10
-441.359650
 20
-111.349500
 30
0.0
 10
-441.359650
 20
423.811374
 30
0.0
  0
SPLINE
  5
185
100
AcDbEntity
  8
Layer_1
 62
7
100
AcDbSpline
 70
8
 71
3
 72
8
 73
4
 74
0
 40
0
 40
0
 40
0
 40
0
 40
1
 40
1
 40
1
 40
1
 10
-434.091010
 20
422.882000
 30
0.0
 10
-434.091009
 20
422.541999
 30
0.0
 10
-434.226072
 20
422.215923
 30
0.0
 10
-434.466488
 20
421.975505
 30
0.0
  0
SPLINE
  5
186
100
AcDbEntity
  8
Layer_1
 62
7
100
AcDbSpline
 70
8
 71
3
 72
8
 73
4
 74
0
 40
0
 40
0
 40
0
 40
0
 40
1
 40
1
 40
1
 40
1
 10
-434.466488
 20
421.975505
 30
0.0
 10
-434.706904
 20
421.735087
 30
0.0
 10
-435.032979
 20
421.600021
 30
0.0
 10
-435.372980
 20
421.600020
 30
0.0
  0
SPLINE
  5
187
100
AcDbEntity
  8
Layer_1
 62
7
100
AcDbSpline
 70
8
 71
3
 72
8
 73
4
 74
0
 40
0
 40
0
 40
0
 40
0
 40
1
 40
1
 40
1
 40
1
 10
-435.372980
 20
421.600020
 30
0.0
 10
-435.712983
 20
421.600019
 30
0.0
 10
-436.039060
 20
421.735083
 30
0.0
 10
-436.279478
 20
421.975502
 30
0.0
  0
SPLINE
  5
188
100
AcDbEntity
  8
Layer_1
 62
7
100
AcDbSpline
 70
8
 71
3
 72
8
 73
4
 74
0
 40
0
 40
0
 40
0
 40
0
 40
1
 40
1
 40
1
 40
1
 10
-436.279478
 20
421.975502
 30
0.0
 10
-436.519897
 20
422.215920
 30
0.0
 10
-436.654961
 20
422.541997
 30
0.0
 10
-436.654960
 20
422.882000
 30
0.0
  0
SPLINE
  5
189
100
AcDbEntity
  8
Layer_1
 62
7
100
AcDbSpline
 70
8
 71
3
 72
8
 73
4
 74
0
 40
0
 40
0
 40
0
 40
0
 40
1
 40
1
 40
1
 40
1
 10
-436.654960
 20
422.882000
 30
0.0
 10
-436.654959
 20
423.222001
 30
0.0
 10
-436.519893
 20
423.548077
 30
0.0
 10
-436.279476
 20
423.788493
 30
0.0
  0
SPLINE
  5
18a
100
AcDbEntity
  8
Layer_1
 62
7
100
AcDbSpline
 70
8
 71
3
 72
8
 73
4
 74
0
 40
0
 40
0
 40
0
 40
0
 40
1
 40
1
 40
1
 40
1
 10
-436.279476
 20
423.788493
 30
0.0
 10
-436.039058
 20
424.028910
 30
0.0
 10
-435.712981
 20
424.163973
 30
0.0
 10
-435.372980
 20
424.163972
 30
0.0
  0
SPLINE
  5
18b
100
AcDbEntity
  8
Layer_1
 62
7
100
AcDbSpline
 70
8
 71
3
 72
8
 73
4
 74
0
 40
0
 40
0
 40
0
 40
0
 40
1
 40
1
 40
1
 40
1
 10
-435.372980
 20
424.163972
 30
0.0
 10
-434.664968
 20
424.163969
 30
0.0
 10
-434.091011
 20
423.590012
 30
0.0
 10
-434.091010
 20
422.882000
 30
0.0
  0
LWPOLYLINE
  5
18c
100
AcDbEntity
  8
Layer_1
 62
7
100
AcDbPolyline
 90
1
 70
1
 10
-436.453450
 20
428.717569
 30
0.0
  0
SPLINE
  5
18d
100
AcDbEntity
  8
Layer_1
 62
7
100
AcDbSpline
 70
8
 71
3
 72
8
 73
4
 74
0
 40
0
 40
0
 40
0
 40
0
 40
1
 40
1
 40
1
 40
1
 10
-434.091010
 20
-109.922100
 30
0.0
 10
-434.091009
 20
-110.262101
 30
0.0
 10
-434.226072
 20
-110.588177
 30
0.0
 10
-434.466488
 20
-110.828595
 30
0.0
  0
SPLINE
  5
18e
100
AcDbEntity
  8
Layer_1
 62
7
100
AcDbSpline
 70
8
 71
3
 72
8
 73
4
 74
0
 40
0
 40
0
 40
0
 40
0
 40
1
 40
1
 40
1
 40
1
 10
-434.466488
 20
-110.828595
 30
0.0
 10
-434.706904
 20
-111.069013
 30
0.0
 10
-435.032979
 20
-111.204079
 30
0.0
 10
-435.372980
 20
-111.204080
 30
0.0
  0
SPLINE
  5
18f
100
AcDbEntity
  8
Layer_1
 62
7
100
AcDbSpline
 70
8
 71
3
 72
8
 73
4
 74
0
 40
0
 40
0
 40
0
 40
0
 40
1
 40
1
 40
1
 40
1
 10
-435.372980
 20
-111.204080
 30
0.0
 10
-435.712983
 20
-111.204081
 30
0.0
 10
-436.039060
 20
-111.069017
 30
0.0
 10
-436.279478
 20
-110.828598
 30
0.0
  0
SPLINE
  5
190
100
AcDbEntity
  8
Layer_1
 62
7
100
AcDbSpline
 70
8
 71
3
 72
8
 73
4
 74
0
 40
0
 40
0
 40
0
 40
0
 40
1
 40
1
 40
1
 40
1
 10
-436.279478
 20
-110.828598
 30
0.0
 10
-436.519897
 20
-110.588180
 30
0.0
 10
-436.654961
 20
-110.262103
 30
0.0
 10
-436.654960
 20
-109.922100
 30
0.0
  0
SPLINE
  5
191
100
AcDbEntity
  8
Layer_1
 62
7
100
AcDbSpline
 70
8
 71
3
 72
8
 73
4
 74
0
 40
0
 40
0
 40
0
 40
0
 40
1
 40
1
 40
1
 40
1
 10
-436.654960
 20
-109.922100
 30
0.0
 10
-436.654959
 20
-109.582099
 30
0.0
 10
-436.519893
 20
-109.256024
 30
0.0
 10
-436.279475
 20
-109.015608
 30
0.0
  0
SPLINE
  5
192
100
AcDbEntity
  8
Layer_1
 62
7
100
AcDbSpline
 70
8
 71
3
 72
8
 73
4
 74
0
 40
0
 40
0
 40
0
 40
0
 40
1
 40
1
 40
1
 40
1
 10
-436.279475
 20
-109.015608
 30
0.0
 10
-436.039057
 20
-108.775192
 30
0.0
 10
-435.712981
 20
-108.640129
 30
0.0
 10
-435.372980
 20
-108.640130
 30
0.0
  0
SPLINE
  5
193
100
AcDbEntity
  8
Layer_1
 62
7
100
AcDbSpline
 70
8
 71
3
 72
8
 73
4
 74
0
 40
0
 40
0
 40
0
 40
0
 40
1
 40
1
 40
1
 40
1
 10
-435.372980
 20
-108.640130
 30
0.0
 10
-434.664969
 20
-108.640133
 30
0.0
 10
-434.091013
 20
-109.214089
 30
0.0
 10
-434.091010
 20
-109.922100
 30
0.0
  0
LWPOLYLINE
  5
194
100
AcDbEntity
  8
Layer_1
 62
7
100
AcDbPolyline
 90
1
 70
1
 10
-434.091010
 20
422.882000
 30
0.0
  0
LWPOLYLINE
  5
195
100
AcDbEntity
  8
Layer_1
 62
7
100
AcDbPolyline
 90
1
 70
1
 10
-434.091010
 20
-109.922100
 30
0.0
  0
SPLINE
  5
196
100
AcDbEntity
  8
Layer_1
 62
7
100
AcDbSpline
 70
8
 71
3
 72
8
 73
4
 74
0
 40
0
 40
0
 40
0
 40
0
 40
1
 40
1
 40
1
 40
1
 10
-381.142540
 20
428.717569
 30
0.0
 10
-378.424500
 20
428.717569
 30
0.0
 10
-376.236340
 20
426.529406
 30
0.0
 10
-376.236340
 20
423.811374
 30
0.0
  0
LWPOLYLINE
  5
197
100
AcDbEntity
  8
Layer_1
 62
7
100
AcDbPolyline
 90
2
 70
0
 10
-383.303460
 20
428.717569
 30
0.0
 10
-381.142540
 20
428.717569
 30
0.0
  0
SPLINE
  5
198
100
AcDbEntity
  8
Layer_1
 62
7
100
AcDbSpline
 70
8
 71
3
 72
8
 73
4
 74
0
 40
0
 40
0
 40
0
 40
0
 40
1
 40
1
 40
1
 40
1
 10
-376.236340
 20
-111.349500
 30
0.0
 10
-376.236340
 20
-114.067530
 30
0.0
 10
-378.424500
 20
-116.255700
 30
0.0
 10
-381.142540
 20
-116.255700
 30
0.0
  0
LWPOLYLINE
  5
199
100
AcDbEntity
  8
Layer_1
 62
7
100
AcDbPolyline
 90
2
 70
0
 10
-376.236340
 20
423.811374
 30
0.0
 10
-376.236340
 20
-111.349500
 30
0.0
  0
SPLINE
  5
19a
100
AcDbEntity
  8
Layer_1
 62
7
100
AcDbSpline
 70
8
 71
3
 72
8
 73
4
 74
0
 40
0
 40
0
 40
0
 40
0
 40
1
 40
1
 40
1
 40
1
 10
-383.303460
 20
-116.255700
 30
0.0
 10
-386.021490
 20
-116.255700
 30
0.0
 10
-388.209660
 20
-114.067530
 30
0.0
 10
-388.209660
 20
-111.349500
 30
0.0
  0
LWPOLYLINE
  5
19b
100
AcDbEntity
  8
Layer_1
 62
7
100
AcDbPolyline
 90
2
 70
0
 10
-381.142540
 20
-116.255700
 30
0.0
 10
-383.303460
 20
-116.255700
 30
0.0
  0
SPLINE
  5
19c
100
AcDbEntity
  8
Layer_1
 62
7
100
AcDbSpline
 70
8
 71
3
 72
8
 73
4
 74
0
 40
0
 40
0
 40
0
 40
0
 40
1
 40
1
 40
1
 40
1
 10
-388.209660
 20
423.811374
 30
0.0
 10
-388.209660
 20
426.529406
 30
0.0
 10
-386.021490
 20
428.717569
 30
0.0
 10
-383.303460
 20
428.717569
 30
0.0
  0
LWPOLYLINE
  5
19d
100
AcDbEntity
  8
Layer_1
 62
7
100
AcDbPolyline
 90
2
 70
0
 10
-388.209660
 20
-111.349500
 30
0.0
 10
-388.209660
 20
423.811374
 30
0.0
  0
SPLINE
  5
19e
100
AcDbEntity
  8
Layer_1
 62
7
100
AcDbSpline
 70
8
 71
3
 72
8
 73
4
 74
0
 40
0
 40
0
 40
0
 40
0
 40
1
 40
1
 40
1
 40
1
 10
-380.941020
 20
422.882000
 30
0.0
 10
-380.941019
 20
422.541999
 30
0.0
 10
-381.076082
 20
422.215923
 30
0.0
 10
-381.316498
 20
421.975505
 30
0.0
  0
SPLINE
  5
19f
100
AcDbEntity
  8
Layer_1
 62
7
100
AcDbSpline
 70
8
 71
3
 72
8
 73
4
 74
0
 40
0
 40
0
 40
0
 40
0
 40
1
 40
1
 40
1
 40
1
 10
-381.316498
 20
421.975505
 30
0.0
 10
-381.556914
 20
421.735087
 30
0.0
 10
-381.882989
 20
421.600021
 30
0.0
 10
-382.222990
 20
421.600020
 30
0.0
  0
SPLINE
  5
1a0
100
AcDbEntity
  8
Layer_1
 62
7
100
AcDbSpline
 70
8
 71
3
 72
8
 73
4
 74
0
 40
0
 40
0
 40
0
 40
0
 40
1
 40
1
 40
1
 40
1
 10
-382.222990
 20
421.600020
 30
0.0
 10
-382.562993
 20
421.600019
 30
0.0
 10
-382.889070
 20
421.735083
 30
0.0
 10
-383.129488
 20
421.975502
 30
0.0
  0
SPLINE
  5
1a1
100
AcDbEntity
  8
Layer_1
 62
7
100
AcDbSpline
 70
8
 71
3
 72
8
 73
4
 74
0
 40
0
 40
0
 40
0
 40
0
 40
1
 40
1
 40
1
 40
1
 10
-383.129488
 20
421.975502
 30
0.0
 10
-383.369907
 20
422.215920
 30
0.0
 10
-383.504971
 20
422.541997
 30
0.0
 10
-383.504970
 20
422.882000
 30
0.0
  0
SPLINE
  5
1a2
100
AcDbEntity
  8
Layer_1
 62
7
100
AcDbSpline
 70
8
 71
3
 72
8
 73
4
 74
0
 40
0
 40
0
 40
0
 40
0
 40
1
 40
1
 40
1
 40
1
 10
-383.504970
 20
422.882000
 30
0.0
 10
-383.504969
 20
423.222001
 30
0.0
 10
-383.369903
 20
423.548077
 30
0.0
 10
-383.129486
 20
423.788493
 30
0.0
  0
SPLINE
  5
1a3
100
AcDbEntity
  8
Layer_1
 62
7
100
AcDbSpline
 70
8
 71
3
 72
8
 73
4
 74
0
 40
0
 40
0
 40
0
 40
0
 40
1
 40
1
 40
1
 40
1
 10
-383.129486
 20
423.788493
 30
0.0
 10
-382.889068
 20
424.028910
 30
0.0
 10
-382.562991
 20
424.163973
 30
0.0
 10
-382.222990
 20
424.163972
 30
0.0
  0
SPLINE
  5
1a4
100
AcDbEntity
  8
Layer_1
 62
7
100
AcDbSpline
 70
8
 71
3
 72
8
 73
4
 74
0
 40
0
 40
0
 40
0
 40
0
 40
1
 40
1
 40
1
 40
1
 10
-382.222990
 20
424.163972
 30
0.0
 10
-381.514978
 20
424.163969
 30
0.0
 10
-380.941021
 20
423.590012
 30
0.0
 10
-380.941020
 20
422.882000
 30
0.0
  0
LWPOLYLINE
  5
1a5
100
AcDbEntity
  8
Layer_1
 62
7
100
AcDbPolyline
 90
1
 70
1
 10
-383.303460
 20
428.717569
 30
0.0
  0
SPLINE
  5
1a6
100
AcDbEntity
  8
Layer_1
 62
7
100
AcDbSpline
 70
8
 71
3
 72
8
 73
4
 74
0
 40
0
 40
0
 40
0
 40
0
 40
1
 40
1
 40
1
 40
1
 10
-380.941020
 20
-109.922100
 30
0.0
 10
-380.941019
 20
-110.262101
 30
0.0
 10
-381.076082
 20
-110.588177
 30
0.0
 10
-381.316498
 20
-110.828595
 30
0.0
  0
SPLINE
  5
1a7
100
AcDbEntity
  8
Layer_1
 62
7
100
AcDbSpline
 70
8
 71
3
 72
8
 73
4
 74
0
 40
0
 40
0
 40
0
 40
0
 40
1
 40
1
 40
1
 40
1
 10
-381.316498
 20
-110.828595
 30
0.0
 10
-381.556914
 20
-111.069013
 30
0.0
 10
-381.882989
 20
-111.204079
 30
0.0
 10
-382.222990
 20
-111.204080
 30
0.0
  0
SPLINE
  5
1a8
100
AcDbEntity
  8
Layer_1
 62
7
100
AcDbSpline
 70
8
 71
3
 72
8
 73
4
 74
0
 40
0
 40
0
 40
0
 40
0
 40
1
 40
1
 40
1
 40
1
 10
-382.222990
 20
-111.204080
 30
0.0
 10
-382.562993
 20
-111.204081
 30
0.0
 10
-382.889070
 20
-111.069017
 30
0.0
 10
-383.129488
 20
-110.828598
 30
0.0
  0
SPLINE
  5
1a9
100
AcDbEntity
  8
Layer_1
 62
7
100
AcDbSpline
 70
8
 71
3
 72
8
 73
4
 74
0
 40
0
 40
0
 40
0
 40
0
 40
1
 40
1
 40
1
 40
1
 10
-383.129488
 20
-110.828598
 30
0.0
 10
-383.369907
 20
-110.588180
 30
0.0
 10
-383.504971
 20
-110.262103
 30
0.0
 10
-383.504970
 20
-109.922100
 30
0.0
  0
SPLINE
  5
1aa
100
AcDbEntity
  8
Layer_1
 62
7
100
AcDbSpline
 70
8
 71
3
 72
8
 73
4
 74
0
 40
0
 40
0
 40
0
 40
0
 40
1
 40
1
 40
1
 40
1
 10
-383.504970
 20
-109.922100
 30
0.0
 10
-383.504969
 20
-109.582099
 30
0.0
 10
-383.369903
 20
-109.256024
 30
0.0
 10
-383.129485
 20
-109.015608
 30
0.0
  0
SPLINE
  5
1ab
100
AcDbEntity
  8
Layer_1
 62
7
100
AcDbSpline
 70
8
 71
3
 72
8
 73
4
 74
0
 40
0
 40
0
 40
0
 40
0
 40
1
 40
1
 40
1
 40
1
 10
-383.129485
 20
-109.015608
 30
0.0
 10
-382.889067
 20
-108.775192
 30
0.0
 10
-382.562991
 20
-108.640129
 30
0.0
 10
-382.222990
 20
-108.640130
 30
0.0
  0
SPLINE
  5
1ac
100
AcDbEntity
  8
Layer_1
 62
7
100
AcDbSpline
 70
8
 71
3
 72
8
 73
4
 74
0
 40
0
 40
0
 40
0
 40
0
 40
1
 40
1
 40
1
 40
1
 10
-382.222990
 20
-108.640130
 30
0.0
 10
-381.514979
 20
-108.640133
 30
0.0
 10
-380.941023
 20
-109.214089
 30
0.0
 10
-380.941020
 20
-109.922100
 30
0.0
  0
LWPOLYLINE
  5
1ad
100
AcDbEntity
  8
Layer_1
 62
7
100
AcDbPolyline
 90
1
 70
1
 10
-380.941020
 20
422.882000
 30
0.0
  0
LWPOLYLINE
  5
1ae
100
AcDbEntity
  8
Layer_1
 62
7
100
AcDbPolyline
 90
1
 70
1
 10
-380.941020
 20
-109.922100
 30
0.0
  0
SPLINE
  5
1af
100
AcDbEntity
  8
Layer_1
 62
7
100
AcDbSpline
 70
8
 71
3
 72
8
 73
4
 74
0
 40
0
 40
0
 40
0
 40
0
 40
1
 40
1
 40
1
 40
1
 10
-363.425890
 20
428.717569
 30
0.0
 10
-360.707850
 20
428.717569
 30
0.0
 10
-358.519690
 20
426.529406
 30
0.0
 10
-358.519690
 20
423.811374
 30
0.0
  0
LWPOLYLINE
  5
1b0
100
AcDbEntity
  8
Layer_1
 62
7
100
AcDbPolyline
 90
2
 70
0
 10
-365.586810
 20
428.717569
 30
0.0
 10
-363.425890
 20
428.717569
 30
0.0
  0
SPLINE
  5
1b1
100
AcDbEntity
  8
Layer_1
 62
7
100
AcDbSpline
 70
8
 71
3
 72
8
 73
4
 74
0
 40
0
 40
0
 40
0
 40
0
 40
1
 40
1
 40
1
 40
1
 10
-358.519690
 20
-111.349500
 30
0.0
 10
-358.519690
 20
-114.067530
 30
0.0
 10
-360.707850
 20
-116.255700
 30
0.0
 10
-363.425890
 20
-116.255700
 30
0.0
  0
LWPOLYLINE
  5
1b2
100
AcDbEntity
  8
Layer_1
 62
7
100
AcDbPolyline
 90
2
 70
0
 10
-358.519690
 20
423.811374
 30
0.0
 10
-358.519690
 20
-111.349500
 30
0.0
  0
SPLINE
  5
1b3
100
AcDbEntity
  8
Layer_1
 62
7
100
AcDbSpline
 70
8
 71
3
 72
8
 73
4
 74
0
 40
0
 40
0
 40
0
 40
0
 40
1
 40
1
 40
1
 40
1
 10
-365.586810
 20
-116.255700
 30
0.0
 10
-368.304840
 20
-116.255700
 30
0.0
 10
-370.493010
 20
-114.067530
 30
0.0
 10
-370.493010
 20
-111.349500
 30
0.0
  0
LWPOLYLINE
  5
1b4
100
AcDbEntity
  8
Layer_1
 62
7
100
AcDbPolyline
 90
2
 70
0
 10
-363.425890
 20
-116.255700
 30
0.0
 10
-365.586810
 20
-116.255700
 30
0.0
  0
SPLINE
  5
1b5
100
AcDbEntity
  8
Layer_1
 62
7
100
AcDbSpline
 70
8
 71
3
 72
8
 73
4
 74
0
 40
0
 40
0
 40
0
 40
0
 40
1
 40
1
 40
1
 40
1
 10
-370.493010
 20
423.811374
 30
0.0
 10
-370.493010
 20
426.529406
 30
0.0
 10
-368.304840
 20
428.717569
 30
0.0
 10
-365.586810
 20
428.717569
 30
0.0
  0
LWPOLYLINE
  5
1b6
100
AcDbEntity
  8
Layer_1
 62
7
100
AcDbPolyline
 90
2
 70
0
 10
-370.493010
 20
-111.349500
 30
0.0
 10
-370.493010
 20
423.811374
 30
0.0
  0
SPLINE
  5
1b7
100
AcDbEntity
  8
Layer_1
 62
7
100
AcDbSpline
 70
8
 71
3
 72
8
 73
4
 74
0
 40
0
 40
0
 40
0
 40
0
 40
1
 40
1
 40
1
 40
1
 10
-363.224370
 20
422.882000
 30
0.0
 10
-363.224369
 20
422.541999
 30
0.0
 10
-363.359432
 20
422.215923
 30
0.0
 10
-363.599848
 20
421.975505
 30
0.0
  0
SPLINE
  5
1b8
100
AcDbEntity
  8
Layer_1
 62
7
100
AcDbSpline
 70
8
 71
3
 72
8
 73
4
 74
0
 40
0
 40
0
 40
0
 40
0
 40
1
 40
1
 40
1
 40
1
 10
-363.599848
 20
421.975505
 30
0.0
 10
-363.840264
 20
421.735087
 30
0.0
 10
-364.166339
 20
421.600021
 30
0.0
 10
-364.506340
 20
421.600020
 30
0.0
  0
SPLINE
  5
1b9
100
AcDbEntity
  8
Layer_1
 62
7
100
AcDbSpline
 70
8
 71
3
 72
8
 73
4
 74
0
 40
0
 40
0
 40
0
 40
0
 40
1
 40
1
 40
1
 40
1
 10
-364.506340
 20
421.600020
 30
0.0
 10
-364.846343
 20
421.600019
 30
0.0
 10
-365.172420
 20
421.735083
 30
0.0
 10
-365.412838
 20
421.975502
 30
0.0
  0
SPLINE
  5
1ba
100
AcDbEntity
  8
Layer_1
 62
7
100
AcDbSpline
 70
8
 71
3
 72
8
 73
4
 74
0
 40
0
 40
0
 40
0
 40
0
 40
1
 40
1
 40
1
 40
1
 10
-365.412838
 20
421.975502
 30
0.0
 10
-365.653257
 20
422.215920
 30
0.0
 10
-365.788321
 20
422.541997
 30
0.0
 10
-365.788320
 20
422.882000
 30
0.0
  0
SPLINE
  5
1bb
100
AcDbEntity
  8
Layer_1
 62
7
100
AcDbSpline
 70
8
 71
3
 72
8
 73
4
 74
0
 40
0
 40
0
 40
0
 40
0
 40
1
 40
1
 40
1
 40
1
 10
-365.788320
 20
422.882000
 30
0.0
 10
-365.788319
 20
423.222001
 30
0.0
 10
-365.653253
 20
423.548077
 30
0.0
 10
-365.412836
 20
423.788493
 30
0.0
  0
SPLINE
  5
1bc
100
AcDbEntity
  8
Layer_1
 62
7
100
AcDbSpline
 70
8
 71
3
 72
8
 73
4
 74
0
 40
0
 40
0
 40
0
 40
0
 40
1
 40
1
 40
1
 40
1
 10
-365.412836
 20
423.788493
 30
0.0
 10
-365.172418
 20
424.028910
 30
0.0
 10
-364.846341
 20
424.163973
 30
0.0
 10
-364.506340
 20
424.163972
 30
0.0
  0
SPLINE
  5
1bd
100
AcDbEntity
  8
Layer_1
 62
7
100
AcDbSpline
 70
8
 71
3
 72
8
 73
4
 74
0
 40
0
 40
0
 40
0
 40
0
 40
1
 40
1
 40
1
 40
1
 10
-364.506340
 20
424.163972
 30
0.0
 10
-363.798328
 20
424.163969
 30
0.0
 10
-363.224371
 20
423.590012
 30
0.0
 10
-363.224370
 20
422.882000
 30
0.0
  0
LWPOLYLINE
  5
1be
100
AcDbEntity
  8
Layer_1
 62
7
100
AcDbPolyline
 90
1
 70
1
 10
-365.586810
 20
428.717569
 30
0.0
  0
SPLINE
  5
1bf
100
AcDbEntity
  8
Layer_1
 62
7
100
AcDbSpline
 70
8
 71
3
 72
8
 73
4
 74
0
 40
0
 40
0
 40
0
 40
0
 40
1
 40
1
 40
1
 40
1
 10
-363.224370
 20
-109.922100
 30
0.0
 10
-363.224369
 20
-110.262101
 30
0.0
 10
-363.359432
 20
-110.588177
 30
0.0
 10
-363.599848
 20
-110.828595
 30
0.0
  0
SPLINE
  5
1c0
100
AcDbEntity
  8
Layer_1
 62
7
100
AcDbSpline
 70
8
 71
3
 72
8
 73
4
 74
0
 40
0
 40
0
 40
0
 40
0
 40
1
 40
1
 40
1
 40
1
 10
-363.599848
 20
-110.828595
 30
0.0
 10
-363.840264
 20
-111.069013
 30
0.0
 10
-364.166339
 20
-111.204079
 30
0.0
 10
-364.506340
 20
-111.204080
 30
0.0
  0
SPLINE
  5
1c1
100
AcDbEntity
  8
Layer_1
 62
7
100
AcDbSpline
 70
8
 71
3
 72
8
 73
4
 74
0
 40
0
 40
0
 40
0
 40
0
 40
1
 40
1
 40
1
 40
1
 10
-364.506340
 20
-111.204080
 30
0.0
 10
-364.846343
 20
-111.204081
 30
0.0
 10
-365.172420
 20
-111.069017
 30
0.0
 10
-365.412838
 20
-110.828598
 30
0.0
  0
SPLINE
  5
1c2
100
AcDbEntity
  8
Layer_1
 62
7
100
AcDbSpline
 70
8
 71
3
 72
8
 73
4
 74
0
 40
0
 40
0
 40
0
 40
0
 40
1
 40
1
 40
1
 40
1
 10
-365.412838
 20
-110.828598
 30
0.0
 10
-365.653257
 20
-110.588180
 30
0.0
 10
-365.788321
 20
-110.262103
 30
0.0
 10
-365.788320
 20
-109.922100
 30
0.0
  0
SPLINE
  5
1c3
100
AcDbEntity
  8
Layer_1
 62
7
100
AcDbSpline
 70
8
 71
3
 72
8
 73
4
 74
0
 40
0
 40
0
 40
0
 40
0
 40
1
 40
1
 40
1
 40
1
 10
-365.788320
 20
-109.922100
 30
0.0
 10
-365.788319
 20
-109.582099
 30
0.0
 10
-365.653253
 20
-109.256024
 30
0.0
 10
-365.412835
 20
-109.015608
 30
0.0
  0
SPLINE
  5
1c4
100
AcDbEntity
  8
Layer_1
 62
7
100
AcDbSpline
 70
8
 71
3
 72
8
 73
4
 74
0
 40
0
 40
0
 40
0
 40
0
 40
1
 40
1
 40
1
 40
1
 10
-365.412835
 20
-109.015608
 30
0.0
 10
-365.172417
 20
-108.775192
 30
0.0
 10
-364.846341
 20
-108.640129
 30
0.0
 10
-364.506340
 20
-108.640130
 30
0.0
  0
SPLINE
  5
1c5
100
AcDbEntity
  8
Layer_1
 62
7
100
AcDbSpline
 70
8
 71
3
 72
8
 73
4
 74
0
 40
0
 40
0
 40
0
 40
0
 40
1
 40
1
 40
1
 40
1
 10
-364.506340
 20
-108.640130
 30
0.0
 10
-363.798329
 20
-108.640133
 30
0.0
 10
-363.224373
 20
-109.214089
 30
0.0
 10
-363.224370
 20
-109.922100
 30
0.0
  0
LWPOLYLINE
  5
1c6
100
AcDbEntity
  8
Layer_1
 62
7
100
AcDbPolyline
 90
1
 70
1
 10
-363.224370
 20
422.882000
 30
0.0
  0
LWPOLYLINE
  5
1c7
100
AcDbEntity
  8
Layer_1
 62
7
100
AcDbPolyline
 90
1
 70
1
 10
-363.224370
 20
-109.922100
 30
0.0
  0
SPLINE
  5
1c8
100
AcDbEntity
  8
Layer_1
 62
7
100
AcDbSpline
 70
8
 71
3
 72
8
 73
4
 74
0
 40
0
 40
0
 40
0
 40
0
 40
1
 40
1
 40
1
 40
1
 10
-345.709230
 20
428.717569
 30
0.0
 10
-342.991190
 20
428.717569
 30
0.0
 10
-340.803030
 20
426.529406
 30
0.0
 10
-340.803030
 20
423.811374
 30
0.0
  0
LWPOLYLINE
  5
1c9
100
AcDbEntity
  8
Layer_1
 62
7
100
AcDbPolyline
 90
2
 70
0
 10
-347.870150
 20
428.717569
 30
0.0
 10
-345.709230
 20
428.717569
 30
0.0
  0
SPLINE
  5
1ca
100
AcDbEntity
  8
Layer_1
 62
7
100
AcDbSpline
 70
8
 71
3
 72
8
 73
4
 74
0
 40
0
 40
0
 40
0
 40
0
 40
1
 40
1
 40
1
 40
1
 10
-340.803030
 20
-111.349500
 30
0.0
 10
-340.803030
 20
-114.067530
 30
0.0
 10
-342.991190
 20
-116.255700
 30
0.0
 10
-345.709230
 20
-116.255700
 30
0.0
  0
LWPOLYLINE
  5
1cb
100
AcDbEntity
  8
Layer_1
 62
7
100
AcDbPolyline
 90
2
 70
0
 10
-340.803030
 20
423.811374
 30
0.0
 10
-340.803030
 20
-111.349500
 30
0.0
  0
SPLINE
  5
1cc
100
AcDbEntity
  8
Layer_1
 62
7
100
AcDbSpline
 70
8
 71
3
 72
8
 73
4
 74
0
 40
0
 40
0
 40
0
 40
0
 40
1
 40
1
 40
1
 40
1
 10
-347.870150
 20
-116.255700
 30
0.0
 10
-350.588180
 20
-116.255700
 30
0.0
 10
-352.776350
 20
-114.067530
 30
0.0
 10
-352.776350
 20
-111.349500
 30
0.0
  0
LWPOLYLINE
  5
1cd
100
AcDbEntity
  8
Layer_1
 62
7
100
AcDbPolyline
 90
2
 70
0
 10
-345.709230
 20
-116.255700
 30
0.0
 10
-347.870150
 20
-116.255700
 30
0.0
  0
SPLINE
  5
1ce
100
AcDbEntity
  8
Layer_1
 62
7
100
AcDbSpline
 70
8
 71
3
 72
8
 73
4
 74
0
 40
0
 40
0
 40
0
 40
0
 40
1
 40
1
 40
1
 40
1
 10
-352.776350
 20
423.811374
 30
0.0
 10
-352.776350
 20
426.529406
 30
0.0
 10
-350.588180
 20
428.717569
 30
0.0
 10
-347.870150
 20
428.717569
 30
0.0
  0
LWPOLYLINE
  5
1cf
100
AcDbEntity
  8
Layer_1
 62
7
100
AcDbPolyline
 90
2
 70
0
 10
-352.776350
 20
-111.349500
 30
0.0
 10
-352.776350
 20
423.811374
 30
0.0
  0
SPLINE
  5
1d0
100
AcDbEntity
  8
Layer_1
 62
7
100
AcDbSpline
 70
8
 71
3
 72
8
 73
4
 74
0
 40
0
 40
0
 40
0
 40
0
 40
1
 40
1
 40
1
 40
1
 10
-345.507710
 20
422.882000
 30
0.0
 10
-345.507709
 20
422.541999
 30
0.0
 10
-345.642772
 20
422.215923
 30
0.0
 10
-345.883188
 20
421.975505
 30
0.0
  0
SPLINE
  5
1d1
100
AcDbEntity
  8
Layer_1
 62
7
100
AcDbSpline
 70
8
 71
3
 72
8
 73
4
 74
0
 40
0
 40
0
 40
0
 40
0
 40
1
 40
1
 40
1
 40
1
 10
-345.883188
 20
421.975505
 30
0.0
 10
-346.123604
 20
421.735087
 30
0.0
 10
-346.449679
 20
421.600021
 30
0.0
 10
-346.789680
 20
421.600020
 30
0.0
  0
SPLINE
  5
1d2
100
AcDbEntity
  8
Layer_1
 62
7
100
AcDbSpline
 70
8
 71
3
 72
8
 73
4
 74
0
 40
0
 40
0
 40
0
 40
0
 40
1
 40
1
 40
1
 40
1
 10
-346.789680
 20
421.600020
 30
0.0
 10
-347.129683
 20
421.600019
 30
0.0
 10
-347.455760
 20
421.735083
 30
0.0
 10
-347.696178
 20
421.975502
 30
0.0
  0
SPLINE
  5
1d3
100
AcDbEntity
  8
Layer_1
 62
7
100
AcDbSpline
 70
8
 71
3
 72
8
 73
4
 74
0
 40
0
 40
0
 40
0
 40
0
 40
1
 40
1
 40
1
 40
1
 10
-347.696178
 20
421.975502
 30
0.0
 10
-347.936597
 20
422.215920
 30
0.0
 10
-348.071661
 20
422.541997
 30
0.0
 10
-348.071660
 20
422.882000
 30
0.0
  0
SPLINE
  5
1d4
100
AcDbEntity
  8
Layer_1
 62
7
100
AcDbSpline
 70
8
 71
3
 72
8
 73
4
 74
0
 40
0
 40
0
 40
0
 40
0
 40
1
 40
1
 40
1
 40
1
 10
-348.071660
 20
422.882000
 30
0.0
 10
-348.071659
 20
423.222001
 30
0.0
 10
-347.936593
 20
423.548077
 30
0.0
 10
-347.696176
 20
423.788493
 30
0.0
  0
SPLINE
  5
1d5
100
AcDbEntity
  8
Layer_1
 62
7
100
AcDbSpline
 70
8
 71
3
 72
8
 73
4
 74
0
 40
0
 40
0
 40
0
 40
0
 40
1
 40
1
 40
1
 40
1
 10
-347.696176
 20
423.788493
 30
0.0
 10
-347.455758
 20
424.028910
 30
0.0
 10
-347.129681
 20
424.163973
 30
0.0
 10
-346.789680
 20
424.163972
 30
0.0
  0
SPLINE
  5
1d6
100
AcDbEntity
  8
Layer_1
 62
7
100
AcDbSpline
 70
8
 71
3
 72
8
 73
4
 74
0
 40
0
 40
0
 40
0
 40
0
 40
1
 40
1
 40
1
 40
1
 10
-346.789680
 20
424.163972
 30
0.0
 10
-346.081668
 20
424.163969
 30
0.0
 10
-345.507711
 20
423.590012
 30
0.0
 10
-345.507710
 20
422.882000
 30
0.0
  0
LWPOLYLINE
  5
1d7
100
AcDbEntity
  8
Layer_1
 62
7
100
AcDbPolyline
 90
1
 70
1
 10
-347.870150
 20
428.717569
 30
0.0
  0
SPLINE
  5
1d8
100
AcDbEntity
  8
Layer_1
 62
7
100
AcDbSpline
 70
8
 71
3
 72
8
 73
4
 74
0
 40
0
 40
0
 40
0
 40
0
 40
1
 40
1
 40
1
 40
1
 10
-345.507710
 20
-109.922100
 30
0.0
 10
-345.507709
 20
-110.262101
 30
0.0
 10
-345.642772
 20
-110.588177
 30
0.0
 10
-345.883188
 20
-110.828595
 30
0.0
  0
SPLINE
  5
1d9
100
AcDbEntity
  8
Layer_1
 62
7
100
AcDbSpline
 70
8
 71
3
 72
8
 73
4
 74
0
 40
0
 40
0
 40
0
 40
0
 40
1
 40
1
 40
1
 40
1
 10
-345.883188
 20
-110.828595
 30
0.0
 10
-346.123604
 20
-111.069013
 30
0.0
 10
-346.449679
 20
-111.204079
 30
0.0
 10
-346.789680
 20
-111.204080
 30
0.0
  0
SPLINE
  5
1da
100
AcDbEntity
  8
Layer_1
 62
7
100
AcDbSpline
 70
8
 71
3
 72
8
 73
4
 74
0
 40
0
 40
0
 40
0
 40
0
 40
1
 40
1
 40
1
 40
1
 10
-346.789680
 20
-111.204080
 30
0.0
 10
-347.129683
 20
-111.204081
 30
0.0
 10
-347.455760
 20
-111.069017
 30
0.0
 10
-347.696178
 20
-110.828598
 30
0.0
  0
SPLINE
  5
1db
100
AcDbEntity
  8
Layer_1
 62
7
100
AcDbSpline
 70
8
 71
3
 72
8
 73
4
 74
0
 40
0
 40
0
 40
0
 40
0
 40
1
 40
1
 40
1
 40
1
 10
-347.696178
 20
-110.828598
 30
0.0
 10
-347.936597
 20
-110.588180
 30
0.0
 10
-348.071661
 20
-110.262103
 30
0.0
 10
-348.071660
 20
-109.922100
 30
0.0
  0
SPLINE
  5
1dc
100
AcDbEntity
  8
Layer_1
 62
7
100
AcDbSpline
 70
8
 71
3
 72
8
 73
4
 74
0
 40
0
 40
0
 40
0
 40
0
 40
1
 40
1
 40
1
 40
1
 10
-348.071660
 20
-109.922100
 30
0.0
 10
-348.071659
 20
-109.582099
 30
0.0
 10
-347.936593
 20
-109.256024
 30
0.0
 10
-347.696175
 20
-109.015608
 30
0.0
  0
SPLINE
  5
1dd
100
AcDbEntity
  8
Layer_1
 62
7
100
AcDbSpline
 70
8
 71
3
 72
8
 73
4
 74
0
 40
0
 40
0
 40
0
 40
0
 40
1
 40
1
 40
1
 40
1
 10
-347.696175
 20
-109.015608
 30
0.0
 10
-347.455757
 20
-108.775192
 30
0.0
 10
-347.129681
 20
-108.640129
 30
0.0
 10
-346.789680
 20
-108.640130
 30
0.0
  0
SPLINE
  5
1de
100
AcDbEntity
  8
Layer_1
 62
7
100
AcDbSpline
 70
8
 71
3
 72
8
 73
4
 74
0
 40
0
 40
0
 40
0
 40
0
 40
1
 40
1
 40
1
 40
1
 10
-346.789680
 20
-108.640130
 30
0.0
 10
-346.081669
 20
-108.640133
 30
0.0
 10
-345.507713
 20
-109.214089
 30
0.0
 10
-345.507710
 20
-109.922100
 30
0.0
  0
LWPOLYLINE
  5
1df
100
AcDbEntity
  8
Layer_1
 62
7
100
AcDbPolyline
 90
1
 70
1
 10
-345.507710
 20
422.882000
 30
0.0
  0
LWPOLYLINE
  5
1e0
100
AcDbEntity
  8
Layer_1
 62
7
100
AcDbPolyline
 90
1
 70
1
 10
-345.507710
 20
-109.922100
 30
0.0
  0
SPLINE
  5
1e1
100
AcDbEntity
  8
Layer_1
 62
7
100
AcDbSpline
 70
8
 71
3
 72
8
 73
4
 74
0
 40
0
 40
0
 40
0
 40
0
 40
1
 40
1
 40
1
 40
1
 10
-327.992560
 20
428.717569
 30
0.0
 10
-325.274520
 20
428.717569
 30
0.0
 10
-323.086360
 20
426.529406
 30
0.0
 10
-323.086360
 20
423.811374
 30
0.0
  0
LWPOLYLINE
  5
1e2
100
AcDbEntity
  8
Layer_1
 62
7
100
AcDbPolyline
 90
2
 70
0
 10
-330.153480
 20
428.717569
 30
0.0
 10
-327.992560
 20
428.717569
 30
0.0
  0
SPLINE
  5
1e3
100
AcDbEntity
  8
Layer_1
 62
7
100
AcDbSpline
 70
8
 71
3
 72
8
 73
4
 74
0
 40
0
 40
0
 40
0
 40
0
 40
1
 40
1
 40
1
 40
1
 10
-323.086360
 20
-111.349500
 30
0.0
 10
-323.086360
 20
-114.067530
 30
0.0
 10
-325.274520
 20
-116.255700
 30
0.0
 10
-327.992560
 20
-116.255700
 30
0.0
  0
LWPOLYLINE
  5
1e4
100
AcDbEntity
  8
Layer_1
 62
7
100
AcDbPolyline
 90
2
 70
0
 10
-323.086360
 20
423.811374
 30
0.0
 10
-323.086360
 20
-111.349500
 30
0.0
  0
SPLINE
  5
1e5
100
AcDbEntity
  8
Layer_1
 62
7
100
AcDbSpline
 70
8
 71
3
 72
8
 73
4
 74
0
 40
0
 40
0
 40
0
 40
0
 40
1
 40
1
 40
1
 40
1
 10
-330.153480
 20
-116.255700
 30
0.0
 10
-332.871510
 20
-116.255700
 30
0.0
 10
-335.059680
 20
-114.067530
 30
0.0
 10
-335.059680
 20
-111.349500
 30
0.0
  0
LWPOLYLINE
  5
1e6
100
AcDbEntity
  8
Layer_1
 62
7
100
AcDbPolyline
 90
2
 70
0
 10
-327.992560
 20
-116.255700
 30
0.0
 10
-330.153480
 20
-116.255700
 30
0.0
  0
SPLINE
  5
1e7
100
AcDbEntity
  8
Layer_1
 62
7
100
AcDbSpline
 70
8
 71
3
 72
8
 73
4
 74
0
 40
0
 40
0
 40
0
 40
0
 40
1
 40
1
 40
1
 40
1
 10
-335.059680
 20
423.811374
 30
0.0
 10
-335.059680
 20
426.529406
 30
0.0
 10
-332.871510
 20
428.717569
 30
0.0
 10
-330.153480
 20
428.717569
 30
0.0
  0
LWPOLYLINE
  5
1e8
100
AcDbEntity
  8
Layer_1
 62
7
100
AcDbPolyline
 90
2
 70
0
 10
-335.059680
 20
-111.349500
 30
0.0
 10
-335.059680
 20
423.811374
 30
0.0
  0
SPLINE
  5
1e9
100
AcDbEntity
  8
Layer_1
 62
7
100
AcDbSpline
 70
8
 71
3
 72
8
 73
4
 74
0
 40
0
 40
0
 40
0
 40
0
 40
1
 40
1
 40
1
 40
1
 10
-327.791040
 20
422.882000
 30
0.0
 10
-327.791039
 20
422.541999
 30
0.0
 10
-327.926102
 20
422.215923
 30
0.0
 10
-328.166518
 20
421.975505
 30
0.0
  0
SPLINE
  5
1ea
100
AcDbEntity
  8
Layer_1
 62
7
100
AcDbSpline
 70
8
 71
3
 72
8
 73
4
 74
0
 40
0
 40
0
 40
0
 40
0
 40
1
 40
1
 40
1
 40
1
 10
-328.166518
 20
421.975505
 30
0.0
 10
-328.406934
 20
421.735087
 30
0.0
 10
-328.733009
 20
421.600021
 30
0.0
 10
-329.073010
 20
421.600020
 30
0.0
  0
SPLINE
  5
1eb
100
AcDbEntity
  8
Layer_1
 62
7
100
AcDbSpline
 70
8
 71
3
 72
8
 73
4
 74
0
 40
0
 40
0
 40
0
 40
0
 40
1
 40
1
 40
1
 40
1
 10
-329.073010
 20
421.600020
 30
0.0
 10
-329.413013
 20
421.600019
 30
0.0
 10
-329.739090
 20
421.735083
 30
0.0
 10
-329.979508
 20
421.975502
 30
0.0
  0
SPLINE
  5
1ec
100
AcDbEntity
  8
Layer_1
 62
7
100
AcDbSpline
 70
8
 71
3
 72
8
 73
4
 74
0
 40
0
 40
0
 40
0
 40
0
 40
1
 40
1
 40
1
 40
1
 10
-329.979508
 20
421.975502
 30
0.0
 10
-330.219927
 20
422.215920
 30
0.0
 10
-330.354991
 20
422.541997
 30
0.0
 10
-330.354990
 20
422.882000
 30
0.0
  0
SPLINE
  5
1ed
100
AcDbEntity
  8
Layer_1
 62
7
100
AcDbSpline
 70
8
 71
3
 72
8
 73
4
 74
0
 40
0
 40
0
 40
0
 40
0
 40
1
 40
1
 40
1
 40
1
 10
-330.354990
 20
422.882000
 30
0.0
 10
-330.354989
 20
423.222001
 30
0.0
 10
-330.219923
 20
423.548077
 30
0.0
 10
-329.979506
 20
423.788493
 30
0.0
  0
SPLINE
  5
1ee
100
AcDbEntity
  8
Layer_1
 62
7
100
AcDbSpline
 70
8
 71
3
 72
8
 73
4
 74
0
 40
0
 40
0
 40
0
 40
0
 40
1
 40
1
 40
1
 40
1
 10
-329.979506
 20
423.788493
 30
0.0
 10
-329.739088
 20
424.028910
 30
0.0
 10
-329.413011
 20
424.163973
 30
0.0
 10
-329.073010
 20
424.163972
 30
0.0
  0
SPLINE
  5
1ef
100
AcDbEntity
  8
Layer_1
 62
7
100
AcDbSpline
 70
8
 71
3
 72
8
 73
4
 74
0
 40
0
 40
0
 40
0
 40
0
 40
1
 40
1
 40
1
 40
1
 10
-329.073010
 20
424.163972
 30
0.0
 10
-328.364998
 20
424.163969
 30
0.0
 10
-327.791041
 20
423.590012
 30
0.0
 10
-327.791040
 20
422.882000
 30
0.0
  0
LWPOLYLINE
  5
1f0
100
AcDbEntity
  8
Layer_1
 62
7
100
AcDbPolyline
 90
1
 70
1
 10
-330.153480
 20
428.717569
 30
0.0
  0
SPLINE
  5
1f1
100
AcDbEntity
  8
Layer_1
 62
7
100
AcDbSpline
 70
8
 71
3
 72
8
 73
4
 74
0
 40
0
 40
0
 40
0
 40
0
 40
1
 40
1
 40
1
 40
1
 10
-327.791040
 20
-109.922100
 30
0.0
 10
-327.791039
 20
-110.262101
 30
0.0
 10
-327.926102
 20
-110.588177
 30
0.0
 10
-328.166518
 20
-110.828595
 30
0.0
  0
SPLINE
  5
1f2
100
AcDbEntity
  8
Layer_1
 62
7
100
AcDbSpline
 70
8
 71
3
 72
8
 73
4
 74
0
 40
0
 40
0
 40
0
 40
0
 40
1
 40
1
 40
1
 40
1
 10
-328.166518
 20
-110.828595
 30
0.0
 10
-328.406934
 20
-111.069013
 30
0.0
 10
-328.733009
 20
-111.204079
 30
0.0
 10
-329.073010
 20
-111.204080
 30
0.0
  0
SPLINE
  5
1f3
100
AcDbEntity
  8
Layer_1
 62
7
100
AcDbSpline
 70
8
 71
3
 72
8
 73
4
 74
0
 40
0
 40
0
 40
0
 40
0
 40
1
 40
1
 40
1
 40
1
 10
-329.073010
 20
-111.204080
 30
0.0
 10
-329.413013
 20
-111.204081
 30
0.0
 10
-329.739090
 20
-111.069017
 30
0.0
 10
-329.979508
 20
-110.828598
 30
0.0
  0
SPLINE
  5
1f4
100
AcDbEntity
  8
Layer_1
 62
7
100
AcDbSpline
 70
8
 71
3
 72
8
 73
4
 74
0
 40
0
 40
0
 40
0
 40
0
 40
1
 40
1
 40
1
 40
1
 10
-329.979508
 20
-110.828598
 30
0.0
 10
-330.219927
 20
-110.588180
 30
0.0
 10
-330.354991
 20
-110.262103
 30
0.0
 10
-330.354990
 20
-109.922100
 30
0.0
  0
SPLINE
  5
1f5
100
AcDbEntity
  8
Layer_1
 62
7
100
AcDbSpline
 70
8
 71
3
 72
8
 73
4
 74
0
 40
0
 40
0
 40
0
 40
0
 40
1
 40
1
 40
1
 40
1
 10
-330.354990
 20
-109.922100
 30
0.0
 10
-330.354989
 20
-109.582099
 30
0.0
 10
-330.219923
 20
-109.256024
 30
0.0
 10
-329.979505
 20
-109.015608
 30
0.0
  0
SPLINE
  5
1f6
100
AcDbEntity
  8
Layer_1
 62
7
100
AcDbSpline
 70
8
 71
3
 72
8
 73
4
 74
0
 40
0
 40
0
 40
0
 40
0
 40
1
 40
1
 40
1
 40
1
 10
-329.979505
 20
-109.015608
 30
0.0
 10
-329.739087
 20
-108.775192
 30
0.0
 10
-329.413011
 20
-108.640129
 30
0.0
 10
-329.073010
 20
-108.640130
 30
0.0
  0
SPLINE
  5
1f7
100
AcDbEntity
  8
Layer_1
 62
7
100
AcDbSpline
 70
8
 71
3
 72
8
 73
4
 74
0
 40
0
 40
0
 40
0
 40
0
 40
1
 40
1
 40
1
 40
1
 10
-329.073010
 20
-108.640130
 30
0.0
 10
-328.364999
 20
-108.640133
 30
0.0
 10
-327.791043
 20
-109.214089
 30
0.0
 10
-327.791040
 20
-109.922100
 30
0.0
  0
LWPOLYLINE
  5
1f8
100
AcDbEntity
  8
Layer_1
 62
7
100
AcDbPolyline
 90
1
 70
1
 10
-327.791040
 20
422.882000
 30
0.0
  0
LWPOLYLINE
  5
1f9
100
AcDbEntity
  8
Layer_1
 62
7
100
AcDbPolyline
 90
1
 70
1
 10
-327.791040
 20
-109.922100
 30
0.0
  0
ENDSEC
  0
SECTION
  2
OBJECTS
  0
DICTIONARY
  5
C
330
0
100
AcDbDictionary
  3
ACAD_GROUP
350
D
  3
ACAD_MLINESTYLE
350
17
  0
DICTIONARY
  5
D
330
C
100
AcDbDictionary
  0
DICTIONARY
  5
1A
330
C
100
AcDbDictionary
  0
DICTIONARY
  5
17
330
C
100
AcDbDictionary
  3
STANDARD
350
18
  0
DICTIONARY
  5
19
330
C
100
AcDbDictionary
  0
ENDSEC
  0
EOF
